<mxfile host="Electron" modified="2024-07-24T09:57:51.500Z" agent="Mozilla/5.0 (Windows NT 10.0; Win64; x64) AppleWebKit/537.36 (KHTML, like Gecko) draw.io/24.6.4 Chrome/124.0.6367.207 Electron/30.0.6 Safari/537.36" etag="MMDYE_0rP_PDjYfh2fPj" version="24.6.4" type="device">
  <diagram id="C5RBs43oDa-KdzZeNtuy" name="Page-1">
    <mxGraphModel dx="2175" dy="709" grid="1" gridSize="10" guides="1" tooltips="1" connect="1" arrows="1" fold="1" page="1" pageScale="1" pageWidth="827" pageHeight="1169" math="0" shadow="0">
      <root>
        <mxCell id="WIyWlLk6GJQsqaUBKTNV-0" />
        <mxCell id="WIyWlLk6GJQsqaUBKTNV-1" parent="WIyWlLk6GJQsqaUBKTNV-0" />
        <mxCell id="j9wG2tnD-Bj2alD1Jjqa-212" value="de.ufo.cinemasystem.controller" style="shape=folder;fontStyle=1;spacingTop=10;tabWidth=50;tabHeight=10;tabPosition=left;html=1;whiteSpace=wrap;verticalAlign=top;" parent="WIyWlLk6GJQsqaUBKTNV-1" vertex="1">
          <mxGeometry x="40" y="930" width="760" height="670" as="geometry" />
        </mxCell>
        <mxCell id="j9wG2tnD-Bj2alD1Jjqa-190" value="de.ufo.cinemasystem.repository" style="shape=folder;fontStyle=1;spacingTop=10;tabWidth=40;tabHeight=14;tabPosition=left;html=1;whiteSpace=wrap;align=center;verticalAlign=top;strokeColor=default;" parent="WIyWlLk6GJQsqaUBKTNV-1" vertex="1">
          <mxGeometry x="40" y="1660" width="830" height="130" as="geometry" />
        </mxCell>
        <mxCell id="j9wG2tnD-Bj2alD1Jjqa-152" value="de.ufo.cinemasystem.models" style="shape=folder;fontStyle=1;spacingTop=10;tabWidth=40;tabHeight=14;tabPosition=left;html=1;whiteSpace=wrap;align=center;verticalAlign=top;strokeColor=default;" parent="WIyWlLk6GJQsqaUBKTNV-1" vertex="1">
          <mxGeometry x="40" y="40" width="1065" height="860" as="geometry" />
        </mxCell>
        <mxCell id="zkfFHV4jXpPFQw0GAbJ--6" value="ViewProgramController" style="swimlane;fontStyle=0;align=center;verticalAlign=top;childLayout=stackLayout;horizontal=1;startSize=26;horizontalStack=0;resizeParent=1;resizeLast=0;collapsible=1;marginBottom=0;rounded=0;shadow=0;strokeWidth=1;" parent="WIyWlLk6GJQsqaUBKTNV-1" vertex="1">
          <mxGeometry x="60" y="1010" width="340" height="206" as="geometry">
            <mxRectangle x="130" y="380" width="160" height="26" as="alternateBounds" />
          </mxGeometry>
        </mxCell>
        <mxCell id="j9wG2tnD-Bj2alD1Jjqa-15" value="+ ViewProgramController(&lt;div&gt;cinemaShowRepository : cinemaShowRepository,&lt;/div&gt;&lt;div&gt;cinemaHallRepository : cinemaHallRepository,&lt;/div&gt;&lt;div&gt;filmRepository : filmRepository)&lt;/div&gt;" style="text;html=1;align=left;verticalAlign=middle;resizable=0;points=[];autosize=1;strokeColor=none;fillColor=none;" parent="zkfFHV4jXpPFQw0GAbJ--6" vertex="1">
          <mxGeometry y="26" width="340" height="70" as="geometry" />
        </mxCell>
        <mxCell id="j9wG2tnD-Bj2alD1Jjqa-0" value="+ getCurrentProgram(year : int,&amp;nbsp;&lt;div&gt;week : int, m : Model) : String&lt;/div&gt;" style="text;html=1;align=left;verticalAlign=middle;resizable=0;points=[];autosize=1;strokeColor=none;fillColor=none;" parent="zkfFHV4jXpPFQw0GAbJ--6" vertex="1">
          <mxGeometry y="96" width="340" height="40" as="geometry" />
        </mxCell>
        <mxCell id="j9wG2tnD-Bj2alD1Jjqa-14" value="+ getCurrentWeekProgram(m : Model) : String" style="text;html=1;align=left;verticalAlign=middle;resizable=0;points=[];autosize=1;strokeColor=none;fillColor=none;" parent="zkfFHV4jXpPFQw0GAbJ--6" vertex="1">
          <mxGeometry y="136" width="340" height="30" as="geometry" />
        </mxCell>
        <mxCell id="j9wG2tnD-Bj2alD1Jjqa-1" value="+ postNewProgram(year : int, week : int,&amp;nbsp;&lt;span style=&quot;background-color: initial;&quot;&gt;film : Long,&lt;/span&gt;&lt;div&gt;&lt;span style=&quot;background-color: initial;&quot;&gt;&amp;nbsp;room : Long, addTime : LocalDateTime, m : Model) : String&lt;/span&gt;&lt;/div&gt;" style="text;html=1;align=left;verticalAlign=middle;resizable=0;points=[];autosize=1;strokeColor=none;fillColor=none;" parent="zkfFHV4jXpPFQw0GAbJ--6" vertex="1">
          <mxGeometry y="166" width="340" height="40" as="geometry" />
        </mxCell>
        <mxCell id="zkfFHV4jXpPFQw0GAbJ--13" value="CinemaShowDayEntry" style="swimlane;fontStyle=0;align=center;verticalAlign=top;childLayout=stackLayout;horizontal=1;startSize=26;horizontalStack=0;resizeParent=1;resizeLast=0;collapsible=1;marginBottom=0;rounded=0;shadow=0;strokeWidth=1;" parent="WIyWlLk6GJQsqaUBKTNV-1" vertex="1">
          <mxGeometry x="480" y="1038" width="300" height="150" as="geometry">
            <mxRectangle x="340" y="380" width="170" height="26" as="alternateBounds" />
          </mxGeometry>
        </mxCell>
        <mxCell id="zkfFHV4jXpPFQw0GAbJ--14" value="- cinemaShows : Streamable&lt;CinemaShows&gt;" style="text;align=left;verticalAlign=top;spacingLeft=6;spacingRight=4;overflow=hidden;rotatable=0;points=[[0,0.5],[1,0.5]];portConstraint=eastwest;" parent="zkfFHV4jXpPFQw0GAbJ--13" vertex="1">
          <mxGeometry y="26" width="300" height="26" as="geometry" />
        </mxCell>
        <mxCell id="j9wG2tnD-Bj2alD1Jjqa-3" value="- dayDateHeadline : String" style="text;html=1;align=left;verticalAlign=middle;resizable=0;points=[];autosize=1;strokeColor=none;fillColor=none;" parent="zkfFHV4jXpPFQw0GAbJ--13" vertex="1">
          <mxGeometry y="52" width="300" height="30" as="geometry" />
        </mxCell>
        <mxCell id="zkfFHV4jXpPFQw0GAbJ--15" value="" style="line;html=1;strokeWidth=1;align=left;verticalAlign=middle;spacingTop=-1;spacingLeft=3;spacingRight=3;rotatable=0;labelPosition=right;points=[];portConstraint=eastwest;" parent="zkfFHV4jXpPFQw0GAbJ--13" vertex="1">
          <mxGeometry y="82" width="300" height="8" as="geometry" />
        </mxCell>
        <mxCell id="j9wG2tnD-Bj2alD1Jjqa-4" value="+ getCinemaShows() : Streamable&amp;lt;CinemaShow&amp;gt;" style="text;html=1;align=left;verticalAlign=middle;resizable=0;points=[];autosize=1;strokeColor=none;fillColor=none;" parent="zkfFHV4jXpPFQw0GAbJ--13" vertex="1">
          <mxGeometry y="90" width="300" height="30" as="geometry" />
        </mxCell>
        <mxCell id="j9wG2tnD-Bj2alD1Jjqa-5" value="+ getDayDateHeadline() : String" style="text;html=1;align=left;verticalAlign=middle;resizable=0;points=[];autosize=1;strokeColor=none;fillColor=none;" parent="zkfFHV4jXpPFQw0GAbJ--13" vertex="1">
          <mxGeometry y="120" width="300" height="30" as="geometry" />
        </mxCell>
        <mxCell id="j9wG2tnD-Bj2alD1Jjqa-7" value="RentFilmController" style="swimlane;fontStyle=0;align=center;verticalAlign=top;childLayout=stackLayout;horizontal=1;startSize=26;horizontalStack=0;resizeParent=1;resizeLast=0;collapsible=1;marginBottom=0;rounded=0;shadow=0;strokeWidth=1;" parent="WIyWlLk6GJQsqaUBKTNV-1" vertex="1">
          <mxGeometry x="60" y="1250" width="340" height="86" as="geometry">
            <mxRectangle x="130" y="380" width="160" height="26" as="alternateBounds" />
          </mxGeometry>
        </mxCell>
        <mxCell id="j9wG2tnD-Bj2alD1Jjqa-16" value="+ RentFilmController(filmRepository : FilmRepository)" style="text;html=1;align=left;verticalAlign=middle;resizable=0;points=[];autosize=1;strokeColor=none;fillColor=none;" parent="j9wG2tnD-Bj2alD1Jjqa-7" vertex="1">
          <mxGeometry y="26" width="340" height="30" as="geometry" />
        </mxCell>
        <mxCell id="j9wG2tnD-Bj2alD1Jjqa-8" value="+ getRentFilms(model : Model) : String" style="text;html=1;align=left;verticalAlign=middle;resizable=0;points=[];autosize=1;strokeColor=none;fillColor=none;" parent="j9wG2tnD-Bj2alD1Jjqa-7" vertex="1">
          <mxGeometry y="56" width="340" height="30" as="geometry" />
        </mxCell>
        <mxCell id="j9wG2tnD-Bj2alD1Jjqa-227" style="edgeStyle=orthogonalEdgeStyle;rounded=0;orthogonalLoop=1;jettySize=auto;html=1;dashed=1;endArrow=open;endFill=0;" parent="WIyWlLk6GJQsqaUBKTNV-1" source="j9wG2tnD-Bj2alD1Jjqa-11" target="j9wG2tnD-Bj2alD1Jjqa-187" edge="1">
          <mxGeometry relative="1" as="geometry">
            <Array as="points">
              <mxPoint x="240" y="1620" />
              <mxPoint x="475" y="1620" />
            </Array>
          </mxGeometry>
        </mxCell>
        <mxCell id="j9wG2tnD-Bj2alD1Jjqa-228" value="&amp;lt;&amp;lt;use&amp;gt;&amp;gt;" style="edgeLabel;html=1;align=center;verticalAlign=middle;resizable=0;points=[];" parent="j9wG2tnD-Bj2alD1Jjqa-227" vertex="1" connectable="0">
          <mxGeometry x="-0.0694" y="-3" relative="1" as="geometry">
            <mxPoint x="1" as="offset" />
          </mxGeometry>
        </mxCell>
        <mxCell id="j9wG2tnD-Bj2alD1Jjqa-11" value="ManageStorageController" style="swimlane;fontStyle=0;align=center;verticalAlign=top;childLayout=stackLayout;horizontal=1;startSize=26;horizontalStack=0;resizeParent=1;resizeLast=0;collapsible=1;marginBottom=0;rounded=0;shadow=0;strokeWidth=1;" parent="WIyWlLk6GJQsqaUBKTNV-1" vertex="1">
          <mxGeometry x="60" y="1370" width="360" height="190" as="geometry">
            <mxRectangle x="130" y="380" width="160" height="26" as="alternateBounds" />
          </mxGeometry>
        </mxCell>
        <mxCell id="j9wG2tnD-Bj2alD1Jjqa-17" value="+ ManageStorageController(snackRepository : SnackRepository)" style="text;html=1;align=left;verticalAlign=middle;resizable=0;points=[];autosize=1;strokeColor=none;fillColor=none;" parent="j9wG2tnD-Bj2alD1Jjqa-11" vertex="1">
          <mxGeometry y="26" width="360" height="30" as="geometry" />
        </mxCell>
        <mxCell id="j9wG2tnD-Bj2alD1Jjqa-19" value="+ showStorage(model : Model) : String" style="text;html=1;align=left;verticalAlign=middle;resizable=0;points=[];autosize=1;strokeColor=none;fillColor=none;" parent="j9wG2tnD-Bj2alD1Jjqa-11" vertex="1">
          <mxGeometry y="56" width="360" height="30" as="geometry" />
        </mxCell>
        <mxCell id="j9wG2tnD-Bj2alD1Jjqa-20" value="+ newItem(new Snack : String, snackType : Snacks.SnackType,&lt;div&gt;m : Model) : String&lt;/div&gt;" style="text;html=1;align=left;verticalAlign=middle;resizable=0;points=[];autosize=1;strokeColor=none;fillColor=none;" parent="j9wG2tnD-Bj2alD1Jjqa-11" vertex="1">
          <mxGeometry y="86" width="360" height="40" as="geometry" />
        </mxCell>
        <mxCell id="j9wG2tnD-Bj2alD1Jjqa-21" value="+ addItem(snackID : Long, itemCount : int, m : Model) : String" style="text;html=1;align=left;verticalAlign=middle;resizable=0;points=[];autosize=1;strokeColor=none;fillColor=none;" parent="j9wG2tnD-Bj2alD1Jjqa-11" vertex="1">
          <mxGeometry y="126" width="360" height="30" as="geometry" />
        </mxCell>
        <mxCell id="j9wG2tnD-Bj2alD1Jjqa-22" value="+ removeItem(snackID : Long, itemCount : int, m : Model)" style="text;html=1;align=left;verticalAlign=middle;resizable=0;points=[];autosize=1;strokeColor=none;fillColor=none;" parent="j9wG2tnD-Bj2alD1Jjqa-11" vertex="1">
          <mxGeometry y="156" width="360" height="30" as="geometry" />
        </mxCell>
        <mxCell id="j9wG2tnD-Bj2alD1Jjqa-49" value="Film" style="swimlane;fontStyle=1;align=center;verticalAlign=top;childLayout=stackLayout;horizontal=1;startSize=26;horizontalStack=0;resizeParent=1;resizeParentMax=0;resizeLast=0;collapsible=1;marginBottom=0;whiteSpace=wrap;html=1;" parent="WIyWlLk6GJQsqaUBKTNV-1" vertex="1">
          <mxGeometry x="465" y="125" width="270" height="376" as="geometry" />
        </mxCell>
        <mxCell id="j9wG2tnD-Bj2alD1Jjqa-50" value="- id: Long" style="text;strokeColor=none;fillColor=none;align=left;verticalAlign=top;spacingLeft=4;spacingRight=4;overflow=hidden;rotatable=0;points=[[0,0.5],[1,0.5]];portConstraint=eastwest;whiteSpace=wrap;html=1;" parent="j9wG2tnD-Bj2alD1Jjqa-49" vertex="1">
          <mxGeometry y="26" width="270" height="24" as="geometry" />
        </mxCell>
        <mxCell id="j9wG2tnD-Bj2alD1Jjqa-51" value="- title: String" style="text;strokeColor=none;fillColor=none;align=left;verticalAlign=top;spacingLeft=4;spacingRight=4;overflow=hidden;rotatable=0;points=[[0,0.5],[1,0.5]];portConstraint=eastwest;whiteSpace=wrap;html=1;" parent="j9wG2tnD-Bj2alD1Jjqa-49" vertex="1">
          <mxGeometry y="50" width="270" height="20" as="geometry" />
        </mxCell>
        <mxCell id="j9wG2tnD-Bj2alD1Jjqa-52" value="- desc: String" style="text;strokeColor=none;fillColor=none;align=left;verticalAlign=top;spacingLeft=4;spacingRight=4;overflow=hidden;rotatable=0;points=[[0,0.5],[1,0.5]];portConstraint=eastwest;whiteSpace=wrap;html=1;" parent="j9wG2tnD-Bj2alD1Jjqa-49" vertex="1">
          <mxGeometry y="70" width="270" height="20" as="geometry" />
        </mxCell>
        <mxCell id="j9wG2tnD-Bj2alD1Jjqa-53" value="- fskAge: int" style="text;strokeColor=none;fillColor=none;align=left;verticalAlign=top;spacingLeft=4;spacingRight=4;overflow=hidden;rotatable=0;points=[[0,0.5],[1,0.5]];portConstraint=eastwest;whiteSpace=wrap;html=1;" parent="j9wG2tnD-Bj2alD1Jjqa-49" vertex="1">
          <mxGeometry y="90" width="270" height="20" as="geometry" />
        </mxCell>
        <mxCell id="j9wG2tnD-Bj2alD1Jjqa-54" value="- timePlaying: int" style="text;strokeColor=none;fillColor=none;align=left;verticalAlign=top;spacingLeft=4;spacingRight=4;overflow=hidden;rotatable=0;points=[[0,0.5],[1,0.5]];portConstraint=eastwest;whiteSpace=wrap;html=1;" parent="j9wG2tnD-Bj2alD1Jjqa-49" vertex="1">
          <mxGeometry y="110" width="270" height="20" as="geometry" />
        </mxCell>
        <mxCell id="j9wG2tnD-Bj2alD1Jjqa-55" value="- basicRentFee: int" style="text;strokeColor=none;fillColor=none;align=left;verticalAlign=top;spacingLeft=4;spacingRight=4;overflow=hidden;rotatable=0;points=[[0,0.5],[1,0.5]];portConstraint=eastwest;whiteSpace=wrap;html=1;" parent="j9wG2tnD-Bj2alD1Jjqa-49" vertex="1">
          <mxGeometry y="130" width="270" height="20" as="geometry" />
        </mxCell>
        <mxCell id="j9wG2tnD-Bj2alD1Jjqa-56" value="" style="line;strokeWidth=1;fillColor=none;align=left;verticalAlign=middle;spacingTop=-1;spacingLeft=3;spacingRight=3;rotatable=0;labelPosition=right;points=[];portConstraint=eastwest;strokeColor=inherit;" parent="j9wG2tnD-Bj2alD1Jjqa-49" vertex="1">
          <mxGeometry y="150" width="270" height="8" as="geometry" />
        </mxCell>
        <mxCell id="j9wG2tnD-Bj2alD1Jjqa-57" value="+ getId(): Long" style="text;strokeColor=none;fillColor=none;align=left;verticalAlign=top;spacingLeft=4;spacingRight=4;overflow=hidden;rotatable=0;points=[[0,0.5],[1,0.5]];portConstraint=eastwest;whiteSpace=wrap;html=1;" parent="j9wG2tnD-Bj2alD1Jjqa-49" vertex="1">
          <mxGeometry y="158" width="270" height="22" as="geometry" />
        </mxCell>
        <mxCell id="j9wG2tnD-Bj2alD1Jjqa-58" value="+ getTitle(): String" style="text;strokeColor=none;fillColor=none;align=left;verticalAlign=top;spacingLeft=4;spacingRight=4;overflow=hidden;rotatable=0;points=[[0,0.5],[1,0.5]];portConstraint=eastwest;whiteSpace=wrap;html=1;" parent="j9wG2tnD-Bj2alD1Jjqa-49" vertex="1">
          <mxGeometry y="180" width="270" height="20" as="geometry" />
        </mxCell>
        <mxCell id="j9wG2tnD-Bj2alD1Jjqa-59" value="+ getDesc(): String" style="text;strokeColor=none;fillColor=none;align=left;verticalAlign=top;spacingLeft=4;spacingRight=4;overflow=hidden;rotatable=0;points=[[0,0.5],[1,0.5]];portConstraint=eastwest;whiteSpace=wrap;html=1;" parent="j9wG2tnD-Bj2alD1Jjqa-49" vertex="1">
          <mxGeometry y="200" width="270" height="20" as="geometry" />
        </mxCell>
        <mxCell id="j9wG2tnD-Bj2alD1Jjqa-60" value="+ getTimePlaying(): int" style="text;strokeColor=none;fillColor=none;align=left;verticalAlign=top;spacingLeft=4;spacingRight=4;overflow=hidden;rotatable=0;points=[[0,0.5],[1,0.5]];portConstraint=eastwest;whiteSpace=wrap;html=1;" parent="j9wG2tnD-Bj2alD1Jjqa-49" vertex="1">
          <mxGeometry y="220" width="270" height="20" as="geometry" />
        </mxCell>
        <mxCell id="j9wG2tnD-Bj2alD1Jjqa-61" value="+ getFskAge(): int" style="text;strokeColor=none;fillColor=none;align=left;verticalAlign=top;spacingLeft=4;spacingRight=4;overflow=hidden;rotatable=0;points=[[0,0.5],[1,0.5]];portConstraint=eastwest;whiteSpace=wrap;html=1;" parent="j9wG2tnD-Bj2alD1Jjqa-49" vertex="1">
          <mxGeometry y="240" width="270" height="20" as="geometry" />
        </mxCell>
        <mxCell id="j9wG2tnD-Bj2alD1Jjqa-62" value="+ getBasicRentFee(): int" style="text;strokeColor=none;fillColor=none;align=left;verticalAlign=top;spacingLeft=4;spacingRight=4;overflow=hidden;rotatable=0;points=[[0,0.5],[1,0.5]];portConstraint=eastwest;whiteSpace=wrap;html=1;" parent="j9wG2tnD-Bj2alD1Jjqa-49" vertex="1">
          <mxGeometry y="260" width="270" height="16" as="geometry" />
        </mxCell>
        <mxCell id="j9wG2tnD-Bj2alD1Jjqa-63" value="+ setBasicRentFee(basicRentFee: int): void" style="text;strokeColor=none;fillColor=none;align=left;verticalAlign=top;spacingLeft=4;spacingRight=4;overflow=hidden;rotatable=0;points=[[0,0.5],[1,0.5]];portConstraint=eastwest;whiteSpace=wrap;html=1;" parent="j9wG2tnD-Bj2alD1Jjqa-49" vertex="1">
          <mxGeometry y="276" width="270" height="20" as="geometry" />
        </mxCell>
        <mxCell id="j9wG2tnD-Bj2alD1Jjqa-64" value="+ hashCode(): int" style="text;strokeColor=none;fillColor=none;align=left;verticalAlign=top;spacingLeft=4;spacingRight=4;overflow=hidden;rotatable=0;points=[[0,0.5],[1,0.5]];portConstraint=eastwest;whiteSpace=wrap;html=1;" parent="j9wG2tnD-Bj2alD1Jjqa-49" vertex="1">
          <mxGeometry y="296" width="270" height="20" as="geometry" />
        </mxCell>
        <mxCell id="j9wG2tnD-Bj2alD1Jjqa-65" value="+ equals(Object obj): boolean" style="text;strokeColor=none;fillColor=none;align=left;verticalAlign=top;spacingLeft=4;spacingRight=4;overflow=hidden;rotatable=0;points=[[0,0.5],[1,0.5]];portConstraint=eastwest;whiteSpace=wrap;html=1;" parent="j9wG2tnD-Bj2alD1Jjqa-49" vertex="1">
          <mxGeometry y="316" width="270" height="20" as="geometry" />
        </mxCell>
        <mxCell id="j9wG2tnD-Bj2alD1Jjqa-66" value="+ compareTo(Film o): int" style="text;strokeColor=none;fillColor=none;align=left;verticalAlign=top;spacingLeft=4;spacingRight=4;overflow=hidden;rotatable=0;points=[[0,0.5],[1,0.5]];portConstraint=eastwest;whiteSpace=wrap;html=1;" parent="j9wG2tnD-Bj2alD1Jjqa-49" vertex="1">
          <mxGeometry y="336" width="270" height="20" as="geometry" />
        </mxCell>
        <mxCell id="j9wG2tnD-Bj2alD1Jjqa-67" value="+ toString(): String" style="text;strokeColor=none;fillColor=none;align=left;verticalAlign=top;spacingLeft=4;spacingRight=4;overflow=hidden;rotatable=0;points=[[0,0.5],[1,0.5]];portConstraint=eastwest;whiteSpace=wrap;html=1;" parent="j9wG2tnD-Bj2alD1Jjqa-49" vertex="1">
          <mxGeometry y="356" width="270" height="20" as="geometry" />
        </mxCell>
        <mxCell id="j9wG2tnD-Bj2alD1Jjqa-68" value="&lt;span style=&quot;font-weight: 400; text-wrap: nowrap;&quot;&gt;FilmProvider&lt;/span&gt;" style="swimlane;fontStyle=1;align=center;verticalAlign=top;childLayout=stackLayout;horizontal=1;startSize=26;horizontalStack=0;resizeParent=1;resizeParentMax=0;resizeLast=0;collapsible=1;marginBottom=0;whiteSpace=wrap;html=1;" parent="WIyWlLk6GJQsqaUBKTNV-1" vertex="1">
          <mxGeometry x="805" y="223" width="270" height="180" as="geometry" />
        </mxCell>
        <mxCell id="j9wG2tnD-Bj2alD1Jjqa-69" value="- id: Long" style="text;strokeColor=none;fillColor=none;align=left;verticalAlign=top;spacingLeft=4;spacingRight=4;overflow=hidden;rotatable=0;points=[[0,0.5],[1,0.5]];portConstraint=eastwest;whiteSpace=wrap;html=1;" parent="j9wG2tnD-Bj2alD1Jjqa-68" vertex="1">
          <mxGeometry y="26" width="270" height="24" as="geometry" />
        </mxCell>
        <mxCell id="j9wG2tnD-Bj2alD1Jjqa-70" value="&lt;span style=&quot;text-wrap: nowrap;&quot;&gt;- name : String&lt;/span&gt;" style="text;strokeColor=none;fillColor=none;align=left;verticalAlign=top;spacingLeft=4;spacingRight=4;overflow=hidden;rotatable=0;points=[[0,0.5],[1,0.5]];portConstraint=eastwest;whiteSpace=wrap;html=1;" parent="j9wG2tnD-Bj2alD1Jjqa-68" vertex="1">
          <mxGeometry y="50" width="270" height="20" as="geometry" />
        </mxCell>
        <mxCell id="j9wG2tnD-Bj2alD1Jjqa-75" value="" style="line;strokeWidth=1;fillColor=none;align=left;verticalAlign=middle;spacingTop=-1;spacingLeft=3;spacingRight=3;rotatable=0;labelPosition=right;points=[];portConstraint=eastwest;strokeColor=inherit;" parent="j9wG2tnD-Bj2alD1Jjqa-68" vertex="1">
          <mxGeometry y="70" width="270" height="8" as="geometry" />
        </mxCell>
        <mxCell id="j9wG2tnD-Bj2alD1Jjqa-76" value="&lt;span style=&quot;text-wrap: nowrap;&quot;&gt;+ FilmProvider(name : String)&lt;/span&gt;" style="text;strokeColor=none;fillColor=none;align=left;verticalAlign=top;spacingLeft=4;spacingRight=4;overflow=hidden;rotatable=0;points=[[0,0.5],[1,0.5]];portConstraint=eastwest;whiteSpace=wrap;html=1;" parent="j9wG2tnD-Bj2alD1Jjqa-68" vertex="1">
          <mxGeometry y="78" width="270" height="22" as="geometry" />
        </mxCell>
        <mxCell id="j9wG2tnD-Bj2alD1Jjqa-77" value="&lt;span style=&quot;text-wrap: nowrap;&quot;&gt;+ getId() : Long&lt;/span&gt;" style="text;strokeColor=none;fillColor=none;align=left;verticalAlign=top;spacingLeft=4;spacingRight=4;overflow=hidden;rotatable=0;points=[[0,0.5],[1,0.5]];portConstraint=eastwest;whiteSpace=wrap;html=1;" parent="j9wG2tnD-Bj2alD1Jjqa-68" vertex="1">
          <mxGeometry y="100" width="270" height="20" as="geometry" />
        </mxCell>
        <mxCell id="j9wG2tnD-Bj2alD1Jjqa-78" value="&lt;span style=&quot;text-wrap: nowrap;&quot;&gt;+ getName() : String&lt;/span&gt;" style="text;strokeColor=none;fillColor=none;align=left;verticalAlign=top;spacingLeft=4;spacingRight=4;overflow=hidden;rotatable=0;points=[[0,0.5],[1,0.5]];portConstraint=eastwest;whiteSpace=wrap;html=1;" parent="j9wG2tnD-Bj2alD1Jjqa-68" vertex="1">
          <mxGeometry y="120" width="270" height="20" as="geometry" />
        </mxCell>
        <mxCell id="j9wG2tnD-Bj2alD1Jjqa-79" value="&lt;span style=&quot;text-wrap: nowrap;&quot;&gt;+ hashCode() : int&lt;/span&gt;" style="text;strokeColor=none;fillColor=none;align=left;verticalAlign=top;spacingLeft=4;spacingRight=4;overflow=hidden;rotatable=0;points=[[0,0.5],[1,0.5]];portConstraint=eastwest;whiteSpace=wrap;html=1;" parent="j9wG2tnD-Bj2alD1Jjqa-68" vertex="1">
          <mxGeometry y="140" width="270" height="20" as="geometry" />
        </mxCell>
        <mxCell id="j9wG2tnD-Bj2alD1Jjqa-80" value="&lt;span style=&quot;text-wrap: nowrap;&quot;&gt;+ equals(object : Object) : boolean&lt;/span&gt;" style="text;strokeColor=none;fillColor=none;align=left;verticalAlign=top;spacingLeft=4;spacingRight=4;overflow=hidden;rotatable=0;points=[[0,0.5],[1,0.5]];portConstraint=eastwest;whiteSpace=wrap;html=1;" parent="j9wG2tnD-Bj2alD1Jjqa-68" vertex="1">
          <mxGeometry y="160" width="270" height="20" as="geometry" />
        </mxCell>
        <mxCell id="j9wG2tnD-Bj2alD1Jjqa-91" value="CinemaHall" style="swimlane;fontStyle=1;align=center;verticalAlign=top;childLayout=stackLayout;horizontal=1;startSize=26;horizontalStack=0;resizeParent=1;resizeParentMax=0;resizeLast=0;collapsible=1;marginBottom=0;whiteSpace=wrap;html=1;" parent="WIyWlLk6GJQsqaUBKTNV-1" vertex="1">
          <mxGeometry x="75" y="80" width="270" height="496" as="geometry" />
        </mxCell>
        <mxCell id="j9wG2tnD-Bj2alD1Jjqa-92" value="- id : Long" style="text;strokeColor=none;fillColor=none;align=left;verticalAlign=top;spacingLeft=4;spacingRight=4;overflow=hidden;rotatable=0;points=[[0,0.5],[1,0.5]];portConstraint=eastwest;whiteSpace=wrap;html=1;" parent="j9wG2tnD-Bj2alD1Jjqa-91" vertex="1">
          <mxGeometry y="26" width="270" height="24" as="geometry" />
        </mxCell>
        <mxCell id="j9wG2tnD-Bj2alD1Jjqa-93" value="- name : String" style="text;strokeColor=none;fillColor=none;align=left;verticalAlign=top;spacingLeft=4;spacingRight=4;overflow=hidden;rotatable=0;points=[[0,0.5],[1,0.5]];portConstraint=eastwest;whiteSpace=wrap;html=1;" parent="j9wG2tnD-Bj2alD1Jjqa-91" vertex="1">
          <mxGeometry y="50" width="270" height="20" as="geometry" />
        </mxCell>
        <mxCell id="j9wG2tnD-Bj2alD1Jjqa-94" value="&lt;font face=&quot;ywTWA3tYlKPthzdufxkg&quot;&gt;-&lt;/font&gt;&lt;font face=&quot;Helvetica&quot;&gt;&amp;nbsp;numberOfPlaces : int&lt;/font&gt;" style="text;strokeColor=none;fillColor=none;align=left;verticalAlign=top;spacingLeft=4;spacingRight=4;overflow=hidden;rotatable=0;points=[[0,0.5],[1,0.5]];portConstraint=eastwest;whiteSpace=wrap;html=1;" parent="j9wG2tnD-Bj2alD1Jjqa-91" vertex="1">
          <mxGeometry y="70" width="270" height="20" as="geometry" />
        </mxCell>
        <mxCell id="j9wG2tnD-Bj2alD1Jjqa-98" value="" style="line;strokeWidth=1;fillColor=none;align=left;verticalAlign=middle;spacingTop=-1;spacingLeft=3;spacingRight=3;rotatable=0;labelPosition=right;points=[];portConstraint=eastwest;strokeColor=inherit;" parent="j9wG2tnD-Bj2alD1Jjqa-91" vertex="1">
          <mxGeometry y="90" width="270" height="8" as="geometry" />
        </mxCell>
        <mxCell id="j9wG2tnD-Bj2alD1Jjqa-99" value="+&amp;nbsp;CinemaHall( name :&amp;nbsp;String, seats : Map&amp;lt;Seat, Seat.PlaceGroup&amp;gt;)&lt;div&gt;&lt;br&gt;&lt;/div&gt;" style="text;strokeColor=none;fillColor=none;align=left;verticalAlign=top;spacingLeft=4;spacingRight=4;overflow=hidden;rotatable=0;points=[[0,0.5],[1,0.5]];portConstraint=eastwest;whiteSpace=wrap;html=1;" parent="j9wG2tnD-Bj2alD1Jjqa-91" vertex="1">
          <mxGeometry y="98" width="270" height="42" as="geometry" />
        </mxCell>
        <mxCell id="j9wG2tnD-Bj2alD1Jjqa-100" value="+&amp;nbsp;CinemaHall()" style="text;strokeColor=none;fillColor=none;align=left;verticalAlign=top;spacingLeft=4;spacingRight=4;overflow=hidden;rotatable=0;points=[[0,0.5],[1,0.5]];portConstraint=eastwest;whiteSpace=wrap;html=1;" parent="j9wG2tnD-Bj2alD1Jjqa-91" vertex="1">
          <mxGeometry y="140" width="270" height="20" as="geometry" />
        </mxCell>
        <mxCell id="CPUWAKYl9z688GiTzm30-58" value="+&amp;nbsp;getSeatsAndPlaceGroups() :&amp;nbsp;Streamable&amp;lt;Map.Entry&amp;lt;Seat, Seat.PlaceGroup&amp;gt;&amp;gt;" style="text;strokeColor=none;fillColor=none;align=left;verticalAlign=top;spacingLeft=4;spacingRight=4;overflow=hidden;rotatable=0;points=[[0,0.5],[1,0.5]];portConstraint=eastwest;whiteSpace=wrap;html=1;" parent="j9wG2tnD-Bj2alD1Jjqa-91" vertex="1">
          <mxGeometry y="160" width="270" height="50" as="geometry" />
        </mxCell>
        <mxCell id="CPUWAKYl9z688GiTzm30-57" value="+&amp;nbsp;getSeatsAndPlaceGroups(row : int, pos : int) :&amp;nbsp;Optional&amp;lt;Map.Entry&amp;lt;Seat, Seat.PlaceGroup&amp;gt;&amp;gt;" style="text;strokeColor=none;fillColor=none;align=left;verticalAlign=top;spacingLeft=4;spacingRight=4;overflow=hidden;rotatable=0;points=[[0,0.5],[1,0.5]];portConstraint=eastwest;whiteSpace=wrap;html=1;" parent="j9wG2tnD-Bj2alD1Jjqa-91" vertex="1">
          <mxGeometry y="210" width="270" height="40" as="geometry" />
        </mxCell>
        <mxCell id="j9wG2tnD-Bj2alD1Jjqa-101" value="+ getId(): long" style="text;strokeColor=none;fillColor=none;align=left;verticalAlign=top;spacingLeft=4;spacingRight=4;overflow=hidden;rotatable=0;points=[[0,0.5],[1,0.5]];portConstraint=eastwest;whiteSpace=wrap;html=1;" parent="j9wG2tnD-Bj2alD1Jjqa-91" vertex="1">
          <mxGeometry y="250" width="270" height="20" as="geometry" />
        </mxCell>
        <mxCell id="j9wG2tnD-Bj2alD1Jjqa-102" value="+ getName(): String" style="text;strokeColor=none;fillColor=none;align=left;verticalAlign=top;spacingLeft=4;spacingRight=4;overflow=hidden;rotatable=0;points=[[0,0.5],[1,0.5]];portConstraint=eastwest;whiteSpace=wrap;html=1;" parent="j9wG2tnD-Bj2alD1Jjqa-91" vertex="1">
          <mxGeometry y="270" width="270" height="20" as="geometry" />
        </mxCell>
        <mxCell id="j9wG2tnD-Bj2alD1Jjqa-103" value="+ getNumberOfPlaces(): int" style="text;strokeColor=none;fillColor=none;align=left;verticalAlign=top;spacingLeft=4;spacingRight=4;overflow=hidden;rotatable=0;points=[[0,0.5],[1,0.5]];portConstraint=eastwest;whiteSpace=wrap;html=1;" parent="j9wG2tnD-Bj2alD1Jjqa-91" vertex="1">
          <mxGeometry y="290" width="270" height="20" as="geometry" />
        </mxCell>
        <mxCell id="j9wG2tnD-Bj2alD1Jjqa-104" value="+&amp;nbsp;getSeats():&amp;nbsp;Streamable&amp;lt;Map.Entry&amp;lt;Seat,&lt;div&gt;Seat.SeatOccupancy&amp;gt;&amp;gt;&lt;/div&gt;" style="text;strokeColor=none;fillColor=none;align=left;verticalAlign=top;spacingLeft=4;spacingRight=4;overflow=hidden;rotatable=0;points=[[0,0.5],[1,0.5]];portConstraint=eastwest;whiteSpace=wrap;html=1;" parent="j9wG2tnD-Bj2alD1Jjqa-91" vertex="1">
          <mxGeometry y="310" width="270" height="35" as="geometry" />
        </mxCell>
        <mxCell id="j9wG2tnD-Bj2alD1Jjqa-105" value="+ getCinemaShow():&amp;nbsp;Streamable&amp;lt;CinemaShow&amp;gt;" style="text;strokeColor=none;fillColor=none;align=left;verticalAlign=top;spacingLeft=4;spacingRight=4;overflow=hidden;rotatable=0;points=[[0,0.5],[1,0.5]];portConstraint=eastwest;whiteSpace=wrap;html=1;" parent="j9wG2tnD-Bj2alD1Jjqa-91" vertex="1">
          <mxGeometry y="345" width="270" height="20" as="geometry" />
        </mxCell>
        <mxCell id="j9wG2tnD-Bj2alD1Jjqa-111" value="+&amp;nbsp;getEvents():&amp;nbsp;Streamable&amp;lt;Event&amp;gt;" style="text;strokeColor=none;fillColor=none;align=left;verticalAlign=top;spacingLeft=4;spacingRight=4;overflow=hidden;rotatable=0;points=[[0,0.5],[1,0.5]];portConstraint=eastwest;whiteSpace=wrap;html=1;" parent="j9wG2tnD-Bj2alD1Jjqa-91" vertex="1">
          <mxGeometry y="365" width="270" height="26" as="geometry" />
        </mxCell>
        <mxCell id="j9wG2tnD-Bj2alD1Jjqa-106" value="+&amp;nbsp;addCinemaShow(newCinemaShow :&amp;nbsp;CinemaShow )" style="text;strokeColor=none;fillColor=none;align=left;verticalAlign=top;spacingLeft=4;spacingRight=4;overflow=hidden;rotatable=0;points=[[0,0.5],[1,0.5]];portConstraint=eastwest;whiteSpace=wrap;html=1;" parent="j9wG2tnD-Bj2alD1Jjqa-91" vertex="1">
          <mxGeometry y="391" width="270" height="35" as="geometry" />
        </mxCell>
        <mxCell id="j9wG2tnD-Bj2alD1Jjqa-107" value="+&amp;nbsp;addEvent(newEvent :&amp;nbsp;Event&amp;nbsp;)" style="text;strokeColor=none;fillColor=none;align=left;verticalAlign=top;spacingLeft=4;spacingRight=4;overflow=hidden;rotatable=0;points=[[0,0.5],[1,0.5]];portConstraint=eastwest;whiteSpace=wrap;html=1;" parent="j9wG2tnD-Bj2alD1Jjqa-91" vertex="1">
          <mxGeometry y="426" width="270" height="24" as="geometry" />
        </mxCell>
        <mxCell id="j9wG2tnD-Bj2alD1Jjqa-108" value="+ hashCode(): int" style="text;strokeColor=none;fillColor=none;align=left;verticalAlign=top;spacingLeft=4;spacingRight=4;overflow=hidden;rotatable=0;points=[[0,0.5],[1,0.5]];portConstraint=eastwest;whiteSpace=wrap;html=1;" parent="j9wG2tnD-Bj2alD1Jjqa-91" vertex="1">
          <mxGeometry y="450" width="270" height="20" as="geometry" />
        </mxCell>
        <mxCell id="j9wG2tnD-Bj2alD1Jjqa-109" value="+ equals(object : Object): boolean" style="text;strokeColor=none;fillColor=none;align=left;verticalAlign=top;spacingLeft=4;spacingRight=4;overflow=hidden;rotatable=0;points=[[0,0.5],[1,0.5]];portConstraint=eastwest;whiteSpace=wrap;html=1;" parent="j9wG2tnD-Bj2alD1Jjqa-91" vertex="1">
          <mxGeometry y="470" width="270" height="26" as="geometry" />
        </mxCell>
        <mxCell id="j9wG2tnD-Bj2alD1Jjqa-112" value="CinemaShow" style="swimlane;fontStyle=1;align=center;verticalAlign=top;childLayout=stackLayout;horizontal=1;startSize=26;horizontalStack=0;resizeParent=1;resizeParentMax=0;resizeLast=0;collapsible=1;marginBottom=0;whiteSpace=wrap;html=1;" parent="WIyWlLk6GJQsqaUBKTNV-1" vertex="1">
          <mxGeometry x="800" y="546" width="270" height="317" as="geometry">
            <mxRectangle x="640" y="1456" width="110" height="30" as="alternateBounds" />
          </mxGeometry>
        </mxCell>
        <mxCell id="j9wG2tnD-Bj2alD1Jjqa-113" value="- id : Long" style="text;strokeColor=none;fillColor=none;align=left;verticalAlign=top;spacingLeft=4;spacingRight=4;overflow=hidden;rotatable=0;points=[[0,0.5],[1,0.5]];portConstraint=eastwest;whiteSpace=wrap;html=1;" parent="j9wG2tnD-Bj2alD1Jjqa-112" vertex="1">
          <mxGeometry y="26" width="270" height="24" as="geometry" />
        </mxCell>
        <mxCell id="j9wG2tnD-Bj2alD1Jjqa-114" value="- startDateTime : LocalDateTime" style="text;strokeColor=none;fillColor=none;align=left;verticalAlign=top;spacingLeft=4;spacingRight=4;overflow=hidden;rotatable=0;points=[[0,0.5],[1,0.5]];portConstraint=eastwest;whiteSpace=wrap;html=1;" parent="j9wG2tnD-Bj2alD1Jjqa-112" vertex="1">
          <mxGeometry y="50" width="270" height="20" as="geometry" />
        </mxCell>
        <mxCell id="j9wG2tnD-Bj2alD1Jjqa-115" value="- basePrice : Money" style="text;strokeColor=none;fillColor=none;align=left;verticalAlign=top;spacingLeft=4;spacingRight=4;overflow=hidden;rotatable=0;points=[[0,0.5],[1,0.5]];portConstraint=eastwest;whiteSpace=wrap;html=1;" parent="j9wG2tnD-Bj2alD1Jjqa-112" vertex="1">
          <mxGeometry y="70" width="270" height="20" as="geometry" />
        </mxCell>
        <mxCell id="j9wG2tnD-Bj2alD1Jjqa-120" value="" style="line;strokeWidth=1;fillColor=none;align=left;verticalAlign=middle;spacingTop=-1;spacingLeft=3;spacingRight=3;rotatable=0;labelPosition=right;points=[];portConstraint=eastwest;strokeColor=inherit;" parent="j9wG2tnD-Bj2alD1Jjqa-112" vertex="1">
          <mxGeometry y="90" width="270" height="8" as="geometry" />
        </mxCell>
        <mxCell id="j9wG2tnD-Bj2alD1Jjqa-121" value="+ CinemaShow(startDateTime : LocalDateTime,&lt;div&gt;basePrice : Money, film : Film)&lt;/div&gt;" style="text;strokeColor=none;fillColor=none;align=left;verticalAlign=top;spacingLeft=4;spacingRight=4;overflow=hidden;rotatable=0;points=[[0,0.5],[1,0.5]];portConstraint=eastwest;whiteSpace=wrap;html=1;" parent="j9wG2tnD-Bj2alD1Jjqa-112" vertex="1">
          <mxGeometry y="98" width="270" height="35" as="geometry" />
        </mxCell>
        <mxCell id="j9wG2tnD-Bj2alD1Jjqa-122" value="+ getId() : Long" style="text;strokeColor=none;fillColor=none;align=left;verticalAlign=top;spacingLeft=4;spacingRight=4;overflow=hidden;rotatable=0;points=[[0,0.5],[1,0.5]];portConstraint=eastwest;whiteSpace=wrap;html=1;" parent="j9wG2tnD-Bj2alD1Jjqa-112" vertex="1">
          <mxGeometry y="133" width="270" height="20" as="geometry" />
        </mxCell>
        <mxCell id="j9wG2tnD-Bj2alD1Jjqa-123" value="+ getFilm() : Film" style="text;strokeColor=none;fillColor=none;align=left;verticalAlign=top;spacingLeft=4;spacingRight=4;overflow=hidden;rotatable=0;points=[[0,0.5],[1,0.5]];portConstraint=eastwest;whiteSpace=wrap;html=1;" parent="j9wG2tnD-Bj2alD1Jjqa-112" vertex="1">
          <mxGeometry y="153" width="270" height="20" as="geometry" />
        </mxCell>
        <mxCell id="j9wG2tnD-Bj2alD1Jjqa-124" value="+ getStartDateTime() : LocalDateTime" style="text;strokeColor=none;fillColor=none;align=left;verticalAlign=top;spacingLeft=4;spacingRight=4;overflow=hidden;rotatable=0;points=[[0,0.5],[1,0.5]];portConstraint=eastwest;whiteSpace=wrap;html=1;" parent="j9wG2tnD-Bj2alD1Jjqa-112" vertex="1">
          <mxGeometry y="173" width="270" height="20" as="geometry" />
        </mxCell>
        <mxCell id="j9wG2tnD-Bj2alD1Jjqa-125" value="+ getBasePrice() : Money" style="text;strokeColor=none;fillColor=none;align=left;verticalAlign=top;spacingLeft=4;spacingRight=4;overflow=hidden;rotatable=0;points=[[0,0.5],[1,0.5]];portConstraint=eastwest;whiteSpace=wrap;html=1;" parent="j9wG2tnD-Bj2alD1Jjqa-112" vertex="1">
          <mxGeometry y="193" width="270" height="20" as="geometry" />
        </mxCell>
        <mxCell id="j9wG2tnD-Bj2alD1Jjqa-126" value="+ getCinemaHall() : CinemaHall" style="text;strokeColor=none;fillColor=none;align=left;verticalAlign=top;spacingLeft=4;spacingRight=4;overflow=hidden;rotatable=0;points=[[0,0.5],[1,0.5]];portConstraint=eastwest;whiteSpace=wrap;html=1;" parent="j9wG2tnD-Bj2alD1Jjqa-112" vertex="1">
          <mxGeometry y="213" width="270" height="20" as="geometry" />
        </mxCell>
        <mxCell id="j9wG2tnD-Bj2alD1Jjqa-127" value="+ setCinemaHall(cinemaHall : CinemaHall)" style="text;strokeColor=none;fillColor=none;align=left;verticalAlign=top;spacingLeft=4;spacingRight=4;overflow=hidden;rotatable=0;points=[[0,0.5],[1,0.5]];portConstraint=eastwest;whiteSpace=wrap;html=1;" parent="j9wG2tnD-Bj2alD1Jjqa-112" vertex="1">
          <mxGeometry y="233" width="270" height="20" as="geometry" />
        </mxCell>
        <mxCell id="j9wG2tnD-Bj2alD1Jjqa-128" value="+ hashCode() : int" style="text;strokeColor=none;fillColor=none;align=left;verticalAlign=top;spacingLeft=4;spacingRight=4;overflow=hidden;rotatable=0;points=[[0,0.5],[1,0.5]];portConstraint=eastwest;whiteSpace=wrap;html=1;" parent="j9wG2tnD-Bj2alD1Jjqa-112" vertex="1">
          <mxGeometry y="253" width="270" height="20" as="geometry" />
        </mxCell>
        <mxCell id="j9wG2tnD-Bj2alD1Jjqa-129" value="+ equals(object : Object) : boolean" style="text;strokeColor=none;fillColor=none;align=left;verticalAlign=top;spacingLeft=4;spacingRight=4;overflow=hidden;rotatable=0;points=[[0,0.5],[1,0.5]];portConstraint=eastwest;whiteSpace=wrap;html=1;" parent="j9wG2tnD-Bj2alD1Jjqa-112" vertex="1">
          <mxGeometry y="273" width="270" height="20" as="geometry" />
        </mxCell>
        <mxCell id="j9wG2tnD-Bj2alD1Jjqa-130" value="+ compareTo(cinemaShow : CinemaShow) : int" style="text;strokeColor=none;fillColor=none;align=left;verticalAlign=top;spacingLeft=4;spacingRight=4;overflow=hidden;rotatable=0;points=[[0,0.5],[1,0.5]];portConstraint=eastwest;whiteSpace=wrap;html=1;" parent="j9wG2tnD-Bj2alD1Jjqa-112" vertex="1">
          <mxGeometry y="293" width="270" height="24" as="geometry" />
        </mxCell>
        <mxCell id="j9wG2tnD-Bj2alD1Jjqa-133" value="Seat" style="swimlane;fontStyle=1;align=center;verticalAlign=top;childLayout=stackLayout;horizontal=1;startSize=26;horizontalStack=0;resizeParent=1;resizeParentMax=0;resizeLast=0;collapsible=1;marginBottom=0;whiteSpace=wrap;html=1;" parent="WIyWlLk6GJQsqaUBKTNV-1" vertex="1">
          <mxGeometry x="75" y="604" width="270" height="240" as="geometry" />
        </mxCell>
        <mxCell id="j9wG2tnD-Bj2alD1Jjqa-134" value="- id: Long" style="text;strokeColor=none;fillColor=none;align=left;verticalAlign=top;spacingLeft=4;spacingRight=4;overflow=hidden;rotatable=0;points=[[0,0.5],[1,0.5]];portConstraint=eastwest;whiteSpace=wrap;html=1;" parent="j9wG2tnD-Bj2alD1Jjqa-133" vertex="1">
          <mxGeometry y="26" width="270" height="24" as="geometry" />
        </mxCell>
        <mxCell id="j9wG2tnD-Bj2alD1Jjqa-135" value="- raw : int" style="text;strokeColor=none;fillColor=none;align=left;verticalAlign=top;spacingLeft=4;spacingRight=4;overflow=hidden;rotatable=0;points=[[0,0.5],[1,0.5]];portConstraint=eastwest;whiteSpace=wrap;html=1;" parent="j9wG2tnD-Bj2alD1Jjqa-133" vertex="1">
          <mxGeometry y="50" width="270" height="20" as="geometry" />
        </mxCell>
        <mxCell id="j9wG2tnD-Bj2alD1Jjqa-136" value="- number : int" style="text;strokeColor=none;fillColor=none;align=left;verticalAlign=top;spacingLeft=4;spacingRight=4;overflow=hidden;rotatable=0;points=[[0,0.5],[1,0.5]];portConstraint=eastwest;whiteSpace=wrap;html=1;" parent="j9wG2tnD-Bj2alD1Jjqa-133" vertex="1">
          <mxGeometry y="70" width="270" height="20" as="geometry" />
        </mxCell>
        <mxCell id="j9wG2tnD-Bj2alD1Jjqa-140" value="" style="line;strokeWidth=1;fillColor=none;align=left;verticalAlign=middle;spacingTop=-1;spacingLeft=3;spacingRight=3;rotatable=0;labelPosition=right;points=[];portConstraint=eastwest;strokeColor=inherit;" parent="j9wG2tnD-Bj2alD1Jjqa-133" vertex="1">
          <mxGeometry y="90" width="270" height="8" as="geometry" />
        </mxCell>
        <mxCell id="j9wG2tnD-Bj2alD1Jjqa-141" value="+ Seat(raw : int, number : int)" style="text;strokeColor=none;fillColor=none;align=left;verticalAlign=top;spacingLeft=4;spacingRight=4;overflow=hidden;rotatable=0;points=[[0,0.5],[1,0.5]];portConstraint=eastwest;whiteSpace=wrap;html=1;" parent="j9wG2tnD-Bj2alD1Jjqa-133" vertex="1">
          <mxGeometry y="98" width="270" height="22" as="geometry" />
        </mxCell>
        <mxCell id="j9wG2tnD-Bj2alD1Jjqa-144" value="+ getId() : int" style="text;strokeColor=none;fillColor=none;align=left;verticalAlign=top;spacingLeft=4;spacingRight=4;overflow=hidden;rotatable=0;points=[[0,0.5],[1,0.5]];portConstraint=eastwest;whiteSpace=wrap;html=1;" parent="j9wG2tnD-Bj2alD1Jjqa-133" vertex="1">
          <mxGeometry y="120" width="270" height="20" as="geometry" />
        </mxCell>
        <mxCell id="j9wG2tnD-Bj2alD1Jjqa-142" value="+ getRaw() : int" style="text;strokeColor=none;fillColor=none;align=left;verticalAlign=top;spacingLeft=4;spacingRight=4;overflow=hidden;rotatable=0;points=[[0,0.5],[1,0.5]];portConstraint=eastwest;whiteSpace=wrap;html=1;" parent="j9wG2tnD-Bj2alD1Jjqa-133" vertex="1">
          <mxGeometry y="140" width="270" height="20" as="geometry" />
        </mxCell>
        <mxCell id="j9wG2tnD-Bj2alD1Jjqa-143" value="+ getNumber() : int" style="text;strokeColor=none;fillColor=none;align=left;verticalAlign=top;spacingLeft=4;spacingRight=4;overflow=hidden;rotatable=0;points=[[0,0.5],[1,0.5]];portConstraint=eastwest;whiteSpace=wrap;html=1;" parent="j9wG2tnD-Bj2alD1Jjqa-133" vertex="1">
          <mxGeometry y="160" width="270" height="20" as="geometry" />
        </mxCell>
        <mxCell id="j9wG2tnD-Bj2alD1Jjqa-145" value="+ hashCode() : int" style="text;strokeColor=none;fillColor=none;align=left;verticalAlign=top;spacingLeft=4;spacingRight=4;overflow=hidden;rotatable=0;points=[[0,0.5],[1,0.5]];portConstraint=eastwest;whiteSpace=wrap;html=1;" parent="j9wG2tnD-Bj2alD1Jjqa-133" vertex="1">
          <mxGeometry y="180" width="270" height="20" as="geometry" />
        </mxCell>
        <mxCell id="j9wG2tnD-Bj2alD1Jjqa-146" value="+ equals(object : Object) : boolean" style="text;strokeColor=none;fillColor=none;align=left;verticalAlign=top;spacingLeft=4;spacingRight=4;overflow=hidden;rotatable=0;points=[[0,0.5],[1,0.5]];portConstraint=eastwest;whiteSpace=wrap;html=1;" parent="j9wG2tnD-Bj2alD1Jjqa-133" vertex="1">
          <mxGeometry y="200" width="270" height="20" as="geometry" />
        </mxCell>
        <mxCell id="j9wG2tnD-Bj2alD1Jjqa-150" value="+ compareTo(Seat s): int" style="text;strokeColor=none;fillColor=none;align=left;verticalAlign=top;spacingLeft=4;spacingRight=4;overflow=hidden;rotatable=0;points=[[0,0.5],[1,0.5]];portConstraint=eastwest;whiteSpace=wrap;html=1;" parent="j9wG2tnD-Bj2alD1Jjqa-133" vertex="1">
          <mxGeometry y="220" width="270" height="20" as="geometry" />
        </mxCell>
        <mxCell id="j9wG2tnD-Bj2alD1Jjqa-159" value="" style="endArrow=diamondThin;html=1;rounded=0;endFill=0;entryX=0.5;entryY=0;entryDx=0;entryDy=0;" parent="WIyWlLk6GJQsqaUBKTNV-1" source="j9wG2tnD-Bj2alD1Jjqa-67" target="j9wG2tnD-Bj2alD1Jjqa-112" edge="1">
          <mxGeometry width="50" height="50" relative="1" as="geometry">
            <mxPoint x="1080" y="1450" as="sourcePoint" />
            <mxPoint x="1130" y="1400" as="targetPoint" />
          </mxGeometry>
        </mxCell>
        <mxCell id="j9wG2tnD-Bj2alD1Jjqa-160" value="1" style="edgeLabel;html=1;align=center;verticalAlign=middle;resizable=0;points=[];" parent="j9wG2tnD-Bj2alD1Jjqa-159" vertex="1" connectable="0">
          <mxGeometry x="-0.2444" y="1" relative="1" as="geometry">
            <mxPoint x="6" y="-8" as="offset" />
          </mxGeometry>
        </mxCell>
        <mxCell id="j9wG2tnD-Bj2alD1Jjqa-161" value="1..*" style="edgeLabel;html=1;align=center;verticalAlign=middle;resizable=0;points=[];" parent="j9wG2tnD-Bj2alD1Jjqa-159" vertex="1" connectable="0">
          <mxGeometry x="0.0667" relative="1" as="geometry">
            <mxPoint x="14" y="8" as="offset" />
          </mxGeometry>
        </mxCell>
        <mxCell id="j9wG2tnD-Bj2alD1Jjqa-162" value="" style="endArrow=diamondThin;html=1;rounded=0;endFill=0;entryX=0.411;entryY=1;entryDx=0;entryDy=0;entryPerimeter=0;exitX=0.411;exitY=0.013;exitDx=0;exitDy=0;exitPerimeter=0;" parent="WIyWlLk6GJQsqaUBKTNV-1" source="j9wG2tnD-Bj2alD1Jjqa-133" target="j9wG2tnD-Bj2alD1Jjqa-109" edge="1">
          <mxGeometry width="50" height="50" relative="1" as="geometry">
            <mxPoint x="380" y="1470" as="sourcePoint" />
            <mxPoint x="370" y="1501" as="targetPoint" />
          </mxGeometry>
        </mxCell>
        <mxCell id="j9wG2tnD-Bj2alD1Jjqa-163" value="1..*" style="edgeLabel;html=1;align=center;verticalAlign=middle;resizable=0;points=[];" parent="j9wG2tnD-Bj2alD1Jjqa-162" vertex="1" connectable="0">
          <mxGeometry x="-0.2444" y="1" relative="1" as="geometry">
            <mxPoint x="15" y="-62" as="offset" />
          </mxGeometry>
        </mxCell>
        <mxCell id="j9wG2tnD-Bj2alD1Jjqa-165" value="1" style="edgeLabel;html=1;align=center;verticalAlign=middle;resizable=0;points=[];" parent="j9wG2tnD-Bj2alD1Jjqa-162" vertex="1" connectable="0">
          <mxGeometry x="-0.2762" y="-3" relative="1" as="geometry">
            <mxPoint x="6" y="5" as="offset" />
          </mxGeometry>
        </mxCell>
        <mxCell id="j9wG2tnD-Bj2alD1Jjqa-166" value="ist in" style="edgeLabel;html=1;align=center;verticalAlign=middle;resizable=0;points=[];" parent="j9wG2tnD-Bj2alD1Jjqa-162" vertex="1" connectable="0">
          <mxGeometry x="0.1492" y="-1" relative="1" as="geometry">
            <mxPoint as="offset" />
          </mxGeometry>
        </mxCell>
        <mxCell id="j9wG2tnD-Bj2alD1Jjqa-167" value="" style="endArrow=diamondThin;html=1;rounded=0;endFill=0;exitX=0;exitY=0.5;exitDx=0;exitDy=0;entryX=1;entryY=0.5;entryDx=0;entryDy=0;" parent="WIyWlLk6GJQsqaUBKTNV-1" source="j9wG2tnD-Bj2alD1Jjqa-123" target="j9wG2tnD-Bj2alD1Jjqa-109" edge="1">
          <mxGeometry width="50" height="50" relative="1" as="geometry">
            <mxPoint x="785" y="1421" as="sourcePoint" />
            <mxPoint x="785" y="1466" as="targetPoint" />
          </mxGeometry>
        </mxCell>
        <mxCell id="j9wG2tnD-Bj2alD1Jjqa-168" value="1..*" style="edgeLabel;html=1;align=center;verticalAlign=middle;resizable=0;points=[];" parent="j9wG2tnD-Bj2alD1Jjqa-167" vertex="1" connectable="0">
          <mxGeometry x="-0.2444" y="1" relative="1" as="geometry">
            <mxPoint x="153" y="82" as="offset" />
          </mxGeometry>
        </mxCell>
        <mxCell id="j9wG2tnD-Bj2alD1Jjqa-169" value="1" style="edgeLabel;html=1;align=center;verticalAlign=middle;resizable=0;points=[];" parent="j9wG2tnD-Bj2alD1Jjqa-167" vertex="1" connectable="0">
          <mxGeometry x="0.0667" relative="1" as="geometry">
            <mxPoint x="-36" y="-75" as="offset" />
          </mxGeometry>
        </mxCell>
        <mxCell id="j9wG2tnD-Bj2alD1Jjqa-170" value="findet statt in" style="edgeLabel;html=1;align=center;verticalAlign=middle;resizable=0;points=[];" parent="j9wG2tnD-Bj2alD1Jjqa-167" vertex="1" connectable="0">
          <mxGeometry x="0.0444" y="2" relative="1" as="geometry">
            <mxPoint as="offset" />
          </mxGeometry>
        </mxCell>
        <mxCell id="CPUWAKYl9z688GiTzm30-41" value="1" style="edgeLabel;html=1;align=center;verticalAlign=middle;resizable=0;points=[];" parent="j9wG2tnD-Bj2alD1Jjqa-167" vertex="1" connectable="0">
          <mxGeometry x="0.8725" relative="1" as="geometry">
            <mxPoint as="offset" />
          </mxGeometry>
        </mxCell>
        <mxCell id="j9wG2tnD-Bj2alD1Jjqa-171" value="" style="endArrow=diamondThin;html=1;rounded=0;endFill=0;entryX=0;entryY=0.5;entryDx=0;entryDy=0;exitX=1;exitY=0.5;exitDx=0;exitDy=0;" parent="WIyWlLk6GJQsqaUBKTNV-1" source="j9wG2tnD-Bj2alD1Jjqa-59" target="j9wG2tnD-Bj2alD1Jjqa-77" edge="1">
          <mxGeometry width="50" height="50" relative="1" as="geometry">
            <mxPoint x="1010" y="1411" as="sourcePoint" />
            <mxPoint x="1010" y="1456" as="targetPoint" />
          </mxGeometry>
        </mxCell>
        <mxCell id="j9wG2tnD-Bj2alD1Jjqa-172" value="1..*" style="edgeLabel;html=1;align=center;verticalAlign=middle;resizable=0;points=[];" parent="j9wG2tnD-Bj2alD1Jjqa-171" vertex="1" connectable="0">
          <mxGeometry x="-0.2444" y="1" relative="1" as="geometry">
            <mxPoint x="-16" y="10" as="offset" />
          </mxGeometry>
        </mxCell>
        <mxCell id="j9wG2tnD-Bj2alD1Jjqa-173" value="1" style="edgeLabel;html=1;align=center;verticalAlign=middle;resizable=0;points=[];" parent="j9wG2tnD-Bj2alD1Jjqa-171" vertex="1" connectable="0">
          <mxGeometry x="0.0667" relative="1" as="geometry">
            <mxPoint x="22" y="8" as="offset" />
          </mxGeometry>
        </mxCell>
        <mxCell id="j9wG2tnD-Bj2alD1Jjqa-174" value="&lt;span style=&quot;font-weight: normal;&quot;&gt;&lt;i&gt;&amp;lt;&amp;lt;Interface&amp;gt;&amp;gt;&lt;/i&gt;&lt;/span&gt;&lt;div&gt;CinemaHallRepository&lt;/div&gt;" style="swimlane;fontStyle=1;align=center;verticalAlign=top;childLayout=stackLayout;horizontal=1;startSize=40;horizontalStack=0;resizeParent=1;resizeParentMax=0;resizeLast=0;collapsible=1;marginBottom=0;whiteSpace=wrap;html=1;" parent="WIyWlLk6GJQsqaUBKTNV-1" vertex="1">
          <mxGeometry x="60" y="1710" width="150" height="50" as="geometry">
            <mxRectangle x="430" y="1880" width="160" height="40" as="alternateBounds" />
          </mxGeometry>
        </mxCell>
        <mxCell id="j9wG2tnD-Bj2alD1Jjqa-221" style="edgeStyle=orthogonalEdgeStyle;rounded=0;orthogonalLoop=1;jettySize=auto;html=1;exitX=0.5;exitY=1;exitDx=0;exitDy=0;" parent="WIyWlLk6GJQsqaUBKTNV-1" source="j9wG2tnD-Bj2alD1Jjqa-186" target="j9wG2tnD-Bj2alD1Jjqa-194" edge="1">
          <mxGeometry relative="1" as="geometry">
            <Array as="points">
              <mxPoint x="310" y="1840" />
              <mxPoint x="995" y="1840" />
            </Array>
          </mxGeometry>
        </mxCell>
        <mxCell id="j9wG2tnD-Bj2alD1Jjqa-186" value="&lt;span style=&quot;font-weight: normal;&quot;&gt;&lt;i&gt;&amp;lt;&amp;lt;Interface&amp;gt;&amp;gt;&lt;/i&gt;&lt;/span&gt;&lt;div&gt;CinemaShowRepository&lt;/div&gt;" style="swimlane;fontStyle=1;align=center;verticalAlign=top;childLayout=stackLayout;horizontal=1;startSize=40;horizontalStack=0;resizeParent=1;resizeParentMax=0;resizeLast=0;collapsible=1;marginBottom=0;whiteSpace=wrap;html=1;" parent="WIyWlLk6GJQsqaUBKTNV-1" vertex="1">
          <mxGeometry x="230" y="1710" width="160" height="50" as="geometry">
            <mxRectangle x="430" y="1880" width="160" height="40" as="alternateBounds" />
          </mxGeometry>
        </mxCell>
        <mxCell id="j9wG2tnD-Bj2alD1Jjqa-222" style="edgeStyle=orthogonalEdgeStyle;rounded=0;orthogonalLoop=1;jettySize=auto;html=1;exitX=0.5;exitY=1;exitDx=0;exitDy=0;" parent="WIyWlLk6GJQsqaUBKTNV-1" source="j9wG2tnD-Bj2alD1Jjqa-187" target="j9wG2tnD-Bj2alD1Jjqa-194" edge="1">
          <mxGeometry relative="1" as="geometry">
            <Array as="points">
              <mxPoint x="475" y="1840" />
              <mxPoint x="995" y="1840" />
            </Array>
          </mxGeometry>
        </mxCell>
        <mxCell id="j9wG2tnD-Bj2alD1Jjqa-187" value="&lt;span style=&quot;font-weight: normal;&quot;&gt;&lt;i&gt;&amp;lt;&amp;lt;Interface&amp;gt;&amp;gt;&lt;/i&gt;&lt;/span&gt;&lt;div&gt;SnacksRepository&lt;/div&gt;" style="swimlane;fontStyle=1;align=center;verticalAlign=top;childLayout=stackLayout;horizontal=1;startSize=40;horizontalStack=0;resizeParent=1;resizeParentMax=0;resizeLast=0;collapsible=1;marginBottom=0;whiteSpace=wrap;html=1;" parent="WIyWlLk6GJQsqaUBKTNV-1" vertex="1">
          <mxGeometry x="410" y="1710" width="130" height="50" as="geometry">
            <mxRectangle x="430" y="1880" width="160" height="40" as="alternateBounds" />
          </mxGeometry>
        </mxCell>
        <mxCell id="j9wG2tnD-Bj2alD1Jjqa-223" style="edgeStyle=orthogonalEdgeStyle;rounded=0;orthogonalLoop=1;jettySize=auto;html=1;exitX=0.5;exitY=1;exitDx=0;exitDy=0;" parent="WIyWlLk6GJQsqaUBKTNV-1" source="j9wG2tnD-Bj2alD1Jjqa-188" target="j9wG2tnD-Bj2alD1Jjqa-194" edge="1">
          <mxGeometry relative="1" as="geometry">
            <Array as="points">
              <mxPoint x="620" y="1840" />
              <mxPoint x="995" y="1840" />
            </Array>
          </mxGeometry>
        </mxCell>
        <mxCell id="j9wG2tnD-Bj2alD1Jjqa-188" value="&lt;span style=&quot;font-weight: normal;&quot;&gt;&lt;i&gt;&amp;lt;&amp;lt;Interface&amp;gt;&amp;gt;&lt;/i&gt;&lt;/span&gt;&lt;div&gt;FilmRepository&lt;/div&gt;" style="swimlane;fontStyle=1;align=center;verticalAlign=top;childLayout=stackLayout;horizontal=1;startSize=40;horizontalStack=0;resizeParent=1;resizeParentMax=0;resizeLast=0;collapsible=1;marginBottom=0;whiteSpace=wrap;html=1;" parent="WIyWlLk6GJQsqaUBKTNV-1" vertex="1">
          <mxGeometry x="560" y="1710" width="120" height="50" as="geometry">
            <mxRectangle x="430" y="1880" width="160" height="40" as="alternateBounds" />
          </mxGeometry>
        </mxCell>
        <mxCell id="j9wG2tnD-Bj2alD1Jjqa-224" style="edgeStyle=orthogonalEdgeStyle;rounded=0;orthogonalLoop=1;jettySize=auto;html=1;exitX=0.5;exitY=1;exitDx=0;exitDy=0;entryX=0.5;entryY=1;entryDx=0;entryDy=0;" parent="WIyWlLk6GJQsqaUBKTNV-1" source="j9wG2tnD-Bj2alD1Jjqa-189" target="j9wG2tnD-Bj2alD1Jjqa-194" edge="1">
          <mxGeometry relative="1" as="geometry">
            <Array as="points">
              <mxPoint x="775" y="1840" />
              <mxPoint x="995" y="1840" />
            </Array>
          </mxGeometry>
        </mxCell>
        <mxCell id="j9wG2tnD-Bj2alD1Jjqa-189" value="&lt;span style=&quot;font-weight: normal;&quot;&gt;&lt;i&gt;&amp;lt;&amp;lt;Interface&amp;gt;&amp;gt;&lt;/i&gt;&lt;/span&gt;&lt;div&gt;FilmProviderRepository&lt;/div&gt;" style="swimlane;fontStyle=1;align=center;verticalAlign=top;childLayout=stackLayout;horizontal=1;startSize=40;horizontalStack=0;resizeParent=1;resizeParentMax=0;resizeLast=0;collapsible=1;marginBottom=0;whiteSpace=wrap;html=1;" parent="WIyWlLk6GJQsqaUBKTNV-1" vertex="1">
          <mxGeometry x="700" y="1710" width="150" height="50" as="geometry">
            <mxRectangle x="430" y="1880" width="160" height="40" as="alternateBounds" />
          </mxGeometry>
        </mxCell>
        <mxCell id="j9wG2tnD-Bj2alD1Jjqa-193" value="Spring" style="shape=folder;fontStyle=1;spacingTop=10;tabWidth=40;tabHeight=14;tabPosition=left;html=1;whiteSpace=wrap;align=center;verticalAlign=top;strokeColor=default;" parent="WIyWlLk6GJQsqaUBKTNV-1" vertex="1">
          <mxGeometry x="900" y="1050" width="190" height="430" as="geometry" />
        </mxCell>
        <mxCell id="j9wG2tnD-Bj2alD1Jjqa-194" value="CrudRepository" style="html=1;whiteSpace=wrap;" parent="WIyWlLk6GJQsqaUBKTNV-1" vertex="1">
          <mxGeometry x="940" y="1420" width="110" height="50" as="geometry" />
        </mxCell>
        <mxCell id="j9wG2tnD-Bj2alD1Jjqa-213" value="" style="edgeStyle=orthogonalEdgeStyle;rounded=0;orthogonalLoop=1;jettySize=auto;html=1;exitX=0.5;exitY=0;exitDx=0;exitDy=0;startArrow=none;startFill=0;endArrow=none;endFill=0;" parent="WIyWlLk6GJQsqaUBKTNV-1" source="zkfFHV4jXpPFQw0GAbJ--13" target="j9wG2tnD-Bj2alD1Jjqa-0" edge="1">
          <mxGeometry relative="1" as="geometry">
            <mxPoint x="210" y="1040" as="sourcePoint" />
            <mxPoint x="390" y="1093" as="targetPoint" />
          </mxGeometry>
        </mxCell>
        <mxCell id="j9wG2tnD-Bj2alD1Jjqa-216" value="&amp;lt;&amp;lt;Extends&amp;gt;&amp;gt;" style="endArrow=block;endSize=16;endFill=0;html=1;rounded=0;edgeStyle=orthogonalEdgeStyle;" parent="WIyWlLk6GJQsqaUBKTNV-1" source="j9wG2tnD-Bj2alD1Jjqa-174" target="j9wG2tnD-Bj2alD1Jjqa-194" edge="1">
          <mxGeometry width="160" relative="1" as="geometry">
            <mxPoint x="110" y="1640" as="sourcePoint" />
            <mxPoint x="670" y="1878" as="targetPoint" />
            <Array as="points">
              <mxPoint x="135" y="1840" />
              <mxPoint x="995" y="1840" />
            </Array>
          </mxGeometry>
        </mxCell>
        <mxCell id="j9wG2tnD-Bj2alD1Jjqa-229" style="edgeStyle=orthogonalEdgeStyle;rounded=0;orthogonalLoop=1;jettySize=auto;html=1;dashed=1;endArrow=open;endFill=0;exitX=1;exitY=0.867;exitDx=0;exitDy=0;exitPerimeter=0;" parent="WIyWlLk6GJQsqaUBKTNV-1" source="j9wG2tnD-Bj2alD1Jjqa-16" target="j9wG2tnD-Bj2alD1Jjqa-188" edge="1">
          <mxGeometry relative="1" as="geometry">
            <mxPoint x="389.99999999999994" y="1294.9899999999998" as="sourcePoint" />
            <mxPoint x="607.96" y="1710" as="targetPoint" />
            <Array as="points">
              <mxPoint x="400" y="1295" />
              <mxPoint x="440" y="1295" />
              <mxPoint x="440" y="1610" />
              <mxPoint x="620" y="1610" />
            </Array>
          </mxGeometry>
        </mxCell>
        <mxCell id="j9wG2tnD-Bj2alD1Jjqa-230" value="&amp;lt;&amp;lt;use&amp;gt;&amp;gt;" style="edgeLabel;html=1;align=center;verticalAlign=middle;resizable=0;points=[];" parent="j9wG2tnD-Bj2alD1Jjqa-229" vertex="1" connectable="0">
          <mxGeometry x="-0.0694" y="-3" relative="1" as="geometry">
            <mxPoint x="1" as="offset" />
          </mxGeometry>
        </mxCell>
        <mxCell id="j9wG2tnD-Bj2alD1Jjqa-231" style="edgeStyle=orthogonalEdgeStyle;rounded=0;orthogonalLoop=1;jettySize=auto;html=1;dashed=1;endArrow=open;endFill=0;exitX=0.009;exitY=0.025;exitDx=0;exitDy=0;exitPerimeter=0;entryX=0.46;entryY=0.02;entryDx=0;entryDy=0;entryPerimeter=0;" parent="WIyWlLk6GJQsqaUBKTNV-1" source="j9wG2tnD-Bj2alD1Jjqa-0" target="j9wG2tnD-Bj2alD1Jjqa-174" edge="1">
          <mxGeometry relative="1" as="geometry">
            <mxPoint x="-160.99999999999991" y="1176" as="sourcePoint" />
            <mxPoint x="413.08000000000004" y="1784" as="targetPoint" />
            <Array as="points">
              <mxPoint x="20" y="1107" />
              <mxPoint x="20" y="1630" />
              <mxPoint x="129" y="1630" />
            </Array>
          </mxGeometry>
        </mxCell>
        <mxCell id="j9wG2tnD-Bj2alD1Jjqa-232" value="&amp;lt;&amp;lt;use&amp;gt;&amp;gt;" style="edgeLabel;html=1;align=center;verticalAlign=middle;resizable=0;points=[];" parent="j9wG2tnD-Bj2alD1Jjqa-231" vertex="1" connectable="0">
          <mxGeometry x="-0.0694" y="-3" relative="1" as="geometry">
            <mxPoint x="1" as="offset" />
          </mxGeometry>
        </mxCell>
        <mxCell id="j9wG2tnD-Bj2alD1Jjqa-236" style="edgeStyle=orthogonalEdgeStyle;rounded=0;orthogonalLoop=1;jettySize=auto;html=1;dashed=1;endArrow=open;endFill=0;exitX=0.006;exitY=0.225;exitDx=0;exitDy=0;exitPerimeter=0;" parent="WIyWlLk6GJQsqaUBKTNV-1" source="j9wG2tnD-Bj2alD1Jjqa-0" target="j9wG2tnD-Bj2alD1Jjqa-186" edge="1">
          <mxGeometry relative="1" as="geometry">
            <mxPoint x="63" y="1290" as="sourcePoint" />
            <mxPoint x="129" y="1894" as="targetPoint" />
            <Array as="points">
              <mxPoint x="-20" y="1115" />
              <mxPoint x="-20" y="1640" />
              <mxPoint x="315" y="1640" />
            </Array>
          </mxGeometry>
        </mxCell>
        <mxCell id="j9wG2tnD-Bj2alD1Jjqa-238" value="&amp;lt;&amp;lt;use&amp;gt;&amp;gt;" style="edgeLabel;html=1;align=center;verticalAlign=middle;resizable=0;points=[];" parent="j9wG2tnD-Bj2alD1Jjqa-236" vertex="1" connectable="0">
          <mxGeometry x="-0.4784" relative="1" as="geometry">
            <mxPoint y="93" as="offset" />
          </mxGeometry>
        </mxCell>
        <mxCell id="j9wG2tnD-Bj2alD1Jjqa-239" style="edgeStyle=orthogonalEdgeStyle;rounded=0;orthogonalLoop=1;jettySize=auto;html=1;dashed=1;endArrow=open;endFill=0;entryX=0.342;entryY=0.04;entryDx=0;entryDy=0;entryPerimeter=0;" parent="WIyWlLk6GJQsqaUBKTNV-1" source="j9wG2tnD-Bj2alD1Jjqa-0" target="j9wG2tnD-Bj2alD1Jjqa-188" edge="1">
          <mxGeometry relative="1" as="geometry">
            <mxPoint x="22" y="1125" as="sourcePoint" />
            <mxPoint x="275" y="1720" as="targetPoint" />
            <Array as="points">
              <mxPoint x="-60" y="1125" />
              <mxPoint x="-60" y="1650" />
              <mxPoint x="600" y="1650" />
            </Array>
          </mxGeometry>
        </mxCell>
        <mxCell id="j9wG2tnD-Bj2alD1Jjqa-240" value="&amp;lt;&amp;lt;use&amp;gt;&amp;gt;" style="edgeLabel;html=1;align=center;verticalAlign=middle;resizable=0;points=[];" parent="j9wG2tnD-Bj2alD1Jjqa-239" vertex="1" connectable="0">
          <mxGeometry x="-0.4784" relative="1" as="geometry">
            <mxPoint y="-2" as="offset" />
          </mxGeometry>
        </mxCell>
        <mxCell id="j9wG2tnD-Bj2alD1Jjqa-241" value="Model" style="html=1;whiteSpace=wrap;" parent="WIyWlLk6GJQsqaUBKTNV-1" vertex="1">
          <mxGeometry x="940" y="1110" width="110" height="50" as="geometry" />
        </mxCell>
        <mxCell id="j9wG2tnD-Bj2alD1Jjqa-243" style="edgeStyle=orthogonalEdgeStyle;rounded=0;orthogonalLoop=1;jettySize=auto;html=1;dashed=1;endArrow=open;endFill=0;exitX=1;exitY=0.25;exitDx=0;exitDy=0;" parent="WIyWlLk6GJQsqaUBKTNV-1" source="j9wG2tnD-Bj2alD1Jjqa-7" target="j9wG2tnD-Bj2alD1Jjqa-241" edge="1">
          <mxGeometry relative="1" as="geometry">
            <mxPoint x="412" y="1305" as="sourcePoint" />
            <mxPoint x="630" y="1720" as="targetPoint" />
            <Array as="points">
              <mxPoint x="400" y="1270" />
              <mxPoint x="850" y="1270" />
              <mxPoint x="850" y="1150" />
            </Array>
          </mxGeometry>
        </mxCell>
        <mxCell id="j9wG2tnD-Bj2alD1Jjqa-244" value="&amp;lt;&amp;lt;use&amp;gt;&amp;gt;" style="edgeLabel;html=1;align=center;verticalAlign=middle;resizable=0;points=[];" parent="j9wG2tnD-Bj2alD1Jjqa-243" vertex="1" connectable="0">
          <mxGeometry x="-0.0694" y="-3" relative="1" as="geometry">
            <mxPoint x="1" as="offset" />
          </mxGeometry>
        </mxCell>
        <mxCell id="j9wG2tnD-Bj2alD1Jjqa-245" style="edgeStyle=orthogonalEdgeStyle;rounded=0;orthogonalLoop=1;jettySize=auto;html=1;dashed=1;endArrow=open;endFill=0;exitX=1;exitY=0;exitDx=0;exitDy=0;" parent="WIyWlLk6GJQsqaUBKTNV-1" source="j9wG2tnD-Bj2alD1Jjqa-11" target="j9wG2tnD-Bj2alD1Jjqa-241" edge="1">
          <mxGeometry relative="1" as="geometry">
            <mxPoint x="410" y="1282" as="sourcePoint" />
            <mxPoint x="950" y="1145" as="targetPoint" />
            <Array as="points">
              <mxPoint x="410" y="1370" />
              <mxPoint x="410" y="1260" />
              <mxPoint x="840" y="1260" />
              <mxPoint x="840" y="1140" />
            </Array>
          </mxGeometry>
        </mxCell>
        <mxCell id="j9wG2tnD-Bj2alD1Jjqa-246" value="&amp;lt;&amp;lt;use&amp;gt;&amp;gt;" style="edgeLabel;html=1;align=center;verticalAlign=middle;resizable=0;points=[];" parent="j9wG2tnD-Bj2alD1Jjqa-245" vertex="1" connectable="0">
          <mxGeometry x="-0.0694" y="-3" relative="1" as="geometry">
            <mxPoint x="1" as="offset" />
          </mxGeometry>
        </mxCell>
        <mxCell id="j9wG2tnD-Bj2alD1Jjqa-247" style="edgeStyle=orthogonalEdgeStyle;rounded=0;orthogonalLoop=1;jettySize=auto;html=1;dashed=1;endArrow=open;endFill=0;" parent="WIyWlLk6GJQsqaUBKTNV-1" source="j9wG2tnD-Bj2alD1Jjqa-1" target="j9wG2tnD-Bj2alD1Jjqa-241" edge="1">
          <mxGeometry relative="1" as="geometry">
            <mxPoint x="410" y="1202" as="sourcePoint" />
            <mxPoint x="950" y="1080" as="targetPoint" />
            <Array as="points">
              <mxPoint x="830" y="1200" />
              <mxPoint x="830" y="1130" />
            </Array>
          </mxGeometry>
        </mxCell>
        <mxCell id="j9wG2tnD-Bj2alD1Jjqa-248" value="&amp;lt;&amp;lt;use&amp;gt;&amp;gt;" style="edgeLabel;html=1;align=center;verticalAlign=middle;resizable=0;points=[];" parent="j9wG2tnD-Bj2alD1Jjqa-247" vertex="1" connectable="0">
          <mxGeometry x="-0.0694" y="-3" relative="1" as="geometry">
            <mxPoint x="1" as="offset" />
          </mxGeometry>
        </mxCell>
        <mxCell id="GZWpoEK9zJhhvx7mUy16-3" value="" style="endArrow=open;dashed=1;html=1;rounded=0;endFill=0;exitX=0.75;exitY=1;exitDx=0;exitDy=0;" parent="WIyWlLk6GJQsqaUBKTNV-1" source="j9wG2tnD-Bj2alD1Jjqa-189" target="j9wG2tnD-Bj2alD1Jjqa-70" edge="1">
          <mxGeometry width="50" height="50" relative="1" as="geometry">
            <mxPoint x="830" y="1880" as="sourcePoint" />
            <mxPoint x="1120" y="150" as="targetPoint" />
            <Array as="points">
              <mxPoint x="810" y="1860" />
              <mxPoint x="1120" y="1860" />
              <mxPoint x="1120" y="290" />
            </Array>
          </mxGeometry>
        </mxCell>
        <mxCell id="GZWpoEK9zJhhvx7mUy16-4" value="&amp;lt;&amp;lt;use&amp;gt;&amp;gt;" style="edgeLabel;html=1;align=center;verticalAlign=middle;resizable=0;points=[];" parent="GZWpoEK9zJhhvx7mUy16-3" vertex="1" connectable="0">
          <mxGeometry x="-0.4045" y="3" relative="1" as="geometry">
            <mxPoint as="offset" />
          </mxGeometry>
        </mxCell>
        <mxCell id="GZWpoEK9zJhhvx7mUy16-5" value="" style="endArrow=open;dashed=1;html=1;rounded=0;endFill=0;exitX=0.75;exitY=1;exitDx=0;exitDy=0;entryX=1;entryY=0.5;entryDx=0;entryDy=0;" parent="WIyWlLk6GJQsqaUBKTNV-1" source="j9wG2tnD-Bj2alD1Jjqa-188" target="j9wG2tnD-Bj2alD1Jjqa-51" edge="1">
          <mxGeometry width="50" height="50" relative="1" as="geometry">
            <mxPoint x="660" y="1960" as="sourcePoint" />
            <mxPoint x="1140" y="190" as="targetPoint" />
            <Array as="points">
              <mxPoint x="650" y="1880" />
              <mxPoint x="1140" y="1880" />
              <mxPoint x="1140" y="190" />
            </Array>
          </mxGeometry>
        </mxCell>
        <mxCell id="GZWpoEK9zJhhvx7mUy16-6" value="&amp;lt;&amp;lt;use&amp;gt;&amp;gt;" style="edgeLabel;html=1;align=center;verticalAlign=middle;resizable=0;points=[];" parent="GZWpoEK9zJhhvx7mUy16-5" vertex="1" connectable="0">
          <mxGeometry x="-0.3545" relative="1" as="geometry">
            <mxPoint as="offset" />
          </mxGeometry>
        </mxCell>
        <mxCell id="GZWpoEK9zJhhvx7mUy16-7" value="" style="endArrow=open;dashed=1;html=1;rounded=0;endFill=0;exitX=0.75;exitY=1;exitDx=0;exitDy=0;entryX=1;entryY=0.5;entryDx=0;entryDy=0;" parent="WIyWlLk6GJQsqaUBKTNV-1" source="j9wG2tnD-Bj2alD1Jjqa-186" target="j9wG2tnD-Bj2alD1Jjqa-115" edge="1">
          <mxGeometry width="50" height="50" relative="1" as="geometry">
            <mxPoint x="570" y="2000" as="sourcePoint" />
            <mxPoint x="1160" y="598" as="targetPoint" />
            <Array as="points">
              <mxPoint x="350" y="1900" />
              <mxPoint x="1160" y="1900" />
              <mxPoint x="1160" y="640" />
            </Array>
          </mxGeometry>
        </mxCell>
        <mxCell id="GZWpoEK9zJhhvx7mUy16-8" value="&amp;lt;&amp;lt;use&amp;gt;&amp;gt;" style="edgeLabel;html=1;align=center;verticalAlign=middle;resizable=0;points=[];" parent="GZWpoEK9zJhhvx7mUy16-7" vertex="1" connectable="0">
          <mxGeometry x="-0.0894" y="-1" relative="1" as="geometry">
            <mxPoint y="-80" as="offset" />
          </mxGeometry>
        </mxCell>
        <mxCell id="GZWpoEK9zJhhvx7mUy16-9" value="" style="endArrow=open;dashed=1;html=1;rounded=0;endFill=0;exitX=0.75;exitY=1;exitDx=0;exitDy=0;entryX=0.993;entryY=0.041;entryDx=0;entryDy=0;entryPerimeter=0;" parent="WIyWlLk6GJQsqaUBKTNV-1" source="j9wG2tnD-Bj2alD1Jjqa-174" target="j9wG2tnD-Bj2alD1Jjqa-91" edge="1">
          <mxGeometry width="50" height="50" relative="1" as="geometry">
            <mxPoint x="215" y="1930" as="sourcePoint" />
            <mxPoint x="1190" y="98" as="targetPoint" />
            <Array as="points">
              <mxPoint x="170" y="1920" />
              <mxPoint x="1182" y="1920" />
              <mxPoint x="1182" y="100" />
            </Array>
          </mxGeometry>
        </mxCell>
        <mxCell id="GZWpoEK9zJhhvx7mUy16-10" value="&amp;lt;&amp;lt;use&amp;gt;&amp;gt;" style="edgeLabel;html=1;align=center;verticalAlign=middle;resizable=0;points=[];" parent="GZWpoEK9zJhhvx7mUy16-9" vertex="1" connectable="0">
          <mxGeometry x="-0.1793" y="-1" relative="1" as="geometry">
            <mxPoint as="offset" />
          </mxGeometry>
        </mxCell>
        <mxCell id="CPUWAKYl9z688GiTzm30-19" value="SeatOccupancy" style="swimlane;fontStyle=1;align=center;verticalAlign=top;childLayout=stackLayout;horizontal=1;startSize=26;horizontalStack=0;resizeParent=1;resizeParentMax=0;resizeLast=0;collapsible=1;marginBottom=0;whiteSpace=wrap;html=1;" parent="WIyWlLk6GJQsqaUBKTNV-1" vertex="1">
          <mxGeometry x="430" y="730" width="200" height="98" as="geometry" />
        </mxCell>
        <mxCell id="CPUWAKYl9z688GiTzm30-20" value="GROUP_1" style="text;strokeColor=none;fillColor=none;align=left;verticalAlign=top;spacingLeft=4;spacingRight=4;overflow=hidden;rotatable=0;points=[[0,0.5],[1,0.5]];portConstraint=eastwest;whiteSpace=wrap;html=1;" parent="CPUWAKYl9z688GiTzm30-19" vertex="1">
          <mxGeometry y="26" width="200" height="24" as="geometry" />
        </mxCell>
        <mxCell id="CPUWAKYl9z688GiTzm30-21" value="GROUP_2" style="text;strokeColor=none;fillColor=none;align=left;verticalAlign=top;spacingLeft=4;spacingRight=4;overflow=hidden;rotatable=0;points=[[0,0.5],[1,0.5]];portConstraint=eastwest;whiteSpace=wrap;html=1;" parent="CPUWAKYl9z688GiTzm30-19" vertex="1">
          <mxGeometry y="50" width="200" height="20" as="geometry" />
        </mxCell>
        <mxCell id="CPUWAKYl9z688GiTzm30-22" value="GROUP_3" style="text;strokeColor=none;fillColor=none;align=left;verticalAlign=top;spacingLeft=4;spacingRight=4;overflow=hidden;rotatable=0;points=[[0,0.5],[1,0.5]];portConstraint=eastwest;whiteSpace=wrap;html=1;" parent="CPUWAKYl9z688GiTzm30-19" vertex="1">
          <mxGeometry y="70" width="200" height="20" as="geometry" />
        </mxCell>
        <mxCell id="CPUWAKYl9z688GiTzm30-23" value="" style="line;strokeWidth=1;fillColor=none;align=left;verticalAlign=middle;spacingTop=-1;spacingLeft=3;spacingRight=3;rotatable=0;labelPosition=right;points=[];portConstraint=eastwest;strokeColor=inherit;" parent="CPUWAKYl9z688GiTzm30-19" vertex="1">
          <mxGeometry y="90" width="200" height="8" as="geometry" />
        </mxCell>
        <mxCell id="CPUWAKYl9z688GiTzm30-31" value="" style="endArrow=diamondThin;html=1;rounded=0;endFill=1;exitX=0.25;exitY=0;exitDx=0;exitDy=0;" parent="WIyWlLk6GJQsqaUBKTNV-1" source="CPUWAKYl9z688GiTzm30-19" target="j9wG2tnD-Bj2alD1Jjqa-109" edge="1">
          <mxGeometry width="50" height="50" relative="1" as="geometry">
            <mxPoint x="196" y="617" as="sourcePoint" />
            <mxPoint x="196" y="536" as="targetPoint" />
          </mxGeometry>
        </mxCell>
        <mxCell id="CPUWAKYl9z688GiTzm30-32" value="1..*" style="edgeLabel;html=1;align=center;verticalAlign=middle;resizable=0;points=[];" parent="CPUWAKYl9z688GiTzm30-31" vertex="1" connectable="0">
          <mxGeometry x="-0.2444" y="1" relative="1" as="geometry">
            <mxPoint x="-133" y="-119" as="offset" />
          </mxGeometry>
        </mxCell>
        <mxCell id="CPUWAKYl9z688GiTzm30-33" value="1" style="edgeLabel;html=1;align=center;verticalAlign=middle;resizable=0;points=[];" parent="CPUWAKYl9z688GiTzm30-31" vertex="1" connectable="0">
          <mxGeometry x="-0.2762" y="-3" relative="1" as="geometry">
            <mxPoint x="91" y="80" as="offset" />
          </mxGeometry>
        </mxCell>
        <mxCell id="CPUWAKYl9z688GiTzm30-34" value="ist in" style="edgeLabel;html=1;align=center;verticalAlign=middle;resizable=0;points=[];" parent="CPUWAKYl9z688GiTzm30-31" vertex="1" connectable="0">
          <mxGeometry x="0.1492" y="-1" relative="1" as="geometry">
            <mxPoint as="offset" />
          </mxGeometry>
        </mxCell>
        <mxCell id="CPUWAKYl9z688GiTzm30-35" value="" style="endArrow=none;html=1;rounded=0;endFill=0;entryX=1;entryY=0.5;entryDx=0;entryDy=0;exitX=0.016;exitY=0.1;exitDx=0;exitDy=0;exitPerimeter=0;" parent="WIyWlLk6GJQsqaUBKTNV-1" source="CPUWAKYl9z688GiTzm30-19" target="j9wG2tnD-Bj2alD1Jjqa-141" edge="1">
          <mxGeometry width="50" height="50" relative="1" as="geometry">
            <mxPoint x="370" y="764.5" as="sourcePoint" />
            <mxPoint x="370" y="683.5" as="targetPoint" />
          </mxGeometry>
        </mxCell>
        <mxCell id="CPUWAKYl9z688GiTzm30-39" value="1" style="edgeLabel;html=1;align=center;verticalAlign=middle;resizable=0;points=[];" parent="CPUWAKYl9z688GiTzm30-35" vertex="1" connectable="0">
          <mxGeometry x="0.5594" y="-1" relative="1" as="geometry">
            <mxPoint as="offset" />
          </mxGeometry>
        </mxCell>
        <mxCell id="CPUWAKYl9z688GiTzm30-40" value="1" style="edgeLabel;html=1;align=center;verticalAlign=middle;resizable=0;points=[];" parent="CPUWAKYl9z688GiTzm30-35" vertex="1" connectable="0">
          <mxGeometry x="-0.5042" y="2" relative="1" as="geometry">
            <mxPoint x="-1" y="-3" as="offset" />
          </mxGeometry>
        </mxCell>
        <mxCell id="CPUWAKYl9z688GiTzm30-42" value="&lt;span style=&quot;font-weight: 400; text-wrap: nowrap;&quot;&gt;Event&lt;/span&gt;" style="swimlane;fontStyle=1;align=center;verticalAlign=top;childLayout=stackLayout;horizontal=1;startSize=26;horizontalStack=0;resizeParent=1;resizeParentMax=0;resizeLast=0;collapsible=1;marginBottom=0;whiteSpace=wrap;html=1;" parent="WIyWlLk6GJQsqaUBKTNV-1" vertex="1" collapsed="1">
          <mxGeometry x="480" y="660" width="70" height="30" as="geometry">
            <mxRectangle x="480" y="660" width="190" height="34" as="alternateBounds" />
          </mxGeometry>
        </mxCell>
        <mxCell id="CPUWAKYl9z688GiTzm30-45" value="" style="line;strokeWidth=1;fillColor=none;align=left;verticalAlign=middle;spacingTop=-1;spacingLeft=3;spacingRight=3;rotatable=0;labelPosition=right;points=[];portConstraint=eastwest;strokeColor=inherit;" parent="CPUWAKYl9z688GiTzm30-42" vertex="1">
          <mxGeometry y="26" width="190" height="8" as="geometry" />
        </mxCell>
        <mxCell id="CPUWAKYl9z688GiTzm30-51" value="" style="endArrow=diamondThin;html=1;rounded=0;endFill=0;exitX=0.5;exitY=0;exitDx=0;exitDy=0;" parent="WIyWlLk6GJQsqaUBKTNV-1" source="CPUWAKYl9z688GiTzm30-42" target="j9wG2tnD-Bj2alD1Jjqa-109" edge="1">
          <mxGeometry width="50" height="50" relative="1" as="geometry">
            <mxPoint x="725" y="722" as="sourcePoint" />
            <mxPoint x="270" y="486" as="targetPoint" />
          </mxGeometry>
        </mxCell>
        <mxCell id="CPUWAKYl9z688GiTzm30-52" value="1..*" style="edgeLabel;html=1;align=center;verticalAlign=middle;resizable=0;points=[];" parent="CPUWAKYl9z688GiTzm30-51" vertex="1" connectable="0">
          <mxGeometry x="-0.2444" y="1" relative="1" as="geometry">
            <mxPoint x="85" y="11" as="offset" />
          </mxGeometry>
        </mxCell>
        <mxCell id="CPUWAKYl9z688GiTzm30-54" value="findet statt in" style="edgeLabel;html=1;align=center;verticalAlign=middle;resizable=0;points=[];" parent="CPUWAKYl9z688GiTzm30-51" vertex="1" connectable="0">
          <mxGeometry x="0.0444" y="2" relative="1" as="geometry">
            <mxPoint as="offset" />
          </mxGeometry>
        </mxCell>
        <mxCell id="CPUWAKYl9z688GiTzm30-55" value="1" style="edgeLabel;html=1;align=center;verticalAlign=middle;resizable=0;points=[];" parent="CPUWAKYl9z688GiTzm30-51" vertex="1" connectable="0">
          <mxGeometry x="0.8725" relative="1" as="geometry">
            <mxPoint as="offset" />
          </mxGeometry>
        </mxCell>
        <mxCell id="CPUWAKYl9z688GiTzm30-60" value="CinemaHall" style="swimlane;fontStyle=1;align=center;verticalAlign=top;childLayout=stackLayout;horizontal=1;startSize=26;horizontalStack=0;resizeParent=1;resizeParentMax=0;resizeLast=0;collapsible=1;marginBottom=0;whiteSpace=wrap;html=1;" parent="WIyWlLk6GJQsqaUBKTNV-1" vertex="1">
          <mxGeometry x="-800" y="120" width="270" height="636" as="geometry" />
        </mxCell>
        <mxCell id="CPUWAKYl9z688GiTzm30-61" value="- id : Long" style="text;strokeColor=none;fillColor=none;align=left;verticalAlign=top;spacingLeft=4;spacingRight=4;overflow=hidden;rotatable=0;points=[[0,0.5],[1,0.5]];portConstraint=eastwest;whiteSpace=wrap;html=1;" parent="CPUWAKYl9z688GiTzm30-60" vertex="1">
          <mxGeometry y="26" width="270" height="24" as="geometry" />
        </mxCell>
        <mxCell id="CPUWAKYl9z688GiTzm30-62" value="- name : String" style="text;strokeColor=none;fillColor=none;align=left;verticalAlign=top;spacingLeft=4;spacingRight=4;overflow=hidden;rotatable=0;points=[[0,0.5],[1,0.5]];portConstraint=eastwest;whiteSpace=wrap;html=1;" parent="CPUWAKYl9z688GiTzm30-60" vertex="1">
          <mxGeometry y="50" width="270" height="20" as="geometry" />
        </mxCell>
        <mxCell id="CPUWAKYl9z688GiTzm30-63" value="&lt;font face=&quot;ywTWA3tYlKPthzdufxkg&quot;&gt;-&lt;/font&gt;&lt;font face=&quot;Helvetica&quot;&gt;&amp;nbsp;numberOfPlaces : int&lt;/font&gt;" style="text;strokeColor=none;fillColor=none;align=left;verticalAlign=top;spacingLeft=4;spacingRight=4;overflow=hidden;rotatable=0;points=[[0,0.5],[1,0.5]];portConstraint=eastwest;whiteSpace=wrap;html=1;" parent="CPUWAKYl9z688GiTzm30-60" vertex="1">
          <mxGeometry y="70" width="270" height="20" as="geometry" />
        </mxCell>
        <mxCell id="CPUWAKYl9z688GiTzm30-64" value="" style="line;strokeWidth=1;fillColor=none;align=left;verticalAlign=middle;spacingTop=-1;spacingLeft=3;spacingRight=3;rotatable=0;labelPosition=right;points=[];portConstraint=eastwest;strokeColor=inherit;" parent="CPUWAKYl9z688GiTzm30-60" vertex="1">
          <mxGeometry y="90" width="270" height="8" as="geometry" />
        </mxCell>
        <mxCell id="CPUWAKYl9z688GiTzm30-65" value="+&amp;nbsp;CinemaHall( name :&amp;nbsp;String, seats : Map&amp;lt;Seat, Seat.PlaceGroup&amp;gt;)&lt;div&gt;&lt;br&gt;&lt;/div&gt;" style="text;strokeColor=none;fillColor=none;align=left;verticalAlign=top;spacingLeft=4;spacingRight=4;overflow=hidden;rotatable=0;points=[[0,0.5],[1,0.5]];portConstraint=eastwest;whiteSpace=wrap;html=1;" parent="CPUWAKYl9z688GiTzm30-60" vertex="1">
          <mxGeometry y="98" width="270" height="42" as="geometry" />
        </mxCell>
        <mxCell id="CPUWAKYl9z688GiTzm30-66" value="+&amp;nbsp;CinemaHall()" style="text;strokeColor=none;fillColor=none;align=left;verticalAlign=top;spacingLeft=4;spacingRight=4;overflow=hidden;rotatable=0;points=[[0,0.5],[1,0.5]];portConstraint=eastwest;whiteSpace=wrap;html=1;" parent="CPUWAKYl9z688GiTzm30-60" vertex="1">
          <mxGeometry y="140" width="270" height="20" as="geometry" />
        </mxCell>
        <mxCell id="CPUWAKYl9z688GiTzm30-67" value="+&amp;nbsp;getSeatsAndPlaceGroups() :&amp;nbsp;Streamable&amp;lt;Map.Entry&amp;lt;Seat, Seat.PlaceGroup&amp;gt;&amp;gt;" style="text;strokeColor=none;fillColor=none;align=left;verticalAlign=top;spacingLeft=4;spacingRight=4;overflow=hidden;rotatable=0;points=[[0,0.5],[1,0.5]];portConstraint=eastwest;whiteSpace=wrap;html=1;" parent="CPUWAKYl9z688GiTzm30-60" vertex="1">
          <mxGeometry y="160" width="270" height="50" as="geometry" />
        </mxCell>
        <mxCell id="CPUWAKYl9z688GiTzm30-68" value="+&amp;nbsp;getSeatsAndPlaceGroups(row : int, pos : int) :&amp;nbsp;Optional&amp;lt;Map.Entry&amp;lt;Seat, Seat.PlaceGroup&amp;gt;&amp;gt;" style="text;strokeColor=none;fillColor=none;align=left;verticalAlign=top;spacingLeft=4;spacingRight=4;overflow=hidden;rotatable=0;points=[[0,0.5],[1,0.5]];portConstraint=eastwest;whiteSpace=wrap;html=1;" parent="CPUWAKYl9z688GiTzm30-60" vertex="1">
          <mxGeometry y="210" width="270" height="40" as="geometry" />
        </mxCell>
        <mxCell id="CPUWAKYl9z688GiTzm30-72" value="+&amp;nbsp;getSeats():&amp;nbsp;Streamable&amp;lt;Seat&amp;gt;" style="text;strokeColor=none;fillColor=none;align=left;verticalAlign=top;spacingLeft=4;spacingRight=4;overflow=hidden;rotatable=0;points=[[0,0.5],[1,0.5]];portConstraint=eastwest;whiteSpace=wrap;html=1;" parent="CPUWAKYl9z688GiTzm30-60" vertex="1">
          <mxGeometry y="250" width="270" height="30" as="geometry" />
        </mxCell>
        <mxCell id="CPUWAKYl9z688GiTzm30-79" value="+&amp;nbsp;getSeat(row : int, pos : int):&amp;nbsp;Optional&amp;lt;Seat&amp;gt;" style="text;strokeColor=none;fillColor=none;align=left;verticalAlign=top;spacingLeft=4;spacingRight=4;overflow=hidden;rotatable=0;points=[[0,0.5],[1,0.5]];portConstraint=eastwest;whiteSpace=wrap;html=1;" parent="CPUWAKYl9z688GiTzm30-60" vertex="1">
          <mxGeometry y="280" width="270" height="20" as="geometry" />
        </mxCell>
        <mxCell id="CPUWAKYl9z688GiTzm30-80" value="+&amp;nbsp;getPlaceGroup(row : int, pos : int):&amp;nbsp;Optional&amp;lt;Seat.PlaceGroup&amp;gt;" style="text;strokeColor=none;fillColor=none;align=left;verticalAlign=top;spacingLeft=4;spacingRight=4;overflow=hidden;rotatable=0;points=[[0,0.5],[1,0.5]];portConstraint=eastwest;whiteSpace=wrap;html=1;" parent="CPUWAKYl9z688GiTzm30-60" vertex="1">
          <mxGeometry y="300" width="270" height="40" as="geometry" />
        </mxCell>
        <mxCell id="CPUWAKYl9z688GiTzm30-82" value="+&amp;nbsp;getPlaceGroup(seat : Seat):&amp;nbsp;Optional&amp;lt;Seat.PlaceGroup&amp;gt;" style="text;strokeColor=none;fillColor=none;align=left;verticalAlign=top;spacingLeft=4;spacingRight=4;overflow=hidden;rotatable=0;points=[[0,0.5],[1,0.5]];portConstraint=eastwest;whiteSpace=wrap;html=1;" parent="CPUWAKYl9z688GiTzm30-60" vertex="1">
          <mxGeometry y="340" width="270" height="30" as="geometry" />
        </mxCell>
        <mxCell id="CPUWAKYl9z688GiTzm30-69" value="+ getId(): long" style="text;strokeColor=none;fillColor=none;align=left;verticalAlign=top;spacingLeft=4;spacingRight=4;overflow=hidden;rotatable=0;points=[[0,0.5],[1,0.5]];portConstraint=eastwest;whiteSpace=wrap;html=1;" parent="CPUWAKYl9z688GiTzm30-60" vertex="1">
          <mxGeometry y="370" width="270" height="20" as="geometry" />
        </mxCell>
        <mxCell id="CPUWAKYl9z688GiTzm30-70" value="+ getName(): String" style="text;strokeColor=none;fillColor=none;align=left;verticalAlign=top;spacingLeft=4;spacingRight=4;overflow=hidden;rotatable=0;points=[[0,0.5],[1,0.5]];portConstraint=eastwest;whiteSpace=wrap;html=1;" parent="CPUWAKYl9z688GiTzm30-60" vertex="1">
          <mxGeometry y="390" width="270" height="20" as="geometry" />
        </mxCell>
        <mxCell id="CPUWAKYl9z688GiTzm30-71" value="+ getNumberOfPlaces(): int" style="text;strokeColor=none;fillColor=none;align=left;verticalAlign=top;spacingLeft=4;spacingRight=4;overflow=hidden;rotatable=0;points=[[0,0.5],[1,0.5]];portConstraint=eastwest;whiteSpace=wrap;html=1;" parent="CPUWAKYl9z688GiTzm30-60" vertex="1">
          <mxGeometry y="410" width="270" height="20" as="geometry" />
        </mxCell>
        <mxCell id="CPUWAKYl9z688GiTzm30-73" value="+ getCinemaShows():&amp;nbsp;&lt;div&gt;Streamable&amp;lt;CinemaShow&amp;gt;&lt;/div&gt;" style="text;strokeColor=none;fillColor=none;align=left;verticalAlign=top;spacingLeft=4;spacingRight=4;overflow=hidden;rotatable=0;points=[[0,0.5],[1,0.5]];portConstraint=eastwest;whiteSpace=wrap;html=1;" parent="CPUWAKYl9z688GiTzm30-60" vertex="1">
          <mxGeometry y="430" width="270" height="40" as="geometry" />
        </mxCell>
        <mxCell id="CPUWAKYl9z688GiTzm30-74" value="+&amp;nbsp;getEvents():&amp;nbsp;Streamable&amp;lt;Event&amp;gt;" style="text;strokeColor=none;fillColor=none;align=left;verticalAlign=top;spacingLeft=4;spacingRight=4;overflow=hidden;rotatable=0;points=[[0,0.5],[1,0.5]];portConstraint=eastwest;whiteSpace=wrap;html=1;" parent="CPUWAKYl9z688GiTzm30-60" vertex="1">
          <mxGeometry y="470" width="270" height="26" as="geometry" />
        </mxCell>
        <mxCell id="CPUWAKYl9z688GiTzm30-75" value="+&amp;nbsp;addCinemaShow(newCinemaShow :&amp;nbsp;CinemaShow)" style="text;strokeColor=none;fillColor=none;align=left;verticalAlign=top;spacingLeft=4;spacingRight=4;overflow=hidden;rotatable=0;points=[[0,0.5],[1,0.5]];portConstraint=eastwest;whiteSpace=wrap;html=1;" parent="CPUWAKYl9z688GiTzm30-60" vertex="1">
          <mxGeometry y="496" width="270" height="35" as="geometry" />
        </mxCell>
        <mxCell id="f6jFOahU2R-Q090BEiEr-0" value="+ removeCinemaShow(cinemaShow :&amp;nbsp;CinemaShow)" style="text;strokeColor=none;fillColor=none;align=left;verticalAlign=top;spacingLeft=4;spacingRight=4;overflow=hidden;rotatable=0;points=[[0,0.5],[1,0.5]];portConstraint=eastwest;whiteSpace=wrap;html=1;" vertex="1" parent="CPUWAKYl9z688GiTzm30-60">
          <mxGeometry y="531" width="270" height="35" as="geometry" />
        </mxCell>
        <mxCell id="CPUWAKYl9z688GiTzm30-76" value="+&amp;nbsp;addEvent(newEvent :&amp;nbsp;Event&amp;nbsp;)" style="text;strokeColor=none;fillColor=none;align=left;verticalAlign=top;spacingLeft=4;spacingRight=4;overflow=hidden;rotatable=0;points=[[0,0.5],[1,0.5]];portConstraint=eastwest;whiteSpace=wrap;html=1;" parent="CPUWAKYl9z688GiTzm30-60" vertex="1">
          <mxGeometry y="566" width="270" height="24" as="geometry" />
        </mxCell>
        <mxCell id="CPUWAKYl9z688GiTzm30-77" value="+ hashCode(): int" style="text;strokeColor=none;fillColor=none;align=left;verticalAlign=top;spacingLeft=4;spacingRight=4;overflow=hidden;rotatable=0;points=[[0,0.5],[1,0.5]];portConstraint=eastwest;whiteSpace=wrap;html=1;" parent="CPUWAKYl9z688GiTzm30-60" vertex="1">
          <mxGeometry y="590" width="270" height="20" as="geometry" />
        </mxCell>
        <mxCell id="CPUWAKYl9z688GiTzm30-78" value="+ equals(object : Object): boolean" style="text;strokeColor=none;fillColor=none;align=left;verticalAlign=top;spacingLeft=4;spacingRight=4;overflow=hidden;rotatable=0;points=[[0,0.5],[1,0.5]];portConstraint=eastwest;whiteSpace=wrap;html=1;" parent="CPUWAKYl9z688GiTzm30-60" vertex="1">
          <mxGeometry y="610" width="270" height="26" as="geometry" />
        </mxCell>
        <mxCell id="f6jFOahU2R-Q090BEiEr-1" value="CinemaShow" style="swimlane;fontStyle=1;align=center;verticalAlign=top;childLayout=stackLayout;horizontal=1;startSize=26;horizontalStack=0;resizeParent=1;resizeParentMax=0;resizeLast=0;collapsible=1;marginBottom=0;whiteSpace=wrap;html=1;" vertex="1" parent="WIyWlLk6GJQsqaUBKTNV-1">
          <mxGeometry x="-500" y="120" width="270" height="1060" as="geometry">
            <mxRectangle x="640" y="1456" width="110" height="30" as="alternateBounds" />
          </mxGeometry>
        </mxCell>
        <mxCell id="f6jFOahU2R-Q090BEiEr-2" value="- id : Long" style="text;strokeColor=none;fillColor=none;align=left;verticalAlign=top;spacingLeft=4;spacingRight=4;overflow=hidden;rotatable=0;points=[[0,0.5],[1,0.5]];portConstraint=eastwest;whiteSpace=wrap;html=1;" vertex="1" parent="f6jFOahU2R-Q090BEiEr-1">
          <mxGeometry y="26" width="270" height="24" as="geometry" />
        </mxCell>
        <mxCell id="f6jFOahU2R-Q090BEiEr-3" value="- startDateTime : LocalDateTime" style="text;strokeColor=none;fillColor=none;align=left;verticalAlign=top;spacingLeft=4;spacingRight=4;overflow=hidden;rotatable=0;points=[[0,0.5],[1,0.5]];portConstraint=eastwest;whiteSpace=wrap;html=1;" vertex="1" parent="f6jFOahU2R-Q090BEiEr-1">
          <mxGeometry y="50" width="270" height="20" as="geometry" />
        </mxCell>
        <mxCell id="f6jFOahU2R-Q090BEiEr-4" value="- basePrice : Money" style="text;strokeColor=none;fillColor=none;align=left;verticalAlign=top;spacingLeft=4;spacingRight=4;overflow=hidden;rotatable=0;points=[[0,0.5],[1,0.5]];portConstraint=eastwest;whiteSpace=wrap;html=1;" vertex="1" parent="f6jFOahU2R-Q090BEiEr-1">
          <mxGeometry y="70" width="270" height="20" as="geometry" />
        </mxCell>
        <mxCell id="f6jFOahU2R-Q090BEiEr-5" value="" style="line;strokeWidth=1;fillColor=none;align=left;verticalAlign=middle;spacingTop=-1;spacingLeft=3;spacingRight=3;rotatable=0;labelPosition=right;points=[];portConstraint=eastwest;strokeColor=inherit;" vertex="1" parent="f6jFOahU2R-Q090BEiEr-1">
          <mxGeometry y="90" width="270" height="8" as="geometry" />
        </mxCell>
        <mxCell id="f6jFOahU2R-Q090BEiEr-16" value="+ CinemaShow(startDateTime : LocalDateTime,&lt;div&gt;basePrice : Money, film : Film)&lt;/div&gt;" style="text;strokeColor=none;fillColor=none;align=left;verticalAlign=top;spacingLeft=4;spacingRight=4;overflow=hidden;rotatable=0;points=[[0,0.5],[1,0.5]];portConstraint=eastwest;whiteSpace=wrap;html=1;" vertex="1" parent="f6jFOahU2R-Q090BEiEr-1">
          <mxGeometry y="98" width="270" height="35" as="geometry" />
        </mxCell>
        <mxCell id="f6jFOahU2R-Q090BEiEr-6" value="+ CinemaShow(&lt;span style=&quot;background-color: initial;&quot;&gt;)&lt;/span&gt;" style="text;strokeColor=none;fillColor=none;align=left;verticalAlign=top;spacingLeft=4;spacingRight=4;overflow=hidden;rotatable=0;points=[[0,0.5],[1,0.5]];portConstraint=eastwest;whiteSpace=wrap;html=1;" vertex="1" parent="f6jFOahU2R-Q090BEiEr-1">
          <mxGeometry y="133" width="270" height="17" as="geometry" />
        </mxCell>
        <mxCell id="f6jFOahU2R-Q090BEiEr-7" value="+ getId() : Long" style="text;strokeColor=none;fillColor=none;align=left;verticalAlign=top;spacingLeft=4;spacingRight=4;overflow=hidden;rotatable=0;points=[[0,0.5],[1,0.5]];portConstraint=eastwest;whiteSpace=wrap;html=1;" vertex="1" parent="f6jFOahU2R-Q090BEiEr-1">
          <mxGeometry y="150" width="270" height="20" as="geometry" />
        </mxCell>
        <mxCell id="f6jFOahU2R-Q090BEiEr-8" value="+ getFilm() : Film" style="text;strokeColor=none;fillColor=none;align=left;verticalAlign=top;spacingLeft=4;spacingRight=4;overflow=hidden;rotatable=0;points=[[0,0.5],[1,0.5]];portConstraint=eastwest;whiteSpace=wrap;html=1;" vertex="1" parent="f6jFOahU2R-Q090BEiEr-1">
          <mxGeometry y="170" width="270" height="20" as="geometry" />
        </mxCell>
        <mxCell id="f6jFOahU2R-Q090BEiEr-17" value="+ setFilm(film : Film)" style="text;strokeColor=none;fillColor=none;align=left;verticalAlign=top;spacingLeft=4;spacingRight=4;overflow=hidden;rotatable=0;points=[[0,0.5],[1,0.5]];portConstraint=eastwest;whiteSpace=wrap;html=1;" vertex="1" parent="f6jFOahU2R-Q090BEiEr-1">
          <mxGeometry y="190" width="270" height="20" as="geometry" />
        </mxCell>
        <mxCell id="f6jFOahU2R-Q090BEiEr-18" value="+ getStartDateTime() : LocalDateTime" style="text;strokeColor=none;fillColor=none;align=left;verticalAlign=top;spacingLeft=4;spacingRight=4;overflow=hidden;rotatable=0;points=[[0,0.5],[1,0.5]];portConstraint=eastwest;whiteSpace=wrap;html=1;" vertex="1" parent="f6jFOahU2R-Q090BEiEr-1">
          <mxGeometry y="210" width="270" height="20" as="geometry" />
        </mxCell>
        <mxCell id="f6jFOahU2R-Q090BEiEr-9" value="+ getShortStartDateTime() : String" style="text;strokeColor=none;fillColor=none;align=left;verticalAlign=top;spacingLeft=4;spacingRight=4;overflow=hidden;rotatable=0;points=[[0,0.5],[1,0.5]];portConstraint=eastwest;whiteSpace=wrap;html=1;" vertex="1" parent="f6jFOahU2R-Q090BEiEr-1">
          <mxGeometry y="230" width="270" height="20" as="geometry" />
        </mxCell>
        <mxCell id="f6jFOahU2R-Q090BEiEr-19" value="+ setStartDateTime(startDateTime : LocalDateTime)" style="text;strokeColor=none;fillColor=none;align=left;verticalAlign=top;spacingLeft=4;spacingRight=4;overflow=hidden;rotatable=0;points=[[0,0.5],[1,0.5]];portConstraint=eastwest;whiteSpace=wrap;html=1;" vertex="1" parent="f6jFOahU2R-Q090BEiEr-1">
          <mxGeometry y="250" width="270" height="30" as="geometry" />
        </mxCell>
        <mxCell id="f6jFOahU2R-Q090BEiEr-10" value="+ getBasePrice() : Money" style="text;strokeColor=none;fillColor=none;align=left;verticalAlign=top;spacingLeft=4;spacingRight=4;overflow=hidden;rotatable=0;points=[[0,0.5],[1,0.5]];portConstraint=eastwest;whiteSpace=wrap;html=1;" vertex="1" parent="f6jFOahU2R-Q090BEiEr-1">
          <mxGeometry y="280" width="270" height="20" as="geometry" />
        </mxCell>
        <mxCell id="f6jFOahU2R-Q090BEiEr-20" value="+ setBasePrice(basePrice : Money)" style="text;strokeColor=none;fillColor=none;align=left;verticalAlign=top;spacingLeft=4;spacingRight=4;overflow=hidden;rotatable=0;points=[[0,0.5],[1,0.5]];portConstraint=eastwest;whiteSpace=wrap;html=1;" vertex="1" parent="f6jFOahU2R-Q090BEiEr-1">
          <mxGeometry y="300" width="270" height="20" as="geometry" />
        </mxCell>
        <mxCell id="f6jFOahU2R-Q090BEiEr-11" value="+ getCinemaHall() : CinemaHall" style="text;strokeColor=none;fillColor=none;align=left;verticalAlign=top;spacingLeft=4;spacingRight=4;overflow=hidden;rotatable=0;points=[[0,0.5],[1,0.5]];portConstraint=eastwest;whiteSpace=wrap;html=1;" vertex="1" parent="f6jFOahU2R-Q090BEiEr-1">
          <mxGeometry y="320" width="270" height="20" as="geometry" />
        </mxCell>
        <mxCell id="f6jFOahU2R-Q090BEiEr-12" value="setCinemaHall(cinemaHall : CinemaHall)" style="text;strokeColor=none;fillColor=none;align=left;verticalAlign=top;spacingLeft=4;spacingRight=4;overflow=hidden;rotatable=0;points=[[0,0.5],[1,0.5]];portConstraint=eastwest;whiteSpace=wrap;html=1;" vertex="1" parent="f6jFOahU2R-Q090BEiEr-1">
          <mxGeometry y="340" width="270" height="20" as="geometry" />
        </mxCell>
        <mxCell id="f6jFOahU2R-Q090BEiEr-21" value="+&amp;nbsp;getSeatsAndOccupancy() :&amp;nbsp;Streamable&amp;lt;Map.Entry&amp;lt;Seat, Seat.SeatOccupancy&amp;gt;&amp;gt;" style="text;strokeColor=none;fillColor=none;align=left;verticalAlign=top;spacingLeft=4;spacingRight=4;overflow=hidden;rotatable=0;points=[[0,0.5],[1,0.5]];portConstraint=eastwest;whiteSpace=wrap;html=1;" vertex="1" parent="f6jFOahU2R-Q090BEiEr-1">
          <mxGeometry y="360" width="270" height="50" as="geometry" />
        </mxCell>
        <mxCell id="f6jFOahU2R-Q090BEiEr-22" value="+&amp;nbsp;getSeatAndOccupancy(row : int, pos : int) : Optional&amp;lt;Map.Entry&amp;lt;Seat, Seat.SeatOccupancy&amp;gt;&amp;gt;" style="text;strokeColor=none;fillColor=none;align=left;verticalAlign=top;spacingLeft=4;spacingRight=4;overflow=hidden;rotatable=0;points=[[0,0.5],[1,0.5]];portConstraint=eastwest;whiteSpace=wrap;html=1;" vertex="1" parent="f6jFOahU2R-Q090BEiEr-1">
          <mxGeometry y="410" width="270" height="50" as="geometry" />
        </mxCell>
        <mxCell id="f6jFOahU2R-Q090BEiEr-23" value="+ getSeats() : Streamable&amp;lt;Seat&amp;gt;" style="text;strokeColor=none;fillColor=none;align=left;verticalAlign=top;spacingLeft=4;spacingRight=4;overflow=hidden;rotatable=0;points=[[0,0.5],[1,0.5]];portConstraint=eastwest;whiteSpace=wrap;html=1;" vertex="1" parent="f6jFOahU2R-Q090BEiEr-1">
          <mxGeometry y="460" width="270" height="20" as="geometry" />
        </mxCell>
        <mxCell id="f6jFOahU2R-Q090BEiEr-50" value="+ getSeat(row : int, pos : int) : Optional&amp;lt;Seat&amp;gt;" style="text;strokeColor=none;fillColor=none;align=left;verticalAlign=top;spacingLeft=4;spacingRight=4;overflow=hidden;rotatable=0;points=[[0,0.5],[1,0.5]];portConstraint=eastwest;whiteSpace=wrap;html=1;" vertex="1" parent="f6jFOahU2R-Q090BEiEr-1">
          <mxGeometry y="480" width="270" height="20" as="geometry" />
        </mxCell>
        <mxCell id="f6jFOahU2R-Q090BEiEr-25" value="+ getOccupancy(row : int, pos : int) : Optional&amp;lt;Seat.SeatOccupancy&amp;gt;" style="text;strokeColor=none;fillColor=none;align=left;verticalAlign=top;spacingLeft=4;spacingRight=4;overflow=hidden;rotatable=0;points=[[0,0.5],[1,0.5]];portConstraint=eastwest;whiteSpace=wrap;html=1;" vertex="1" parent="f6jFOahU2R-Q090BEiEr-1">
          <mxGeometry y="500" width="270" height="30" as="geometry" />
        </mxCell>
        <mxCell id="f6jFOahU2R-Q090BEiEr-26" value="+ getOccupancy(seat : Seat) : Streamable&amp;lt;Seat.SeatOccupancy&amp;gt;" style="text;strokeColor=none;fillColor=none;align=left;verticalAlign=top;spacingLeft=4;spacingRight=4;overflow=hidden;rotatable=0;points=[[0,0.5],[1,0.5]];portConstraint=eastwest;whiteSpace=wrap;html=1;" vertex="1" parent="f6jFOahU2R-Q090BEiEr-1">
          <mxGeometry y="530" width="270" height="30" as="geometry" />
        </mxCell>
        <mxCell id="f6jFOahU2R-Q090BEiEr-28" value="+&amp;nbsp;hasReservedSeats() : int" style="text;strokeColor=none;fillColor=none;align=left;verticalAlign=top;spacingLeft=4;spacingRight=4;overflow=hidden;rotatable=0;points=[[0,0.5],[1,0.5]];portConstraint=eastwest;whiteSpace=wrap;html=1;" vertex="1" parent="f6jFOahU2R-Q090BEiEr-1">
          <mxGeometry y="560" width="270" height="20" as="geometry" />
        </mxCell>
        <mxCell id="f6jFOahU2R-Q090BEiEr-32" value="+&amp;nbsp;hasBoughtSeats() : int" style="text;strokeColor=none;fillColor=none;align=left;verticalAlign=top;spacingLeft=4;spacingRight=4;overflow=hidden;rotatable=0;points=[[0,0.5],[1,0.5]];portConstraint=eastwest;whiteSpace=wrap;html=1;" vertex="1" parent="f6jFOahU2R-Q090BEiEr-1">
          <mxGeometry y="580" width="270" height="20" as="geometry" />
        </mxCell>
        <mxCell id="f6jFOahU2R-Q090BEiEr-27" value="+&amp;nbsp;hasReservedOrBoughtSeats() : int" style="text;strokeColor=none;fillColor=none;align=left;verticalAlign=top;spacingLeft=4;spacingRight=4;overflow=hidden;rotatable=0;points=[[0,0.5],[1,0.5]];portConstraint=eastwest;whiteSpace=wrap;html=1;" vertex="1" parent="f6jFOahU2R-Q090BEiEr-1">
          <mxGeometry y="600" width="270" height="20" as="geometry" />
        </mxCell>
        <mxCell id="f6jFOahU2R-Q090BEiEr-36" value="+&amp;nbsp;containsSeat(row : int, pos : int) : int" style="text;strokeColor=none;fillColor=none;align=left;verticalAlign=top;spacingLeft=4;spacingRight=4;overflow=hidden;rotatable=0;points=[[0,0.5],[1,0.5]];portConstraint=eastwest;whiteSpace=wrap;html=1;" vertex="1" parent="f6jFOahU2R-Q090BEiEr-1">
          <mxGeometry y="620" width="270" height="20" as="geometry" />
        </mxCell>
        <mxCell id="f6jFOahU2R-Q090BEiEr-37" value="+&amp;nbsp;containsSeat(seat : Seat) : int" style="text;strokeColor=none;fillColor=none;align=left;verticalAlign=top;spacingLeft=4;spacingRight=4;overflow=hidden;rotatable=0;points=[[0,0.5],[1,0.5]];portConstraint=eastwest;whiteSpace=wrap;html=1;" vertex="1" parent="f6jFOahU2R-Q090BEiEr-1">
          <mxGeometry y="640" width="270" height="20" as="geometry" />
        </mxCell>
        <mxCell id="f6jFOahU2R-Q090BEiEr-39" value="+&amp;nbsp;getSeatCount() : int" style="text;strokeColor=none;fillColor=none;align=left;verticalAlign=top;spacingLeft=4;spacingRight=4;overflow=hidden;rotatable=0;points=[[0,0.5],[1,0.5]];portConstraint=eastwest;whiteSpace=wrap;html=1;" vertex="1" parent="f6jFOahU2R-Q090BEiEr-1">
          <mxGeometry y="660" width="270" height="20" as="geometry" />
        </mxCell>
        <mxCell id="f6jFOahU2R-Q090BEiEr-42" value="+&amp;nbsp;getSeatCount(occupancy : Seat.SeatOccupancy) : int" style="text;strokeColor=none;fillColor=none;align=left;verticalAlign=top;spacingLeft=4;spacingRight=4;overflow=hidden;rotatable=0;points=[[0,0.5],[1,0.5]];portConstraint=eastwest;whiteSpace=wrap;html=1;" vertex="1" parent="f6jFOahU2R-Q090BEiEr-1">
          <mxGeometry y="680" width="270" height="30" as="geometry" />
        </mxCell>
        <mxCell id="f6jFOahU2R-Q090BEiEr-43" value="+&amp;nbsp;getSeatProvenCount(occupancy : Seat.SeatOccupancy) : int" style="text;strokeColor=none;fillColor=none;align=left;verticalAlign=top;spacingLeft=4;spacingRight=4;overflow=hidden;rotatable=0;points=[[0,0.5],[1,0.5]];portConstraint=eastwest;whiteSpace=wrap;html=1;" vertex="1" parent="f6jFOahU2R-Q090BEiEr-1">
          <mxGeometry y="710" width="270" height="30" as="geometry" />
        </mxCell>
        <mxCell id="f6jFOahU2R-Q090BEiEr-45" value="+&amp;nbsp;getPercentageSeatShare(occupancy : Seat.SeatOccupancy) : double" style="text;strokeColor=none;fillColor=none;align=left;verticalAlign=top;spacingLeft=4;spacingRight=4;overflow=hidden;rotatable=0;points=[[0,0.5],[1,0.5]];portConstraint=eastwest;whiteSpace=wrap;html=1;" vertex="1" parent="f6jFOahU2R-Q090BEiEr-1">
          <mxGeometry y="740" width="270" height="30" as="geometry" />
        </mxCell>
        <mxCell id="f6jFOahU2R-Q090BEiEr-44" value="+&amp;nbsp;getPercentageSeatProvenShare() : double" style="text;strokeColor=none;fillColor=none;align=left;verticalAlign=top;spacingLeft=4;spacingRight=4;overflow=hidden;rotatable=0;points=[[0,0.5],[1,0.5]];portConstraint=eastwest;whiteSpace=wrap;html=1;" vertex="1" parent="f6jFOahU2R-Q090BEiEr-1">
          <mxGeometry y="770" width="270" height="20" as="geometry" />
        </mxCell>
        <mxCell id="f6jFOahU2R-Q090BEiEr-41" value="setOccupancy(row : int, pos : int, occupancy :&amp;nbsp;Seat.SeatOccupancy)" style="text;strokeColor=none;fillColor=none;align=left;verticalAlign=top;spacingLeft=4;spacingRight=4;overflow=hidden;rotatable=0;points=[[0,0.5],[1,0.5]];portConstraint=eastwest;whiteSpace=wrap;html=1;" vertex="1" parent="f6jFOahU2R-Q090BEiEr-1">
          <mxGeometry y="790" width="270" height="30" as="geometry" />
        </mxCell>
        <mxCell id="f6jFOahU2R-Q090BEiEr-40" value="+&amp;nbsp;setOccupancy(seat : Seat, occupancy : Seat.SeatOccupancy)" style="text;strokeColor=none;fillColor=none;align=left;verticalAlign=top;spacingLeft=4;spacingRight=4;overflow=hidden;rotatable=0;points=[[0,0.5],[1,0.5]];portConstraint=eastwest;whiteSpace=wrap;html=1;" vertex="1" parent="f6jFOahU2R-Q090BEiEr-1">
          <mxGeometry y="820" width="270" height="30" as="geometry" />
        </mxCell>
        <mxCell id="f6jFOahU2R-Q090BEiEr-38" value="+&amp;nbsp;initSeats(seats : Map&amp;lt;Seat, Seat.SeatOccupancy&amp;gt;)" style="text;strokeColor=none;fillColor=none;align=left;verticalAlign=top;spacingLeft=4;spacingRight=4;overflow=hidden;rotatable=0;points=[[0,0.5],[1,0.5]];portConstraint=eastwest;whiteSpace=wrap;html=1;" vertex="1" parent="f6jFOahU2R-Q090BEiEr-1">
          <mxGeometry y="850" width="270" height="30" as="geometry" />
        </mxCell>
        <mxCell id="f6jFOahU2R-Q090BEiEr-35" value="setCinemaHall(cinemaHall : CinemaHall)" style="text;strokeColor=none;fillColor=none;align=left;verticalAlign=top;spacingLeft=4;spacingRight=4;overflow=hidden;rotatable=0;points=[[0,0.5],[1,0.5]];portConstraint=eastwest;whiteSpace=wrap;html=1;" vertex="1" parent="f6jFOahU2R-Q090BEiEr-1">
          <mxGeometry y="880" width="270" height="20" as="geometry" />
        </mxCell>
        <mxCell id="f6jFOahU2R-Q090BEiEr-49" value="+ getDuration() : int" style="text;strokeColor=none;fillColor=none;align=left;verticalAlign=top;spacingLeft=4;spacingRight=4;overflow=hidden;rotatable=0;points=[[0,0.5],[1,0.5]];portConstraint=eastwest;whiteSpace=wrap;html=1;" vertex="1" parent="f6jFOahU2R-Q090BEiEr-1">
          <mxGeometry y="900" width="270" height="20" as="geometry" />
        </mxCell>
        <mxCell id="f6jFOahU2R-Q090BEiEr-34" value="+&amp;nbsp;getName() : String" style="text;strokeColor=none;fillColor=none;align=left;verticalAlign=top;spacingLeft=4;spacingRight=4;overflow=hidden;rotatable=0;points=[[0,0.5],[1,0.5]];portConstraint=eastwest;whiteSpace=wrap;html=1;" vertex="1" parent="f6jFOahU2R-Q090BEiEr-1">
          <mxGeometry y="920" width="270" height="20" as="geometry" />
        </mxCell>
        <mxCell id="f6jFOahU2R-Q090BEiEr-48" value="+ canReserveSpots() : boolean" style="text;strokeColor=none;fillColor=none;align=left;verticalAlign=top;spacingLeft=4;spacingRight=4;overflow=hidden;rotatable=0;points=[[0,0.5],[1,0.5]];portConstraint=eastwest;whiteSpace=wrap;html=1;" vertex="1" parent="f6jFOahU2R-Q090BEiEr-1">
          <mxGeometry y="940" width="270" height="20" as="geometry" />
        </mxCell>
        <mxCell id="f6jFOahU2R-Q090BEiEr-13" value="+ hashCode() : int" style="text;strokeColor=none;fillColor=none;align=left;verticalAlign=top;spacingLeft=4;spacingRight=4;overflow=hidden;rotatable=0;points=[[0,0.5],[1,0.5]];portConstraint=eastwest;whiteSpace=wrap;html=1;" vertex="1" parent="f6jFOahU2R-Q090BEiEr-1">
          <mxGeometry y="960" width="270" height="20" as="geometry" />
        </mxCell>
        <mxCell id="f6jFOahU2R-Q090BEiEr-14" value="+ equals(object : Object) : boolean" style="text;strokeColor=none;fillColor=none;align=left;verticalAlign=top;spacingLeft=4;spacingRight=4;overflow=hidden;rotatable=0;points=[[0,0.5],[1,0.5]];portConstraint=eastwest;whiteSpace=wrap;html=1;" vertex="1" parent="f6jFOahU2R-Q090BEiEr-1">
          <mxGeometry y="980" width="270" height="20" as="geometry" />
        </mxCell>
        <mxCell id="f6jFOahU2R-Q090BEiEr-33" value="+ compareTo(cinemaShow : CinemaShow) : int" style="text;strokeColor=none;fillColor=none;align=left;verticalAlign=top;spacingLeft=4;spacingRight=4;overflow=hidden;rotatable=0;points=[[0,0.5],[1,0.5]];portConstraint=eastwest;whiteSpace=wrap;html=1;" vertex="1" parent="f6jFOahU2R-Q090BEiEr-1">
          <mxGeometry y="1000" width="270" height="24" as="geometry" />
        </mxCell>
        <mxCell id="f6jFOahU2R-Q090BEiEr-15" value="+ compareTo(scheduledActivity : ScheduledActivity) : int" style="text;strokeColor=none;fillColor=none;align=left;verticalAlign=top;spacingLeft=4;spacingRight=4;overflow=hidden;rotatable=0;points=[[0,0.5],[1,0.5]];portConstraint=eastwest;whiteSpace=wrap;html=1;" vertex="1" parent="f6jFOahU2R-Q090BEiEr-1">
          <mxGeometry y="1024" width="270" height="36" as="geometry" />
        </mxCell>
        <mxCell id="f6jFOahU2R-Q090BEiEr-51" value="Film" style="swimlane;fontStyle=1;align=center;verticalAlign=top;childLayout=stackLayout;horizontal=1;startSize=26;horizontalStack=0;resizeParent=1;resizeParentMax=0;resizeLast=0;collapsible=1;marginBottom=0;whiteSpace=wrap;html=1;" vertex="1" parent="WIyWlLk6GJQsqaUBKTNV-1">
          <mxGeometry x="-800" y="790" width="270" height="1120" as="geometry" />
        </mxCell>
        <mxCell id="f6jFOahU2R-Q090BEiEr-52" value="- id: Long" style="text;strokeColor=none;fillColor=none;align=left;verticalAlign=top;spacingLeft=4;spacingRight=4;overflow=hidden;rotatable=0;points=[[0,0.5],[1,0.5]];portConstraint=eastwest;whiteSpace=wrap;html=1;" vertex="1" parent="f6jFOahU2R-Q090BEiEr-51">
          <mxGeometry y="26" width="270" height="24" as="geometry" />
        </mxCell>
        <mxCell id="f6jFOahU2R-Q090BEiEr-53" value="- title: String" style="text;strokeColor=none;fillColor=none;align=left;verticalAlign=top;spacingLeft=4;spacingRight=4;overflow=hidden;rotatable=0;points=[[0,0.5],[1,0.5]];portConstraint=eastwest;whiteSpace=wrap;html=1;" vertex="1" parent="f6jFOahU2R-Q090BEiEr-51">
          <mxGeometry y="50" width="270" height="20" as="geometry" />
        </mxCell>
        <mxCell id="f6jFOahU2R-Q090BEiEr-54" value="- desc: String" style="text;strokeColor=none;fillColor=none;align=left;verticalAlign=top;spacingLeft=4;spacingRight=4;overflow=hidden;rotatable=0;points=[[0,0.5],[1,0.5]];portConstraint=eastwest;whiteSpace=wrap;html=1;" vertex="1" parent="f6jFOahU2R-Q090BEiEr-51">
          <mxGeometry y="70" width="270" height="20" as="geometry" />
        </mxCell>
        <mxCell id="f6jFOahU2R-Q090BEiEr-55" value="- fskAge: int" style="text;strokeColor=none;fillColor=none;align=left;verticalAlign=top;spacingLeft=4;spacingRight=4;overflow=hidden;rotatable=0;points=[[0,0.5],[1,0.5]];portConstraint=eastwest;whiteSpace=wrap;html=1;" vertex="1" parent="f6jFOahU2R-Q090BEiEr-51">
          <mxGeometry y="90" width="270" height="20" as="geometry" />
        </mxCell>
        <mxCell id="f6jFOahU2R-Q090BEiEr-56" value="- timePlaying: int" style="text;strokeColor=none;fillColor=none;align=left;verticalAlign=top;spacingLeft=4;spacingRight=4;overflow=hidden;rotatable=0;points=[[0,0.5],[1,0.5]];portConstraint=eastwest;whiteSpace=wrap;html=1;" vertex="1" parent="f6jFOahU2R-Q090BEiEr-51">
          <mxGeometry y="110" width="270" height="20" as="geometry" />
        </mxCell>
        <mxCell id="f6jFOahU2R-Q090BEiEr-72" value="- basicRentFee: int" style="text;strokeColor=none;fillColor=none;align=left;verticalAlign=top;spacingLeft=4;spacingRight=4;overflow=hidden;rotatable=0;points=[[0,0.5],[1,0.5]];portConstraint=eastwest;whiteSpace=wrap;html=1;" vertex="1" parent="f6jFOahU2R-Q090BEiEr-51">
          <mxGeometry y="130" width="270" height="20" as="geometry" />
        </mxCell>
        <mxCell id="f6jFOahU2R-Q090BEiEr-70" value="- reducedBasicRentFee : ArrayList&amp;lt;Double&amp;gt;&lt;span style=&quot;background-color: initial;&quot;&gt;&amp;nbsp;&lt;/span&gt;" style="text;strokeColor=none;fillColor=none;align=left;verticalAlign=top;spacingLeft=4;spacingRight=4;overflow=hidden;rotatable=0;points=[[0,0.5],[1,0.5]];portConstraint=eastwest;whiteSpace=wrap;html=1;" vertex="1" parent="f6jFOahU2R-Q090BEiEr-51">
          <mxGeometry y="150" width="270" height="20" as="geometry" />
        </mxCell>
        <mxCell id="f6jFOahU2R-Q090BEiEr-71" value="- basePrice : Money" style="text;strokeColor=none;fillColor=none;align=left;verticalAlign=top;spacingLeft=4;spacingRight=4;overflow=hidden;rotatable=0;points=[[0,0.5],[1,0.5]];portConstraint=eastwest;whiteSpace=wrap;html=1;" vertex="1" parent="f6jFOahU2R-Q090BEiEr-51">
          <mxGeometry y="170" width="270" height="20" as="geometry" />
        </mxCell>
        <mxCell id="f6jFOahU2R-Q090BEiEr-57" value="- imageSource : String" style="text;strokeColor=none;fillColor=none;align=left;verticalAlign=top;spacingLeft=4;spacingRight=4;overflow=hidden;rotatable=0;points=[[0,0.5],[1,0.5]];portConstraint=eastwest;whiteSpace=wrap;html=1;" vertex="1" parent="f6jFOahU2R-Q090BEiEr-51">
          <mxGeometry y="190" width="270" height="20" as="geometry" />
        </mxCell>
        <mxCell id="f6jFOahU2R-Q090BEiEr-58" value="" style="line;strokeWidth=1;fillColor=none;align=left;verticalAlign=middle;spacingTop=-1;spacingLeft=3;spacingRight=3;rotatable=0;labelPosition=right;points=[];portConstraint=eastwest;strokeColor=inherit;" vertex="1" parent="f6jFOahU2R-Q090BEiEr-51">
          <mxGeometry y="210" width="270" height="8" as="geometry" />
        </mxCell>
        <mxCell id="f6jFOahU2R-Q090BEiEr-73" value="+ Film(title : String, desc : String, timePlaying : int, fskAge : int, filmProvider : FilmProvider)" style="text;strokeColor=none;fillColor=none;align=left;verticalAlign=top;spacingLeft=4;spacingRight=4;overflow=hidden;rotatable=0;points=[[0,0.5],[1,0.5]];portConstraint=eastwest;whiteSpace=wrap;html=1;" vertex="1" parent="f6jFOahU2R-Q090BEiEr-51">
          <mxGeometry y="218" width="270" height="32" as="geometry" />
        </mxCell>
        <mxCell id="f6jFOahU2R-Q090BEiEr-74" value="+ Film(title : String, desc : String, timePlaying : int, fskAge : int, filmProvider : FilmProvider, basicRentFee : int)" style="text;strokeColor=none;fillColor=none;align=left;verticalAlign=top;spacingLeft=4;spacingRight=4;overflow=hidden;rotatable=0;points=[[0,0.5],[1,0.5]];portConstraint=eastwest;whiteSpace=wrap;html=1;" vertex="1" parent="f6jFOahU2R-Q090BEiEr-51">
          <mxGeometry y="250" width="270" height="50" as="geometry" />
        </mxCell>
        <mxCell id="f6jFOahU2R-Q090BEiEr-75" value="+ Film(title : String, desc : String, timePlaying : int, fskAge : int, filmProvider : FilmProvider, basicRentFee : int, imageSource : String)" style="text;strokeColor=none;fillColor=none;align=left;verticalAlign=top;spacingLeft=4;spacingRight=4;overflow=hidden;rotatable=0;points=[[0,0.5],[1,0.5]];portConstraint=eastwest;whiteSpace=wrap;html=1;" vertex="1" parent="f6jFOahU2R-Q090BEiEr-51">
          <mxGeometry y="300" width="270" height="50" as="geometry" />
        </mxCell>
        <mxCell id="f6jFOahU2R-Q090BEiEr-76" value="+ Film()" style="text;strokeColor=none;fillColor=none;align=left;verticalAlign=top;spacingLeft=4;spacingRight=4;overflow=hidden;rotatable=0;points=[[0,0.5],[1,0.5]];portConstraint=eastwest;whiteSpace=wrap;html=1;" vertex="1" parent="f6jFOahU2R-Q090BEiEr-51">
          <mxGeometry y="350" width="270" height="20" as="geometry" />
        </mxCell>
        <mxCell id="f6jFOahU2R-Q090BEiEr-59" value="+ getId(): Long" style="text;strokeColor=none;fillColor=none;align=left;verticalAlign=top;spacingLeft=4;spacingRight=4;overflow=hidden;rotatable=0;points=[[0,0.5],[1,0.5]];portConstraint=eastwest;whiteSpace=wrap;html=1;" vertex="1" parent="f6jFOahU2R-Q090BEiEr-51">
          <mxGeometry y="370" width="270" height="22" as="geometry" />
        </mxCell>
        <mxCell id="f6jFOahU2R-Q090BEiEr-77" value="+ getIdString(): String" style="text;strokeColor=none;fillColor=none;align=left;verticalAlign=top;spacingLeft=4;spacingRight=4;overflow=hidden;rotatable=0;points=[[0,0.5],[1,0.5]];portConstraint=eastwest;whiteSpace=wrap;html=1;" vertex="1" parent="f6jFOahU2R-Q090BEiEr-51">
          <mxGeometry y="392" width="270" height="22" as="geometry" />
        </mxCell>
        <mxCell id="f6jFOahU2R-Q090BEiEr-60" value="+ getTitle(): String" style="text;strokeColor=none;fillColor=none;align=left;verticalAlign=top;spacingLeft=4;spacingRight=4;overflow=hidden;rotatable=0;points=[[0,0.5],[1,0.5]];portConstraint=eastwest;whiteSpace=wrap;html=1;" vertex="1" parent="f6jFOahU2R-Q090BEiEr-51">
          <mxGeometry y="414" width="270" height="20" as="geometry" />
        </mxCell>
        <mxCell id="f6jFOahU2R-Q090BEiEr-79" value="+ getName(): String" style="text;strokeColor=none;fillColor=none;align=left;verticalAlign=top;spacingLeft=4;spacingRight=4;overflow=hidden;rotatable=0;points=[[0,0.5],[1,0.5]];portConstraint=eastwest;whiteSpace=wrap;html=1;" vertex="1" parent="f6jFOahU2R-Q090BEiEr-51">
          <mxGeometry y="434" width="270" height="20" as="geometry" />
        </mxCell>
        <mxCell id="f6jFOahU2R-Q090BEiEr-61" value="+ getDesc(): String" style="text;strokeColor=none;fillColor=none;align=left;verticalAlign=top;spacingLeft=4;spacingRight=4;overflow=hidden;rotatable=0;points=[[0,0.5],[1,0.5]];portConstraint=eastwest;whiteSpace=wrap;html=1;" vertex="1" parent="f6jFOahU2R-Q090BEiEr-51">
          <mxGeometry y="454" width="270" height="20" as="geometry" />
        </mxCell>
        <mxCell id="f6jFOahU2R-Q090BEiEr-62" value="+ getTimePlaying(): int" style="text;strokeColor=none;fillColor=none;align=left;verticalAlign=top;spacingLeft=4;spacingRight=4;overflow=hidden;rotatable=0;points=[[0,0.5],[1,0.5]];portConstraint=eastwest;whiteSpace=wrap;html=1;" vertex="1" parent="f6jFOahU2R-Q090BEiEr-51">
          <mxGeometry y="474" width="270" height="20" as="geometry" />
        </mxCell>
        <mxCell id="f6jFOahU2R-Q090BEiEr-63" value="+ getFskAge(): int" style="text;strokeColor=none;fillColor=none;align=left;verticalAlign=top;spacingLeft=4;spacingRight=4;overflow=hidden;rotatable=0;points=[[0,0.5],[1,0.5]];portConstraint=eastwest;whiteSpace=wrap;html=1;" vertex="1" parent="f6jFOahU2R-Q090BEiEr-51">
          <mxGeometry y="494" width="270" height="20" as="geometry" />
        </mxCell>
        <mxCell id="f6jFOahU2R-Q090BEiEr-80" value="+ getFilmProvider(): FilmProvider" style="text;strokeColor=none;fillColor=none;align=left;verticalAlign=top;spacingLeft=4;spacingRight=4;overflow=hidden;rotatable=0;points=[[0,0.5],[1,0.5]];portConstraint=eastwest;whiteSpace=wrap;html=1;" vertex="1" parent="f6jFOahU2R-Q090BEiEr-51">
          <mxGeometry y="514" width="270" height="20" as="geometry" />
        </mxCell>
        <mxCell id="f6jFOahU2R-Q090BEiEr-64" value="+ getBasicRentFee(): int" style="text;strokeColor=none;fillColor=none;align=left;verticalAlign=top;spacingLeft=4;spacingRight=4;overflow=hidden;rotatable=0;points=[[0,0.5],[1,0.5]];portConstraint=eastwest;whiteSpace=wrap;html=1;" vertex="1" parent="f6jFOahU2R-Q090BEiEr-51">
          <mxGeometry y="534" width="270" height="16" as="geometry" />
        </mxCell>
        <mxCell id="f6jFOahU2R-Q090BEiEr-81" value="+ getBasicRentFee(week : int): int" style="text;strokeColor=none;fillColor=none;align=left;verticalAlign=top;spacingLeft=4;spacingRight=4;overflow=hidden;rotatable=0;points=[[0,0.5],[1,0.5]];portConstraint=eastwest;whiteSpace=wrap;html=1;" vertex="1" parent="f6jFOahU2R-Q090BEiEr-51">
          <mxGeometry y="550" width="270" height="16" as="geometry" />
        </mxCell>
        <mxCell id="f6jFOahU2R-Q090BEiEr-87" value="+ getRentWeeks() : Streamable&amp;lt;YearWeekEntry&amp;gt;" style="text;strokeColor=none;fillColor=none;align=left;verticalAlign=top;spacingLeft=4;spacingRight=4;overflow=hidden;rotatable=0;points=[[0,0.5],[1,0.5]];portConstraint=eastwest;whiteSpace=wrap;html=1;" vertex="1" parent="f6jFOahU2R-Q090BEiEr-51">
          <mxGeometry y="566" width="270" height="34" as="geometry" />
        </mxCell>
        <mxCell id="f6jFOahU2R-Q090BEiEr-89" value="+ getFirstRentWeek() : Optional&amp;lt;YearWeekEntry&amp;gt;" style="text;strokeColor=none;fillColor=none;align=left;verticalAlign=top;spacingLeft=4;spacingRight=4;overflow=hidden;rotatable=0;points=[[0,0.5],[1,0.5]];portConstraint=eastwest;whiteSpace=wrap;html=1;" vertex="1" parent="f6jFOahU2R-Q090BEiEr-51">
          <mxGeometry y="600" width="270" height="34" as="geometry" />
        </mxCell>
        <mxCell id="f6jFOahU2R-Q090BEiEr-90" value="+ getLastRentWeek() : Optional&amp;lt;YearWeekEntry&amp;gt;" style="text;strokeColor=none;fillColor=none;align=left;verticalAlign=top;spacingLeft=4;spacingRight=4;overflow=hidden;rotatable=0;points=[[0,0.5],[1,0.5]];portConstraint=eastwest;whiteSpace=wrap;html=1;" vertex="1" parent="f6jFOahU2R-Q090BEiEr-51">
          <mxGeometry y="634" width="270" height="34" as="geometry" />
        </mxCell>
        <mxCell id="f6jFOahU2R-Q090BEiEr-91" value="+ isRent(dateTime : LocalDateTime) : boolean" style="text;strokeColor=none;fillColor=none;align=left;verticalAlign=top;spacingLeft=4;spacingRight=4;overflow=hidden;rotatable=0;points=[[0,0.5],[1,0.5]];portConstraint=eastwest;whiteSpace=wrap;html=1;" vertex="1" parent="f6jFOahU2R-Q090BEiEr-51">
          <mxGeometry y="668" width="270" height="22" as="geometry" />
        </mxCell>
        <mxCell id="f6jFOahU2R-Q090BEiEr-94" value="+ isRent(entry : YearWeekEntry) : boolean" style="text;strokeColor=none;fillColor=none;align=left;verticalAlign=top;spacingLeft=4;spacingRight=4;overflow=hidden;rotatable=0;points=[[0,0.5],[1,0.5]];portConstraint=eastwest;whiteSpace=wrap;html=1;" vertex="1" parent="f6jFOahU2R-Q090BEiEr-51">
          <mxGeometry y="690" width="270" height="22" as="geometry" />
        </mxCell>
        <mxCell id="f6jFOahU2R-Q090BEiEr-92" value="+ isRentNow() : boolean" style="text;strokeColor=none;fillColor=none;align=left;verticalAlign=top;spacingLeft=4;spacingRight=4;overflow=hidden;rotatable=0;points=[[0,0.5],[1,0.5]];portConstraint=eastwest;whiteSpace=wrap;html=1;" vertex="1" parent="f6jFOahU2R-Q090BEiEr-51">
          <mxGeometry y="712" width="270" height="22" as="geometry" />
        </mxCell>
        <mxCell id="f6jFOahU2R-Q090BEiEr-93" value="+ getRentWeekCount() : int" style="text;strokeColor=none;fillColor=none;align=left;verticalAlign=top;spacingLeft=4;spacingRight=4;overflow=hidden;rotatable=0;points=[[0,0.5],[1,0.5]];portConstraint=eastwest;whiteSpace=wrap;html=1;" vertex="1" parent="f6jFOahU2R-Q090BEiEr-51">
          <mxGeometry y="734" width="270" height="22" as="geometry" />
        </mxCell>
        <mxCell id="f6jFOahU2R-Q090BEiEr-65" value="+ setBasicRentFee(basicRentFee: int): void" style="text;strokeColor=none;fillColor=none;align=left;verticalAlign=top;spacingLeft=4;spacingRight=4;overflow=hidden;rotatable=0;points=[[0,0.5],[1,0.5]];portConstraint=eastwest;whiteSpace=wrap;html=1;" vertex="1" parent="f6jFOahU2R-Q090BEiEr-51">
          <mxGeometry y="756" width="270" height="20" as="geometry" />
        </mxCell>
        <mxCell id="f6jFOahU2R-Q090BEiEr-84" value="+ addRentWeek(entry : YearWeekEntry): boolean" style="text;strokeColor=none;fillColor=none;align=left;verticalAlign=top;spacingLeft=4;spacingRight=4;overflow=hidden;rotatable=0;points=[[0,0.5],[1,0.5]];portConstraint=eastwest;whiteSpace=wrap;html=1;" vertex="1" parent="f6jFOahU2R-Q090BEiEr-51">
          <mxGeometry y="776" width="270" height="34" as="geometry" />
        </mxCell>
        <mxCell id="f6jFOahU2R-Q090BEiEr-86" value="+ removeRentWeek(entry : YearWeekEntry): boolean" style="text;strokeColor=none;fillColor=none;align=left;verticalAlign=top;spacingLeft=4;spacingRight=4;overflow=hidden;rotatable=0;points=[[0,0.5],[1,0.5]];portConstraint=eastwest;whiteSpace=wrap;html=1;" vertex="1" parent="f6jFOahU2R-Q090BEiEr-51">
          <mxGeometry y="810" width="270" height="34" as="geometry" />
        </mxCell>
        <mxCell id="f6jFOahU2R-Q090BEiEr-96" value="+ getReducedBasicRentFee(week : int) : double&amp;nbsp;" style="text;strokeColor=none;fillColor=none;align=left;verticalAlign=top;spacingLeft=4;spacingRight=4;overflow=hidden;rotatable=0;points=[[0,0.5],[1,0.5]];portConstraint=eastwest;whiteSpace=wrap;html=1;" vertex="1" parent="f6jFOahU2R-Q090BEiEr-51">
          <mxGeometry y="844" width="270" height="26" as="geometry" />
        </mxCell>
        <mxCell id="f6jFOahU2R-Q090BEiEr-95" value="+ setReducedBasicRentFee(weekReduction : double ...)" style="text;strokeColor=none;fillColor=none;align=left;verticalAlign=top;spacingLeft=4;spacingRight=4;overflow=hidden;rotatable=0;points=[[0,0.5],[1,0.5]];portConstraint=eastwest;whiteSpace=wrap;html=1;" vertex="1" parent="f6jFOahU2R-Q090BEiEr-51">
          <mxGeometry y="870" width="270" height="34" as="geometry" />
        </mxCell>
        <mxCell id="f6jFOahU2R-Q090BEiEr-85" value="+ getImageSource(): String" style="text;strokeColor=none;fillColor=none;align=left;verticalAlign=top;spacingLeft=4;spacingRight=4;overflow=hidden;rotatable=0;points=[[0,0.5],[1,0.5]];portConstraint=eastwest;whiteSpace=wrap;html=1;" vertex="1" parent="f6jFOahU2R-Q090BEiEr-51">
          <mxGeometry y="904" width="270" height="20" as="geometry" />
        </mxCell>
        <mxCell id="f6jFOahU2R-Q090BEiEr-99" value="+ getPrice(): Money" style="text;strokeColor=none;fillColor=none;align=left;verticalAlign=top;spacingLeft=4;spacingRight=4;overflow=hidden;rotatable=0;points=[[0,0.5],[1,0.5]];portConstraint=eastwest;whiteSpace=wrap;html=1;" vertex="1" parent="f6jFOahU2R-Q090BEiEr-51">
          <mxGeometry y="924" width="270" height="20" as="geometry" />
        </mxCell>
        <mxCell id="f6jFOahU2R-Q090BEiEr-98" value="+ setPrice(basePrice : Money)" style="text;strokeColor=none;fillColor=none;align=left;verticalAlign=top;spacingLeft=4;spacingRight=4;overflow=hidden;rotatable=0;points=[[0,0.5],[1,0.5]];portConstraint=eastwest;whiteSpace=wrap;html=1;" vertex="1" parent="f6jFOahU2R-Q090BEiEr-51">
          <mxGeometry y="944" width="270" height="20" as="geometry" />
        </mxCell>
        <mxCell id="f6jFOahU2R-Q090BEiEr-100" value="+ isInitialized() : boolean" style="text;strokeColor=none;fillColor=none;align=left;verticalAlign=top;spacingLeft=4;spacingRight=4;overflow=hidden;rotatable=0;points=[[0,0.5],[1,0.5]];portConstraint=eastwest;whiteSpace=wrap;html=1;" vertex="1" parent="f6jFOahU2R-Q090BEiEr-51">
          <mxGeometry y="964" width="270" height="20" as="geometry" />
        </mxCell>
        <mxCell id="f6jFOahU2R-Q090BEiEr-101" value="+ isAvailableAt(dateTime : LocalDateTime) : boolean" style="text;strokeColor=none;fillColor=none;align=left;verticalAlign=top;spacingLeft=4;spacingRight=4;overflow=hidden;rotatable=0;points=[[0,0.5],[1,0.5]];portConstraint=eastwest;whiteSpace=wrap;html=1;" vertex="1" parent="f6jFOahU2R-Q090BEiEr-51">
          <mxGeometry y="984" width="270" height="36" as="geometry" />
        </mxCell>
        <mxCell id="f6jFOahU2R-Q090BEiEr-102" value="+ isAvailableNow() : boolean" style="text;strokeColor=none;fillColor=none;align=left;verticalAlign=top;spacingLeft=4;spacingRight=4;overflow=hidden;rotatable=0;points=[[0,0.5],[1,0.5]];portConstraint=eastwest;whiteSpace=wrap;html=1;" vertex="1" parent="f6jFOahU2R-Q090BEiEr-51">
          <mxGeometry y="1020" width="270" height="20" as="geometry" />
        </mxCell>
        <mxCell id="f6jFOahU2R-Q090BEiEr-66" value="+ hashCode(): int" style="text;strokeColor=none;fillColor=none;align=left;verticalAlign=top;spacingLeft=4;spacingRight=4;overflow=hidden;rotatable=0;points=[[0,0.5],[1,0.5]];portConstraint=eastwest;whiteSpace=wrap;html=1;" vertex="1" parent="f6jFOahU2R-Q090BEiEr-51">
          <mxGeometry y="1040" width="270" height="20" as="geometry" />
        </mxCell>
        <mxCell id="f6jFOahU2R-Q090BEiEr-67" value="+ equals(Object obj): boolean" style="text;strokeColor=none;fillColor=none;align=left;verticalAlign=top;spacingLeft=4;spacingRight=4;overflow=hidden;rotatable=0;points=[[0,0.5],[1,0.5]];portConstraint=eastwest;whiteSpace=wrap;html=1;" vertex="1" parent="f6jFOahU2R-Q090BEiEr-51">
          <mxGeometry y="1060" width="270" height="20" as="geometry" />
        </mxCell>
        <mxCell id="f6jFOahU2R-Q090BEiEr-68" value="+ compareTo(Film o): int" style="text;strokeColor=none;fillColor=none;align=left;verticalAlign=top;spacingLeft=4;spacingRight=4;overflow=hidden;rotatable=0;points=[[0,0.5],[1,0.5]];portConstraint=eastwest;whiteSpace=wrap;html=1;" vertex="1" parent="f6jFOahU2R-Q090BEiEr-51">
          <mxGeometry y="1080" width="270" height="20" as="geometry" />
        </mxCell>
        <mxCell id="f6jFOahU2R-Q090BEiEr-69" value="+ toString(): String" style="text;strokeColor=none;fillColor=none;align=left;verticalAlign=top;spacingLeft=4;spacingRight=4;overflow=hidden;rotatable=0;points=[[0,0.5],[1,0.5]];portConstraint=eastwest;whiteSpace=wrap;html=1;" vertex="1" parent="f6jFOahU2R-Q090BEiEr-51">
          <mxGeometry y="1100" width="270" height="20" as="geometry" />
        </mxCell>
        <mxCell id="f6jFOahU2R-Q090BEiEr-103" value="Seat" style="swimlane;fontStyle=1;align=center;verticalAlign=top;childLayout=stackLayout;horizontal=1;startSize=26;horizontalStack=0;resizeParent=1;resizeParentMax=0;resizeLast=0;collapsible=1;marginBottom=0;whiteSpace=wrap;html=1;" vertex="1" parent="WIyWlLk6GJQsqaUBKTNV-1">
          <mxGeometry x="-500" y="1200" width="270" height="262" as="geometry" />
        </mxCell>
        <mxCell id="f6jFOahU2R-Q090BEiEr-104" value="- id: Long" style="text;strokeColor=none;fillColor=none;align=left;verticalAlign=top;spacingLeft=4;spacingRight=4;overflow=hidden;rotatable=0;points=[[0,0.5],[1,0.5]];portConstraint=eastwest;whiteSpace=wrap;html=1;" vertex="1" parent="f6jFOahU2R-Q090BEiEr-103">
          <mxGeometry y="26" width="270" height="24" as="geometry" />
        </mxCell>
        <mxCell id="f6jFOahU2R-Q090BEiEr-105" value="- row : int" style="text;strokeColor=none;fillColor=none;align=left;verticalAlign=top;spacingLeft=4;spacingRight=4;overflow=hidden;rotatable=0;points=[[0,0.5],[1,0.5]];portConstraint=eastwest;whiteSpace=wrap;html=1;" vertex="1" parent="f6jFOahU2R-Q090BEiEr-103">
          <mxGeometry y="50" width="270" height="20" as="geometry" />
        </mxCell>
        <mxCell id="f6jFOahU2R-Q090BEiEr-106" value="- position : int" style="text;strokeColor=none;fillColor=none;align=left;verticalAlign=top;spacingLeft=4;spacingRight=4;overflow=hidden;rotatable=0;points=[[0,0.5],[1,0.5]];portConstraint=eastwest;whiteSpace=wrap;html=1;" vertex="1" parent="f6jFOahU2R-Q090BEiEr-103">
          <mxGeometry y="70" width="270" height="20" as="geometry" />
        </mxCell>
        <mxCell id="f6jFOahU2R-Q090BEiEr-107" value="" style="line;strokeWidth=1;fillColor=none;align=left;verticalAlign=middle;spacingTop=-1;spacingLeft=3;spacingRight=3;rotatable=0;labelPosition=right;points=[];portConstraint=eastwest;strokeColor=inherit;" vertex="1" parent="f6jFOahU2R-Q090BEiEr-103">
          <mxGeometry y="90" width="270" height="8" as="geometry" />
        </mxCell>
        <mxCell id="f6jFOahU2R-Q090BEiEr-108" value="+ Seat(raw : int, number : int)" style="text;strokeColor=none;fillColor=none;align=left;verticalAlign=top;spacingLeft=4;spacingRight=4;overflow=hidden;rotatable=0;points=[[0,0.5],[1,0.5]];portConstraint=eastwest;whiteSpace=wrap;html=1;" vertex="1" parent="f6jFOahU2R-Q090BEiEr-103">
          <mxGeometry y="98" width="270" height="22" as="geometry" />
        </mxCell>
        <mxCell id="f6jFOahU2R-Q090BEiEr-115" value="+ Seat()" style="text;strokeColor=none;fillColor=none;align=left;verticalAlign=top;spacingLeft=4;spacingRight=4;overflow=hidden;rotatable=0;points=[[0,0.5],[1,0.5]];portConstraint=eastwest;whiteSpace=wrap;html=1;" vertex="1" parent="f6jFOahU2R-Q090BEiEr-103">
          <mxGeometry y="120" width="270" height="22" as="geometry" />
        </mxCell>
        <mxCell id="f6jFOahU2R-Q090BEiEr-109" value="+ getId() : int" style="text;strokeColor=none;fillColor=none;align=left;verticalAlign=top;spacingLeft=4;spacingRight=4;overflow=hidden;rotatable=0;points=[[0,0.5],[1,0.5]];portConstraint=eastwest;whiteSpace=wrap;html=1;" vertex="1" parent="f6jFOahU2R-Q090BEiEr-103">
          <mxGeometry y="142" width="270" height="20" as="geometry" />
        </mxCell>
        <mxCell id="f6jFOahU2R-Q090BEiEr-110" value="+ getRow() : int" style="text;strokeColor=none;fillColor=none;align=left;verticalAlign=top;spacingLeft=4;spacingRight=4;overflow=hidden;rotatable=0;points=[[0,0.5],[1,0.5]];portConstraint=eastwest;whiteSpace=wrap;html=1;" vertex="1" parent="f6jFOahU2R-Q090BEiEr-103">
          <mxGeometry y="162" width="270" height="20" as="geometry" />
        </mxCell>
        <mxCell id="f6jFOahU2R-Q090BEiEr-111" value="+ getPosition() : int" style="text;strokeColor=none;fillColor=none;align=left;verticalAlign=top;spacingLeft=4;spacingRight=4;overflow=hidden;rotatable=0;points=[[0,0.5],[1,0.5]];portConstraint=eastwest;whiteSpace=wrap;html=1;" vertex="1" parent="f6jFOahU2R-Q090BEiEr-103">
          <mxGeometry y="182" width="270" height="20" as="geometry" />
        </mxCell>
        <mxCell id="f6jFOahU2R-Q090BEiEr-112" value="+ hashCode() : int" style="text;strokeColor=none;fillColor=none;align=left;verticalAlign=top;spacingLeft=4;spacingRight=4;overflow=hidden;rotatable=0;points=[[0,0.5],[1,0.5]];portConstraint=eastwest;whiteSpace=wrap;html=1;" vertex="1" parent="f6jFOahU2R-Q090BEiEr-103">
          <mxGeometry y="202" width="270" height="20" as="geometry" />
        </mxCell>
        <mxCell id="f6jFOahU2R-Q090BEiEr-113" value="+ equals(object : Object) : boolean" style="text;strokeColor=none;fillColor=none;align=left;verticalAlign=top;spacingLeft=4;spacingRight=4;overflow=hidden;rotatable=0;points=[[0,0.5],[1,0.5]];portConstraint=eastwest;whiteSpace=wrap;html=1;" vertex="1" parent="f6jFOahU2R-Q090BEiEr-103">
          <mxGeometry y="222" width="270" height="20" as="geometry" />
        </mxCell>
        <mxCell id="f6jFOahU2R-Q090BEiEr-114" value="+ compareTo(Seat s): int" style="text;strokeColor=none;fillColor=none;align=left;verticalAlign=top;spacingLeft=4;spacingRight=4;overflow=hidden;rotatable=0;points=[[0,0.5],[1,0.5]];portConstraint=eastwest;whiteSpace=wrap;html=1;" vertex="1" parent="f6jFOahU2R-Q090BEiEr-103">
          <mxGeometry y="242" width="270" height="20" as="geometry" />
        </mxCell>
        <mxCell id="f6jFOahU2R-Q090BEiEr-116" value="FilmProvider" style="swimlane;fontStyle=1;align=center;verticalAlign=top;childLayout=stackLayout;horizontal=1;startSize=26;horizontalStack=0;resizeParent=1;resizeParentMax=0;resizeLast=0;collapsible=1;marginBottom=0;whiteSpace=wrap;html=1;" vertex="1" parent="WIyWlLk6GJQsqaUBKTNV-1">
          <mxGeometry x="-500" y="1480" width="270" height="182" as="geometry" />
        </mxCell>
        <mxCell id="f6jFOahU2R-Q090BEiEr-117" value="- id: Long" style="text;strokeColor=none;fillColor=none;align=left;verticalAlign=top;spacingLeft=4;spacingRight=4;overflow=hidden;rotatable=0;points=[[0,0.5],[1,0.5]];portConstraint=eastwest;whiteSpace=wrap;html=1;" vertex="1" parent="f6jFOahU2R-Q090BEiEr-116">
          <mxGeometry y="26" width="270" height="24" as="geometry" />
        </mxCell>
        <mxCell id="f6jFOahU2R-Q090BEiEr-118" value="- name : String" style="text;strokeColor=none;fillColor=none;align=left;verticalAlign=top;spacingLeft=4;spacingRight=4;overflow=hidden;rotatable=0;points=[[0,0.5],[1,0.5]];portConstraint=eastwest;whiteSpace=wrap;html=1;" vertex="1" parent="f6jFOahU2R-Q090BEiEr-116">
          <mxGeometry y="50" width="270" height="20" as="geometry" />
        </mxCell>
        <mxCell id="f6jFOahU2R-Q090BEiEr-120" value="" style="line;strokeWidth=1;fillColor=none;align=left;verticalAlign=middle;spacingTop=-1;spacingLeft=3;spacingRight=3;rotatable=0;labelPosition=right;points=[];portConstraint=eastwest;strokeColor=inherit;" vertex="1" parent="f6jFOahU2R-Q090BEiEr-116">
          <mxGeometry y="70" width="270" height="8" as="geometry" />
        </mxCell>
        <mxCell id="f6jFOahU2R-Q090BEiEr-121" value="+ FimProvider(name : String)" style="text;strokeColor=none;fillColor=none;align=left;verticalAlign=top;spacingLeft=4;spacingRight=4;overflow=hidden;rotatable=0;points=[[0,0.5],[1,0.5]];portConstraint=eastwest;whiteSpace=wrap;html=1;" vertex="1" parent="f6jFOahU2R-Q090BEiEr-116">
          <mxGeometry y="78" width="270" height="22" as="geometry" />
        </mxCell>
        <mxCell id="f6jFOahU2R-Q090BEiEr-129" value="+ FimProvider()" style="text;strokeColor=none;fillColor=none;align=left;verticalAlign=top;spacingLeft=4;spacingRight=4;overflow=hidden;rotatable=0;points=[[0,0.5],[1,0.5]];portConstraint=eastwest;whiteSpace=wrap;html=1;" vertex="1" parent="f6jFOahU2R-Q090BEiEr-116">
          <mxGeometry y="100" width="270" height="22" as="geometry" />
        </mxCell>
        <mxCell id="f6jFOahU2R-Q090BEiEr-123" value="+ getName() : String" style="text;strokeColor=none;fillColor=none;align=left;verticalAlign=top;spacingLeft=4;spacingRight=4;overflow=hidden;rotatable=0;points=[[0,0.5],[1,0.5]];portConstraint=eastwest;whiteSpace=wrap;html=1;" vertex="1" parent="f6jFOahU2R-Q090BEiEr-116">
          <mxGeometry y="122" width="270" height="20" as="geometry" />
        </mxCell>
        <mxCell id="f6jFOahU2R-Q090BEiEr-126" value="+ hashCode() : int" style="text;strokeColor=none;fillColor=none;align=left;verticalAlign=top;spacingLeft=4;spacingRight=4;overflow=hidden;rotatable=0;points=[[0,0.5],[1,0.5]];portConstraint=eastwest;whiteSpace=wrap;html=1;" vertex="1" parent="f6jFOahU2R-Q090BEiEr-116">
          <mxGeometry y="142" width="270" height="20" as="geometry" />
        </mxCell>
        <mxCell id="f6jFOahU2R-Q090BEiEr-127" value="+ equals(object : Object) : boolean" style="text;strokeColor=none;fillColor=none;align=left;verticalAlign=top;spacingLeft=4;spacingRight=4;overflow=hidden;rotatable=0;points=[[0,0.5],[1,0.5]];portConstraint=eastwest;whiteSpace=wrap;html=1;" vertex="1" parent="f6jFOahU2R-Q090BEiEr-116">
          <mxGeometry y="162" width="270" height="20" as="geometry" />
        </mxCell>
        <mxCell id="f6jFOahU2R-Q090BEiEr-130" value="SeatOccupancy" style="swimlane;fontStyle=1;align=center;verticalAlign=top;childLayout=stackLayout;horizontal=1;startSize=26;horizontalStack=0;resizeParent=1;resizeParentMax=0;resizeLast=0;collapsible=1;marginBottom=0;whiteSpace=wrap;html=1;" vertex="1" parent="WIyWlLk6GJQsqaUBKTNV-1">
          <mxGeometry x="-500" y="1676" width="200" height="98" as="geometry" />
        </mxCell>
        <mxCell id="f6jFOahU2R-Q090BEiEr-131" value="BOUGHT" style="text;strokeColor=none;fillColor=none;align=left;verticalAlign=top;spacingLeft=4;spacingRight=4;overflow=hidden;rotatable=0;points=[[0,0.5],[1,0.5]];portConstraint=eastwest;whiteSpace=wrap;html=1;" vertex="1" parent="f6jFOahU2R-Q090BEiEr-130">
          <mxGeometry y="26" width="200" height="24" as="geometry" />
        </mxCell>
        <mxCell id="f6jFOahU2R-Q090BEiEr-132" value="RESERVED" style="text;strokeColor=none;fillColor=none;align=left;verticalAlign=top;spacingLeft=4;spacingRight=4;overflow=hidden;rotatable=0;points=[[0,0.5],[1,0.5]];portConstraint=eastwest;whiteSpace=wrap;html=1;" vertex="1" parent="f6jFOahU2R-Q090BEiEr-130">
          <mxGeometry y="50" width="200" height="20" as="geometry" />
        </mxCell>
        <mxCell id="f6jFOahU2R-Q090BEiEr-133" value="FREE" style="text;strokeColor=none;fillColor=none;align=left;verticalAlign=top;spacingLeft=4;spacingRight=4;overflow=hidden;rotatable=0;points=[[0,0.5],[1,0.5]];portConstraint=eastwest;whiteSpace=wrap;html=1;" vertex="1" parent="f6jFOahU2R-Q090BEiEr-130">
          <mxGeometry y="70" width="200" height="20" as="geometry" />
        </mxCell>
        <mxCell id="f6jFOahU2R-Q090BEiEr-134" value="" style="line;strokeWidth=1;fillColor=none;align=left;verticalAlign=middle;spacingTop=-1;spacingLeft=3;spacingRight=3;rotatable=0;labelPosition=right;points=[];portConstraint=eastwest;strokeColor=inherit;" vertex="1" parent="f6jFOahU2R-Q090BEiEr-130">
          <mxGeometry y="90" width="200" height="8" as="geometry" />
        </mxCell>
        <mxCell id="f6jFOahU2R-Q090BEiEr-135" value="PlaceGroup" style="swimlane;fontStyle=1;align=center;verticalAlign=top;childLayout=stackLayout;horizontal=1;startSize=26;horizontalStack=0;resizeParent=1;resizeParentMax=0;resizeLast=0;collapsible=1;marginBottom=0;whiteSpace=wrap;html=1;" vertex="1" parent="WIyWlLk6GJQsqaUBKTNV-1">
          <mxGeometry x="-500" y="1790" width="200" height="98" as="geometry" />
        </mxCell>
        <mxCell id="f6jFOahU2R-Q090BEiEr-136" value="GROUP_1" style="text;strokeColor=none;fillColor=none;align=left;verticalAlign=top;spacingLeft=4;spacingRight=4;overflow=hidden;rotatable=0;points=[[0,0.5],[1,0.5]];portConstraint=eastwest;whiteSpace=wrap;html=1;" vertex="1" parent="f6jFOahU2R-Q090BEiEr-135">
          <mxGeometry y="26" width="200" height="24" as="geometry" />
        </mxCell>
        <mxCell id="f6jFOahU2R-Q090BEiEr-137" value="GROUP_2" style="text;strokeColor=none;fillColor=none;align=left;verticalAlign=top;spacingLeft=4;spacingRight=4;overflow=hidden;rotatable=0;points=[[0,0.5],[1,0.5]];portConstraint=eastwest;whiteSpace=wrap;html=1;" vertex="1" parent="f6jFOahU2R-Q090BEiEr-135">
          <mxGeometry y="50" width="200" height="20" as="geometry" />
        </mxCell>
        <mxCell id="f6jFOahU2R-Q090BEiEr-138" value="GROUP_3" style="text;strokeColor=none;fillColor=none;align=left;verticalAlign=top;spacingLeft=4;spacingRight=4;overflow=hidden;rotatable=0;points=[[0,0.5],[1,0.5]];portConstraint=eastwest;whiteSpace=wrap;html=1;" vertex="1" parent="f6jFOahU2R-Q090BEiEr-135">
          <mxGeometry y="70" width="200" height="20" as="geometry" />
        </mxCell>
        <mxCell id="f6jFOahU2R-Q090BEiEr-139" value="" style="line;strokeWidth=1;fillColor=none;align=left;verticalAlign=middle;spacingTop=-1;spacingLeft=3;spacingRight=3;rotatable=0;labelPosition=right;points=[];portConstraint=eastwest;strokeColor=inherit;" vertex="1" parent="f6jFOahU2R-Q090BEiEr-135">
          <mxGeometry y="90" width="200" height="8" as="geometry" />
        </mxCell>
        <mxCell id="f6jFOahU2R-Q090BEiEr-140" value="Snacks" style="swimlane;fontStyle=1;align=center;verticalAlign=top;childLayout=stackLayout;horizontal=1;startSize=26;horizontalStack=0;resizeParent=1;resizeParentMax=0;resizeLast=0;collapsible=1;marginBottom=0;whiteSpace=wrap;html=1;" vertex="1" parent="WIyWlLk6GJQsqaUBKTNV-1">
          <mxGeometry x="-800" y="1930" width="270" height="280" as="geometry" />
        </mxCell>
        <mxCell id="f6jFOahU2R-Q090BEiEr-142" value="- imageData : byte[]" style="text;strokeColor=none;fillColor=none;align=left;verticalAlign=top;spacingLeft=4;spacingRight=4;overflow=hidden;rotatable=0;points=[[0,0.5],[1,0.5]];portConstraint=eastwest;whiteSpace=wrap;html=1;" vertex="1" parent="f6jFOahU2R-Q090BEiEr-140">
          <mxGeometry y="26" width="270" height="20" as="geometry" />
        </mxCell>
        <mxCell id="f6jFOahU2R-Q090BEiEr-143" value="" style="line;strokeWidth=1;fillColor=none;align=left;verticalAlign=middle;spacingTop=-1;spacingLeft=3;spacingRight=3;rotatable=0;labelPosition=right;points=[];portConstraint=eastwest;strokeColor=inherit;" vertex="1" parent="f6jFOahU2R-Q090BEiEr-140">
          <mxGeometry y="46" width="270" height="8" as="geometry" />
        </mxCell>
        <mxCell id="f6jFOahU2R-Q090BEiEr-144" value="+ Snacks(name : String, price : MonetaryAmount)" style="text;strokeColor=none;fillColor=none;align=left;verticalAlign=top;spacingLeft=4;spacingRight=4;overflow=hidden;rotatable=0;points=[[0,0.5],[1,0.5]];portConstraint=eastwest;whiteSpace=wrap;html=1;" vertex="1" parent="f6jFOahU2R-Q090BEiEr-140">
          <mxGeometry y="54" width="270" height="36" as="geometry" />
        </mxCell>
        <mxCell id="f6jFOahU2R-Q090BEiEr-154" value="+ Snacks(name : String, price : MonetaryAmount, type : SnackType)" style="text;strokeColor=none;fillColor=none;align=left;verticalAlign=top;spacingLeft=4;spacingRight=4;overflow=hidden;rotatable=0;points=[[0,0.5],[1,0.5]];portConstraint=eastwest;whiteSpace=wrap;html=1;" vertex="1" parent="f6jFOahU2R-Q090BEiEr-140">
          <mxGeometry y="90" width="270" height="36" as="geometry" />
        </mxCell>
        <mxCell id="f6jFOahU2R-Q090BEiEr-155" value="+ Snacks(name : String, price : MonetaryAmount, type : SnackType, imageDate : byte[])" style="text;strokeColor=none;fillColor=none;align=left;verticalAlign=top;spacingLeft=4;spacingRight=4;overflow=hidden;rotatable=0;points=[[0,0.5],[1,0.5]];portConstraint=eastwest;whiteSpace=wrap;html=1;" vertex="1" parent="f6jFOahU2R-Q090BEiEr-140">
          <mxGeometry y="126" width="270" height="54" as="geometry" />
        </mxCell>
        <mxCell id="f6jFOahU2R-Q090BEiEr-156" value="+ getSnackType() : String" style="text;strokeColor=none;fillColor=none;align=left;verticalAlign=top;spacingLeft=4;spacingRight=4;overflow=hidden;rotatable=0;points=[[0,0.5],[1,0.5]];portConstraint=eastwest;whiteSpace=wrap;html=1;" vertex="1" parent="f6jFOahU2R-Q090BEiEr-140">
          <mxGeometry y="180" width="270" height="20" as="geometry" />
        </mxCell>
        <mxCell id="f6jFOahU2R-Q090BEiEr-146" value="+ getPrice() : Money" style="text;strokeColor=none;fillColor=none;align=left;verticalAlign=top;spacingLeft=4;spacingRight=4;overflow=hidden;rotatable=0;points=[[0,0.5],[1,0.5]];portConstraint=eastwest;whiteSpace=wrap;html=1;" vertex="1" parent="f6jFOahU2R-Q090BEiEr-140">
          <mxGeometry y="200" width="270" height="20" as="geometry" />
        </mxCell>
        <mxCell id="f6jFOahU2R-Q090BEiEr-147" value="+ setPrice(newPrice : Money)" style="text;strokeColor=none;fillColor=none;align=left;verticalAlign=top;spacingLeft=4;spacingRight=4;overflow=hidden;rotatable=0;points=[[0,0.5],[1,0.5]];portConstraint=eastwest;whiteSpace=wrap;html=1;" vertex="1" parent="f6jFOahU2R-Q090BEiEr-140">
          <mxGeometry y="220" width="270" height="20" as="geometry" />
        </mxCell>
        <mxCell id="f6jFOahU2R-Q090BEiEr-148" value="+ isInitialized() : boolean" style="text;strokeColor=none;fillColor=none;align=left;verticalAlign=top;spacingLeft=4;spacingRight=4;overflow=hidden;rotatable=0;points=[[0,0.5],[1,0.5]];portConstraint=eastwest;whiteSpace=wrap;html=1;" vertex="1" parent="f6jFOahU2R-Q090BEiEr-140">
          <mxGeometry y="240" width="270" height="20" as="geometry" />
        </mxCell>
        <mxCell id="f6jFOahU2R-Q090BEiEr-157" value="+ getImageBase64() : String" style="text;strokeColor=none;fillColor=none;align=left;verticalAlign=top;spacingLeft=4;spacingRight=4;overflow=hidden;rotatable=0;points=[[0,0.5],[1,0.5]];portConstraint=eastwest;whiteSpace=wrap;html=1;" vertex="1" parent="f6jFOahU2R-Q090BEiEr-140">
          <mxGeometry y="260" width="270" height="20" as="geometry" />
        </mxCell>
        <mxCell id="f6jFOahU2R-Q090BEiEr-149" value="SnackType" style="swimlane;fontStyle=1;align=center;verticalAlign=top;childLayout=stackLayout;horizontal=1;startSize=26;horizontalStack=0;resizeParent=1;resizeParentMax=0;resizeLast=0;collapsible=1;marginBottom=0;whiteSpace=wrap;html=1;" vertex="1" parent="WIyWlLk6GJQsqaUBKTNV-1">
          <mxGeometry x="-500" y="1910" width="200" height="78" as="geometry" />
        </mxCell>
        <mxCell id="f6jFOahU2R-Q090BEiEr-150" value="Getränk" style="text;strokeColor=none;fillColor=none;align=left;verticalAlign=top;spacingLeft=4;spacingRight=4;overflow=hidden;rotatable=0;points=[[0,0.5],[1,0.5]];portConstraint=eastwest;whiteSpace=wrap;html=1;" vertex="1" parent="f6jFOahU2R-Q090BEiEr-149">
          <mxGeometry y="26" width="200" height="24" as="geometry" />
        </mxCell>
        <mxCell id="f6jFOahU2R-Q090BEiEr-151" value="Essen" style="text;strokeColor=none;fillColor=none;align=left;verticalAlign=top;spacingLeft=4;spacingRight=4;overflow=hidden;rotatable=0;points=[[0,0.5],[1,0.5]];portConstraint=eastwest;whiteSpace=wrap;html=1;" vertex="1" parent="f6jFOahU2R-Q090BEiEr-149">
          <mxGeometry y="50" width="200" height="20" as="geometry" />
        </mxCell>
        <mxCell id="f6jFOahU2R-Q090BEiEr-153" value="" style="line;strokeWidth=1;fillColor=none;align=left;verticalAlign=middle;spacingTop=-1;spacingLeft=3;spacingRight=3;rotatable=0;labelPosition=right;points=[];portConstraint=eastwest;strokeColor=inherit;" vertex="1" parent="f6jFOahU2R-Q090BEiEr-149">
          <mxGeometry y="70" width="200" height="8" as="geometry" />
        </mxCell>
        <mxCell id="f6jFOahU2R-Q090BEiEr-163" value="ViewProgramController" style="swimlane;fontStyle=1;align=center;verticalAlign=top;childLayout=stackLayout;horizontal=1;startSize=26;horizontalStack=0;resizeParent=1;resizeParentMax=0;resizeLast=0;collapsible=1;marginBottom=0;whiteSpace=wrap;html=1;" vertex="1" parent="WIyWlLk6GJQsqaUBKTNV-1">
          <mxGeometry x="-1260" y="125" width="340" height="480" as="geometry" />
        </mxCell>
        <mxCell id="f6jFOahU2R-Q090BEiEr-164" value="- cinemaShowRepository : CinemaShowRepository" style="text;strokeColor=none;fillColor=none;align=left;verticalAlign=top;spacingLeft=4;spacingRight=4;overflow=hidden;rotatable=0;points=[[0,0.5],[1,0.5]];portConstraint=eastwest;whiteSpace=wrap;html=1;" vertex="1" parent="f6jFOahU2R-Q090BEiEr-163">
          <mxGeometry y="26" width="340" height="24" as="geometry" />
        </mxCell>
        <mxCell id="f6jFOahU2R-Q090BEiEr-165" value="- cinemaShowService : CinemaShowService" style="text;strokeColor=none;fillColor=none;align=left;verticalAlign=top;spacingLeft=4;spacingRight=4;overflow=hidden;rotatable=0;points=[[0,0.5],[1,0.5]];portConstraint=eastwest;whiteSpace=wrap;html=1;" vertex="1" parent="f6jFOahU2R-Q090BEiEr-163">
          <mxGeometry y="50" width="340" height="20" as="geometry" />
        </mxCell>
        <mxCell id="f6jFOahU2R-Q090BEiEr-176" value="- cinemaHallRepository : CinemaHallRepository" style="text;strokeColor=none;fillColor=none;align=left;verticalAlign=top;spacingLeft=4;spacingRight=4;overflow=hidden;rotatable=0;points=[[0,0.5],[1,0.5]];portConstraint=eastwest;whiteSpace=wrap;html=1;" vertex="1" parent="f6jFOahU2R-Q090BEiEr-163">
          <mxGeometry y="70" width="340" height="20" as="geometry" />
        </mxCell>
        <mxCell id="f6jFOahU2R-Q090BEiEr-166" value="- filmRepository : FilmRepository" style="text;strokeColor=none;fillColor=none;align=left;verticalAlign=top;spacingLeft=4;spacingRight=4;overflow=hidden;rotatable=0;points=[[0,0.5],[1,0.5]];portConstraint=eastwest;whiteSpace=wrap;html=1;" vertex="1" parent="f6jFOahU2R-Q090BEiEr-163">
          <mxGeometry y="90" width="340" height="20" as="geometry" />
        </mxCell>
        <mxCell id="f6jFOahU2R-Q090BEiEr-178" value="- scheduledActivityService : ScheduledActivityService" style="text;strokeColor=none;fillColor=none;align=left;verticalAlign=top;spacingLeft=4;spacingRight=4;overflow=hidden;rotatable=0;points=[[0,0.5],[1,0.5]];portConstraint=eastwest;whiteSpace=wrap;html=1;" vertex="1" parent="f6jFOahU2R-Q090BEiEr-163">
          <mxGeometry y="110" width="340" height="20" as="geometry" />
        </mxCell>
        <mxCell id="f6jFOahU2R-Q090BEiEr-177" value="- deleteReservationController : DeleteReservationController" style="text;strokeColor=none;fillColor=none;align=left;verticalAlign=top;spacingLeft=4;spacingRight=4;overflow=hidden;rotatable=0;points=[[0,0.5],[1,0.5]];portConstraint=eastwest;whiteSpace=wrap;html=1;" vertex="1" parent="f6jFOahU2R-Q090BEiEr-163">
          <mxGeometry y="130" width="340" height="20" as="geometry" />
        </mxCell>
        <mxCell id="f6jFOahU2R-Q090BEiEr-179" value="- reservationRepository : ReservationRepository" style="text;strokeColor=none;fillColor=none;align=left;verticalAlign=top;spacingLeft=4;spacingRight=4;overflow=hidden;rotatable=0;points=[[0,0.5],[1,0.5]];portConstraint=eastwest;whiteSpace=wrap;html=1;" vertex="1" parent="f6jFOahU2R-Q090BEiEr-163">
          <mxGeometry y="150" width="340" height="20" as="geometry" />
        </mxCell>
        <mxCell id="f6jFOahU2R-Q090BEiEr-167" value="" style="line;strokeWidth=1;fillColor=none;align=left;verticalAlign=middle;spacingTop=-1;spacingLeft=3;spacingRight=3;rotatable=0;labelPosition=right;points=[];portConstraint=eastwest;strokeColor=inherit;" vertex="1" parent="f6jFOahU2R-Q090BEiEr-163">
          <mxGeometry y="170" width="340" height="8" as="geometry" />
        </mxCell>
        <mxCell id="f6jFOahU2R-Q090BEiEr-169" value="&lt;span style=&quot;text-wrap: nowrap;&quot;&gt;+ ViewProgramController(&lt;/span&gt;&lt;div style=&quot;text-wrap: nowrap;&quot;&gt;cinemaShowRepository : CinemaShowRepository,&amp;nbsp;&lt;/div&gt;&lt;div style=&quot;text-wrap: nowrap;&quot;&gt;cinemaShowService : CinemaShowService&lt;/div&gt;&lt;div style=&quot;text-wrap: nowrap;&quot;&gt;cinemaHallRepository : CinemaHallRepository,&lt;/div&gt;&lt;div style=&quot;text-wrap: nowrap;&quot;&gt;filmRepository : FilmRepository,&lt;/div&gt;&lt;div style=&quot;text-wrap: nowrap;&quot;&gt;&lt;span style=&quot;background-color: initial; text-wrap: wrap;&quot;&gt;scheduledActivityService : ScheduledActivityService&lt;/span&gt;)&lt;/div&gt;" style="text;strokeColor=none;fillColor=none;align=left;verticalAlign=top;spacingLeft=4;spacingRight=4;overflow=hidden;rotatable=0;points=[[0,0.5],[1,0.5]];portConstraint=eastwest;whiteSpace=wrap;html=1;" vertex="1" parent="f6jFOahU2R-Q090BEiEr-163">
          <mxGeometry y="178" width="340" height="92" as="geometry" />
        </mxCell>
        <mxCell id="f6jFOahU2R-Q090BEiEr-170" value="+ getCurrentWeekProgram(m : Model) : String" style="text;strokeColor=none;fillColor=none;align=left;verticalAlign=top;spacingLeft=4;spacingRight=4;overflow=hidden;rotatable=0;points=[[0,0.5],[1,0.5]];portConstraint=eastwest;whiteSpace=wrap;html=1;" vertex="1" parent="f6jFOahU2R-Q090BEiEr-163">
          <mxGeometry y="270" width="340" height="20" as="geometry" />
        </mxCell>
        <mxCell id="f6jFOahU2R-Q090BEiEr-171" value="&lt;span style=&quot;text-wrap: nowrap;&quot;&gt;+ getCurrentProgram(year : int,&amp;nbsp;&lt;/span&gt;&lt;div style=&quot;text-wrap: nowrap;&quot;&gt;week : int, m : Model) : String&lt;/div&gt;" style="text;strokeColor=none;fillColor=none;align=left;verticalAlign=top;spacingLeft=4;spacingRight=4;overflow=hidden;rotatable=0;points=[[0,0.5],[1,0.5]];portConstraint=eastwest;whiteSpace=wrap;html=1;" vertex="1" parent="f6jFOahU2R-Q090BEiEr-163">
          <mxGeometry y="290" width="340" height="40" as="geometry" />
        </mxCell>
        <mxCell id="f6jFOahU2R-Q090BEiEr-172" value="&lt;span style=&quot;text-wrap: nowrap;&quot;&gt;+ postNewProgram(redirectAttributes : RedirectAttributes,&lt;/span&gt;&lt;div&gt;&lt;span style=&quot;text-wrap: nowrap;&quot;&gt;&amp;nbsp;year : int, week : int,&amp;nbsp;&lt;/span&gt;&lt;span style=&quot;text-wrap: nowrap; background-color: initial;&quot;&gt;film : Long,&lt;/span&gt;&lt;div style=&quot;text-wrap: nowrap;&quot;&gt;&lt;span style=&quot;background-color: initial;&quot;&gt;&amp;nbsp;room : Long, addTime : LocalDateTime) : String&lt;/span&gt;&lt;/div&gt;&lt;/div&gt;" style="text;strokeColor=none;fillColor=none;align=left;verticalAlign=top;spacingLeft=4;spacingRight=4;overflow=hidden;rotatable=0;points=[[0,0.5],[1,0.5]];portConstraint=eastwest;whiteSpace=wrap;html=1;" vertex="1" parent="f6jFOahU2R-Q090BEiEr-163">
          <mxGeometry y="330" width="340" height="50" as="geometry" />
        </mxCell>
        <mxCell id="f6jFOahU2R-Q090BEiEr-173" value="+ detailCinemaShow(id : Long, m : Model) : String" style="text;strokeColor=none;fillColor=none;align=left;verticalAlign=top;spacingLeft=4;spacingRight=4;overflow=hidden;rotatable=0;points=[[0,0.5],[1,0.5]];portConstraint=eastwest;whiteSpace=wrap;html=1;" vertex="1" parent="f6jFOahU2R-Q090BEiEr-163">
          <mxGeometry y="380" width="340" height="20" as="geometry" />
        </mxCell>
        <mxCell id="f6jFOahU2R-Q090BEiEr-182" value="+ editCinemaShow(&lt;span style=&quot;text-wrap: nowrap;&quot;&gt;redirectAttributes : RedirectAttributes,&lt;/span&gt;&lt;div&gt;id : Long, film : Long, editTime : LocalDateTime) : String&lt;/div&gt;" style="text;strokeColor=none;fillColor=none;align=left;verticalAlign=top;spacingLeft=4;spacingRight=4;overflow=hidden;rotatable=0;points=[[0,0.5],[1,0.5]];portConstraint=eastwest;whiteSpace=wrap;html=1;" vertex="1" parent="f6jFOahU2R-Q090BEiEr-163">
          <mxGeometry y="400" width="340" height="40" as="geometry" />
        </mxCell>
        <mxCell id="f6jFOahU2R-Q090BEiEr-174" value="+ deleteCinemaShow(&lt;span style=&quot;text-wrap: nowrap;&quot;&gt;redirectAttributes : RedirectAttributes,&lt;/span&gt;&lt;div&gt;id : Long) : String&lt;/div&gt;" style="text;strokeColor=none;fillColor=none;align=left;verticalAlign=top;spacingLeft=4;spacingRight=4;overflow=hidden;rotatable=0;points=[[0,0.5],[1,0.5]];portConstraint=eastwest;whiteSpace=wrap;html=1;" vertex="1" parent="f6jFOahU2R-Q090BEiEr-163">
          <mxGeometry y="440" width="340" height="40" as="geometry" />
        </mxCell>
        <mxCell id="f6jFOahU2R-Q090BEiEr-189" value="ViewProgramController.CinemaShowDayEntry" style="swimlane;fontStyle=1;align=center;verticalAlign=top;childLayout=stackLayout;horizontal=1;startSize=26;horizontalStack=0;resizeParent=1;resizeParentMax=0;resizeLast=0;collapsible=1;marginBottom=0;whiteSpace=wrap;html=1;" vertex="1" parent="WIyWlLk6GJQsqaUBKTNV-1">
          <mxGeometry x="-1260" y="640" width="340" height="140" as="geometry" />
        </mxCell>
        <mxCell id="f6jFOahU2R-Q090BEiEr-195" value="- dayDateHeadline : String" style="text;strokeColor=none;fillColor=none;align=left;verticalAlign=top;spacingLeft=4;spacingRight=4;overflow=hidden;rotatable=0;points=[[0,0.5],[1,0.5]];portConstraint=eastwest;whiteSpace=wrap;html=1;" vertex="1" parent="f6jFOahU2R-Q090BEiEr-189">
          <mxGeometry y="26" width="340" height="20" as="geometry" />
        </mxCell>
        <mxCell id="f6jFOahU2R-Q090BEiEr-197" value="" style="line;strokeWidth=1;fillColor=none;align=left;verticalAlign=middle;spacingTop=-1;spacingLeft=3;spacingRight=3;rotatable=0;labelPosition=right;points=[];portConstraint=eastwest;strokeColor=inherit;" vertex="1" parent="f6jFOahU2R-Q090BEiEr-189">
          <mxGeometry y="46" width="340" height="8" as="geometry" />
        </mxCell>
        <mxCell id="f6jFOahU2R-Q090BEiEr-198" value="&lt;span style=&quot;text-wrap: nowrap;&quot;&gt;+ CinemaShowDayEntry(dayDate : LocalDate,&lt;/span&gt;&lt;div&gt;&lt;span style=&quot;text-wrap: nowrap;&quot;&gt;&amp;nbsp;cinemaShows : Streamable&amp;lt;CinemaShow&amp;gt;)&lt;/span&gt;&lt;/div&gt;" style="text;strokeColor=none;fillColor=none;align=left;verticalAlign=top;spacingLeft=4;spacingRight=4;overflow=hidden;rotatable=0;points=[[0,0.5],[1,0.5]];portConstraint=eastwest;whiteSpace=wrap;html=1;" vertex="1" parent="f6jFOahU2R-Q090BEiEr-189">
          <mxGeometry y="54" width="340" height="36" as="geometry" />
        </mxCell>
        <mxCell id="f6jFOahU2R-Q090BEiEr-199" value="&lt;span style=&quot;text-wrap: nowrap;&quot;&gt;+ getCinemaShows() : Streamable&amp;lt;CinemaShow&amp;gt;&lt;/span&gt;" style="text;strokeColor=none;fillColor=none;align=left;verticalAlign=top;spacingLeft=4;spacingRight=4;overflow=hidden;rotatable=0;points=[[0,0.5],[1,0.5]];portConstraint=eastwest;whiteSpace=wrap;html=1;" vertex="1" parent="f6jFOahU2R-Q090BEiEr-189">
          <mxGeometry y="90" width="340" height="20" as="geometry" />
        </mxCell>
        <mxCell id="f6jFOahU2R-Q090BEiEr-200" value="&lt;span style=&quot;text-wrap: nowrap;&quot;&gt;+ getDayDateHeadline() : String&lt;/span&gt;" style="text;strokeColor=none;fillColor=none;align=left;verticalAlign=top;spacingLeft=4;spacingRight=4;overflow=hidden;rotatable=0;points=[[0,0.5],[1,0.5]];portConstraint=eastwest;whiteSpace=wrap;html=1;" vertex="1" parent="f6jFOahU2R-Q090BEiEr-189">
          <mxGeometry y="110" width="340" height="30" as="geometry" />
        </mxCell>
        <mxCell id="f6jFOahU2R-Q090BEiEr-205" value="RentFilmController" style="swimlane;fontStyle=1;align=center;verticalAlign=top;childLayout=stackLayout;horizontal=1;startSize=26;horizontalStack=0;resizeParent=1;resizeParentMax=0;resizeLast=0;collapsible=1;marginBottom=0;whiteSpace=wrap;html=1;" vertex="1" parent="WIyWlLk6GJQsqaUBKTNV-1">
          <mxGeometry x="-1260" y="800" width="340" height="440" as="geometry" />
        </mxCell>
        <mxCell id="f6jFOahU2R-Q090BEiEr-206" value="- cinemaShowRepository : CinemaShowRepository" style="text;strokeColor=none;fillColor=none;align=left;verticalAlign=top;spacingLeft=4;spacingRight=4;overflow=hidden;rotatable=0;points=[[0,0.5],[1,0.5]];portConstraint=eastwest;whiteSpace=wrap;html=1;" vertex="1" parent="f6jFOahU2R-Q090BEiEr-205">
          <mxGeometry y="26" width="340" height="24" as="geometry" />
        </mxCell>
        <mxCell id="f6jFOahU2R-Q090BEiEr-209" value="- filmRepository : FilmRepository" style="text;strokeColor=none;fillColor=none;align=left;verticalAlign=top;spacingLeft=4;spacingRight=4;overflow=hidden;rotatable=0;points=[[0,0.5],[1,0.5]];portConstraint=eastwest;whiteSpace=wrap;html=1;" vertex="1" parent="f6jFOahU2R-Q090BEiEr-205">
          <mxGeometry y="50" width="340" height="20" as="geometry" />
        </mxCell>
        <mxCell id="f6jFOahU2R-Q090BEiEr-213" value="" style="line;strokeWidth=1;fillColor=none;align=left;verticalAlign=middle;spacingTop=-1;spacingLeft=3;spacingRight=3;rotatable=0;labelPosition=right;points=[];portConstraint=eastwest;strokeColor=inherit;" vertex="1" parent="f6jFOahU2R-Q090BEiEr-205">
          <mxGeometry y="70" width="340" height="8" as="geometry" />
        </mxCell>
        <mxCell id="f6jFOahU2R-Q090BEiEr-214" value="&lt;span style=&quot;text-wrap: nowrap;&quot;&gt;+ RentFilmController(&lt;/span&gt;&lt;div&gt;&lt;span style=&quot;text-wrap: nowrap;&quot;&gt;filmRepository : FilmRepository&lt;/span&gt;&lt;span style=&quot;text-wrap: nowrap;&quot;&gt;&lt;br&gt;&lt;/span&gt;&lt;div style=&quot;text-wrap: nowrap;&quot;&gt;cinemaShowRepository : CinemaShowRepository&lt;span style=&quot;background-color: initial;&quot;&gt;)&lt;/span&gt;&lt;/div&gt;&lt;/div&gt;" style="text;strokeColor=none;fillColor=none;align=left;verticalAlign=top;spacingLeft=4;spacingRight=4;overflow=hidden;rotatable=0;points=[[0,0.5],[1,0.5]];portConstraint=eastwest;whiteSpace=wrap;html=1;" vertex="1" parent="f6jFOahU2R-Q090BEiEr-205">
          <mxGeometry y="78" width="340" height="52" as="geometry" />
        </mxCell>
        <mxCell id="f6jFOahU2R-Q090BEiEr-215" value="+ getRentFilms(model : Model) : String" style="text;strokeColor=none;fillColor=none;align=left;verticalAlign=top;spacingLeft=4;spacingRight=4;overflow=hidden;rotatable=0;points=[[0,0.5],[1,0.5]];portConstraint=eastwest;whiteSpace=wrap;html=1;" vertex="1" parent="f6jFOahU2R-Q090BEiEr-205">
          <mxGeometry y="130" width="340" height="20" as="geometry" />
        </mxCell>
        <mxCell id="f6jFOahU2R-Q090BEiEr-216" value="&lt;span style=&quot;text-wrap: nowrap;&quot;&gt;+ getRentFilm(model : Model, film : Film) : String&lt;/span&gt;" style="text;strokeColor=none;fillColor=none;align=left;verticalAlign=top;spacingLeft=4;spacingRight=4;overflow=hidden;rotatable=0;points=[[0,0.5],[1,0.5]];portConstraint=eastwest;whiteSpace=wrap;html=1;" vertex="1" parent="f6jFOahU2R-Q090BEiEr-205">
          <mxGeometry y="150" width="340" height="20" as="geometry" />
        </mxCell>
        <mxCell id="f6jFOahU2R-Q090BEiEr-217" value="&lt;span style=&quot;text-wrap: nowrap;&quot;&gt;+ postRentFilm(&lt;/span&gt;&lt;span style=&quot;text-wrap: nowrap;&quot;&gt;redirectAttributes : RedirectAttributes,&lt;/span&gt;&lt;div&gt;&lt;span style=&quot;text-wrap: nowrap;&quot;&gt;newSelectedRentWeeks : List&amp;lt;Long&amp;gt;,&amp;nbsp;&lt;/span&gt;&lt;/div&gt;&lt;div&gt;&lt;span style=&quot;text-wrap: nowrap;&quot;&gt;newDisabledCheckedRentWeeks : List&amp;lt;Long&amp;gt;)&lt;/span&gt;&lt;/div&gt;" style="text;strokeColor=none;fillColor=none;align=left;verticalAlign=top;spacingLeft=4;spacingRight=4;overflow=hidden;rotatable=0;points=[[0,0.5],[1,0.5]];portConstraint=eastwest;whiteSpace=wrap;html=1;" vertex="1" parent="f6jFOahU2R-Q090BEiEr-205">
          <mxGeometry y="170" width="340" height="50" as="geometry" />
        </mxCell>
        <mxCell id="f6jFOahU2R-Q090BEiEr-218" value="+ addDetailNowAndPastWeeks(f&lt;span style=&quot;background-color: initial;&quot;&gt;ilm : Film,&amp;nbsp;&lt;/span&gt;allRangeYearWeeks :&amp;nbsp;&lt;span style=&quot;background-color: initial;&quot;&gt;List&amp;lt;YearWeekEntry&amp;gt;,&amp;nbsp;&lt;/span&gt;reservedWeeks :&amp;nbsp;&lt;span style=&quot;background-color: initial;&quot;&gt;HashMap&amp;lt;YearWeekEntry, Integer[]&amp;gt; ,&lt;/span&gt;&lt;span style=&quot;background-color: initial;&quot;&gt;&lt;br&gt;&lt;/span&gt;nowAndPastWeeks :&amp;nbsp;&lt;span style=&quot;white-space: normal;&quot;&gt;&lt;span style=&quot;background-color: initial;&quot;&gt;HashSet&amp;lt;YearWeekEntry&amp;gt;&lt;/span&gt;&lt;/span&gt;)" style="text;strokeColor=none;fillColor=none;align=left;verticalAlign=top;spacingLeft=4;spacingRight=4;overflow=hidden;rotatable=0;points=[[0,0.5],[1,0.5]];portConstraint=eastwest;whiteSpace=wrap;html=1;" vertex="1" parent="f6jFOahU2R-Q090BEiEr-205">
          <mxGeometry y="220" width="340" height="80" as="geometry" />
        </mxCell>
        <mxCell id="f6jFOahU2R-Q090BEiEr-219" value="+ getDetailStartYearWeekEntry(film : film) : YearWeekEntry" style="text;strokeColor=none;fillColor=none;align=left;verticalAlign=top;spacingLeft=4;spacingRight=4;overflow=hidden;rotatable=0;points=[[0,0.5],[1,0.5]];portConstraint=eastwest;whiteSpace=wrap;html=1;" vertex="1" parent="f6jFOahU2R-Q090BEiEr-205">
          <mxGeometry y="300" width="340" height="20" as="geometry" />
        </mxCell>
        <mxCell id="f6jFOahU2R-Q090BEiEr-220" value="+ getDetailEndYearWeekEntry() : YearWeekEntry" style="text;strokeColor=none;fillColor=none;align=left;verticalAlign=top;spacingLeft=4;spacingRight=4;overflow=hidden;rotatable=0;points=[[0,0.5],[1,0.5]];portConstraint=eastwest;whiteSpace=wrap;html=1;" vertex="1" parent="f6jFOahU2R-Q090BEiEr-205">
          <mxGeometry y="320" width="340" height="20" as="geometry" />
        </mxCell>
        <mxCell id="f6jFOahU2R-Q090BEiEr-221" value="&lt;div&gt;+ addDetailFutureWeeks(film : Film,&amp;nbsp;&lt;span style=&quot;background-color: initial;&quot;&gt;allRangeYearWeeks :&amp;nbsp;&lt;/span&gt;&lt;span style=&quot;background-color: initial;&quot;&gt;List&amp;lt;YearWeekEntry&amp;gt;,&lt;/span&gt;&lt;/div&gt;&lt;div&gt;&lt;span style=&quot;background-color: initial;&quot;&gt;reservedWeeks :&amp;nbsp;&lt;/span&gt;HashMap&amp;lt;YearWeekEntry, Integer[]&amp;gt;,&lt;/div&gt;&lt;div&gt;&lt;span style=&quot;background-color: initial;&quot;&gt;blockedReservedWeeks :&amp;nbsp;&lt;/span&gt;HashSet&amp;lt;YearWeekEntry&amp;gt;)&lt;/div&gt;" style="text;strokeColor=none;fillColor=none;align=left;verticalAlign=top;spacingLeft=4;spacingRight=4;overflow=hidden;rotatable=0;points=[[0,0.5],[1,0.5]];portConstraint=eastwest;whiteSpace=wrap;html=1;" vertex="1" parent="f6jFOahU2R-Q090BEiEr-205">
          <mxGeometry y="340" width="340" height="70" as="geometry" />
        </mxCell>
        <mxCell id="f6jFOahU2R-Q090BEiEr-222" value="+&amp;nbsp;getTotalSeatOccupancyValues(film : Film) : int[]" style="text;strokeColor=none;fillColor=none;align=left;verticalAlign=top;spacingLeft=4;spacingRight=4;overflow=hidden;rotatable=0;points=[[0,0.5],[1,0.5]];portConstraint=eastwest;whiteSpace=wrap;html=1;" vertex="1" parent="f6jFOahU2R-Q090BEiEr-205">
          <mxGeometry y="410" width="340" height="30" as="geometry" />
        </mxCell>
        <mxCell id="f6jFOahU2R-Q090BEiEr-223" value="ManageStorageController" style="swimlane;fontStyle=1;align=center;verticalAlign=top;childLayout=stackLayout;horizontal=1;startSize=26;horizontalStack=0;resizeParent=1;resizeParentMax=0;resizeLast=0;collapsible=1;marginBottom=0;whiteSpace=wrap;html=1;" vertex="1" parent="WIyWlLk6GJQsqaUBKTNV-1">
          <mxGeometry x="-1260" y="1270" width="340" height="250" as="geometry" />
        </mxCell>
        <mxCell id="f6jFOahU2R-Q090BEiEr-224" value="- snacksRepository : SnacksRepository" style="text;strokeColor=none;fillColor=none;align=left;verticalAlign=top;spacingLeft=4;spacingRight=4;overflow=hidden;rotatable=0;points=[[0,0.5],[1,0.5]];portConstraint=eastwest;whiteSpace=wrap;html=1;" vertex="1" parent="f6jFOahU2R-Q090BEiEr-223">
          <mxGeometry y="26" width="340" height="24" as="geometry" />
        </mxCell>
        <mxCell id="f6jFOahU2R-Q090BEiEr-225" value="- snacksService : SnacksService" style="text;strokeColor=none;fillColor=none;align=left;verticalAlign=top;spacingLeft=4;spacingRight=4;overflow=hidden;rotatable=0;points=[[0,0.5],[1,0.5]];portConstraint=eastwest;whiteSpace=wrap;html=1;" vertex="1" parent="f6jFOahU2R-Q090BEiEr-223">
          <mxGeometry y="50" width="340" height="20" as="geometry" />
        </mxCell>
        <mxCell id="f6jFOahU2R-Q090BEiEr-226" value="" style="line;strokeWidth=1;fillColor=none;align=left;verticalAlign=middle;spacingTop=-1;spacingLeft=3;spacingRight=3;rotatable=0;labelPosition=right;points=[];portConstraint=eastwest;strokeColor=inherit;" vertex="1" parent="f6jFOahU2R-Q090BEiEr-223">
          <mxGeometry y="70" width="340" height="8" as="geometry" />
        </mxCell>
        <mxCell id="f6jFOahU2R-Q090BEiEr-227" value="&lt;span style=&quot;text-wrap: nowrap;&quot;&gt;+ ManageStorageController(&lt;/span&gt;&lt;div&gt;&lt;span style=&quot;text-wrap: nowrap;&quot;&gt;snacksRepository : SnacksRepository,&lt;/span&gt;&lt;div&gt;&lt;span style=&quot;text-wrap: nowrap;&quot;&gt;snacksService, SnacksService)&lt;/span&gt;&lt;/div&gt;&lt;/div&gt;" style="text;strokeColor=none;fillColor=none;align=left;verticalAlign=top;spacingLeft=4;spacingRight=4;overflow=hidden;rotatable=0;points=[[0,0.5],[1,0.5]];portConstraint=eastwest;whiteSpace=wrap;html=1;" vertex="1" parent="f6jFOahU2R-Q090BEiEr-223">
          <mxGeometry y="78" width="340" height="52" as="geometry" />
        </mxCell>
        <mxCell id="f6jFOahU2R-Q090BEiEr-228" value="+ showStorage(model : Model) : String" style="text;strokeColor=none;fillColor=none;align=left;verticalAlign=top;spacingLeft=4;spacingRight=4;overflow=hidden;rotatable=0;points=[[0,0.5],[1,0.5]];portConstraint=eastwest;whiteSpace=wrap;html=1;" vertex="1" parent="f6jFOahU2R-Q090BEiEr-223">
          <mxGeometry y="130" width="340" height="20" as="geometry" />
        </mxCell>
        <mxCell id="f6jFOahU2R-Q090BEiEr-230" value="&lt;span style=&quot;text-wrap: nowrap;&quot;&gt;+ newItem(newSnack : String,&amp;nbsp;&lt;/span&gt;&lt;div&gt;&lt;span style=&quot;text-wrap: nowrap;&quot;&gt;snackType : Snacks.SnackType,&amp;nbsp;&lt;/span&gt;&lt;span style=&quot;background-color: initial; text-wrap: nowrap;&quot;&gt;file : MultipartFile,&amp;nbsp;&lt;/span&gt;&lt;/div&gt;&lt;div&gt;&lt;span style=&quot;background-color: initial; text-wrap: nowrap;&quot;&gt;redirectAttributes : RedirectAttributes&lt;/span&gt;&lt;span style=&quot;background-color: initial; text-wrap: nowrap;&quot;&gt;)&lt;/span&gt;&lt;/div&gt;" style="text;strokeColor=none;fillColor=none;align=left;verticalAlign=top;spacingLeft=4;spacingRight=4;overflow=hidden;rotatable=0;points=[[0,0.5],[1,0.5]];portConstraint=eastwest;whiteSpace=wrap;html=1;" vertex="1" parent="f6jFOahU2R-Q090BEiEr-223">
          <mxGeometry y="150" width="340" height="50" as="geometry" />
        </mxCell>
        <mxCell id="f6jFOahU2R-Q090BEiEr-236" value="&lt;span style=&quot;text-wrap: nowrap;&quot;&gt;+ saveItems(snackIds : List&amp;lt;Product.ProductIdentifier&amp;gt;,&amp;nbsp;&lt;/span&gt;&lt;div&gt;&lt;span style=&quot;background-color: initial; text-wrap: nowrap;&quot;&gt;snackCounters : List&amp;lt;Integer&amp;gt;,&amp;nbsp;&lt;/span&gt;&lt;/div&gt;&lt;div&gt;&lt;span style=&quot;background-color: initial; text-wrap: nowrap;&quot;&gt;redirectAttributes : RedirectAttributes&lt;/span&gt;&lt;span style=&quot;background-color: initial; text-wrap: nowrap;&quot;&gt;)&lt;/span&gt;&lt;/div&gt;" style="text;strokeColor=none;fillColor=none;align=left;verticalAlign=top;spacingLeft=4;spacingRight=4;overflow=hidden;rotatable=0;points=[[0,0.5],[1,0.5]];portConstraint=eastwest;whiteSpace=wrap;html=1;" vertex="1" parent="f6jFOahU2R-Q090BEiEr-223">
          <mxGeometry y="200" width="340" height="50" as="geometry" />
        </mxCell>
      </root>
    </mxGraphModel>
  </diagram>
</mxfile>
